<svg width="60" height="60" viewBox="0 0 60 60" fill="none" xmlns="http://www.w3.org/2000/svg">
<path d="M22.5735 54.2471L28.3987 49.3469C29.2737 48.5969 30.7238 48.5969 31.5988 49.3469L37.4241 54.2471C38.7741 54.9222 40.4242 54.2471 40.9242 52.7971L42.0243 49.472C42.2993 48.6719 42.0243 47.4969 41.4242 46.8968L35.749 41.1966C35.324 40.7966 34.999 39.9966 34.999 39.4215V32.2963C34.999 31.2462 35.774 30.7462 36.749 31.1462L49.0245 36.4464C50.9496 37.2715 52.5247 36.2464 52.5247 34.1463V30.9212C52.5247 29.2461 51.2746 27.3211 49.7246 26.671L35.749 20.6458C35.349 20.4708 34.999 19.9458 34.999 19.4957V11.9954C34.999 9.64533 33.2739 6.87022 31.1738 5.79518C30.4238 5.42016 29.5488 5.42016 28.7987 5.79518C26.6986 6.87022 24.9736 9.67034 24.9736 12.0204V19.5207C24.9736 19.9708 24.6236 20.4958 24.2235 20.6708L10.273 26.696C8.72291 27.3211 7.47285 29.2461 7.47285 30.9212V34.1463C7.47285 36.2464 9.04792 37.2715 10.973 36.4464L23.2485 31.1462C24.1985 30.7212 24.9986 31.2462 24.9986 32.2963V39.4215C24.9986 39.9966 24.6736 40.7966 24.2735 41.1966L18.5983 46.8968C17.9983 47.4969 17.7233 48.6469 17.9983 49.472L19.0983 52.7971C19.5483 54.2471 21.1984 54.9472 22.5735 54.2471Z" fill="#0052CC" fill-opacity="0.15" stroke="#2986FD" stroke-width="2" stroke-linecap="round" stroke-linejoin="round"/>
</svg>
