<svg width="24" height="24" viewBox="0 0 24 24" fill="none" xmlns="http://www.w3.org/2000/svg">
<path d="M7.24511 3.04795L6.98348 6.08144C6.94813 6.54106 6.53801 6.95118 6.07839 6.98653L3.0449 7.24816C2.47214 7.43908 2.19637 8.09669 2.46507 8.64824L3.0944 9.89981C3.24289 10.2039 3.65301 10.4584 3.99242 10.4584L7.20976 10.4655C7.4431 10.4584 7.7613 10.5928 7.92394 10.7554L9.93919 12.7707C10.2362 13.0677 10.1584 13.4283 9.76948 13.5909L4.79852 15.5637C4.02071 15.8749 3.86514 16.6103 4.45911 17.2042L5.37128 18.1164C5.84504 18.5902 6.74307 18.7811 7.36532 18.5265L13.0222 16.2779C13.1848 16.2143 13.4323 16.2638 13.5596 16.3911L15.6809 18.5124C16.3456 19.1771 17.6184 19.474 18.5164 19.1841C18.8346 19.0781 19.0821 18.8306 19.1881 18.5124C19.4781 17.6143 19.174 16.3345 18.5093 15.6698L16.388 13.5485C16.2607 13.4212 16.2112 13.1737 16.2749 13.0111L18.5164 7.3613C18.778 6.74612 18.5871 5.84809 18.1133 5.37433L17.2012 4.46216C16.6072 3.86819 15.8718 4.02376 15.5607 4.80157L13.5879 9.77253C13.4394 10.1614 13.0646 10.2392 12.7676 9.94224L10.7524 7.92699C10.5897 7.76435 10.4554 7.44615 10.4554 7.21988L10.4483 4.00254C10.4483 3.66313 10.2008 3.26008 9.88969 3.10452L8.63811 2.47519C8.10071 2.19235 7.43603 2.46105 7.24511 3.04795Z" stroke="white" stroke-width="1.5" stroke-linecap="round" stroke-linejoin="round"/>
</svg>
