<svg width="25" height="24" viewBox="0 0 25 24" fill="none" xmlns="http://www.w3.org/2000/svg">
<path opacity="0.4" d="M22.5 9V16.46C22.5 18.75 20.64 20.6 18.35 20.6H6.65C4.36 20.6 2.5 18.75 2.5 16.46V9H22.5Z" fill="#2986FD"/>
<path d="M22.5 7.54039V9.00039H2.5V7.54039C2.5 5.25039 4.36 3.40039 6.65 3.40039H18.35C20.64 3.40039 22.5 5.25039 22.5 7.54039Z" fill="#2986FD"/>
<path d="M8.5 17.25H6.5C6.09 17.25 5.75 16.91 5.75 16.5C5.75 16.09 6.09 15.75 6.5 15.75H8.5C8.91 15.75 9.25 16.09 9.25 16.5C9.25 16.91 8.91 17.25 8.5 17.25Z" fill="#2986FD"/>
<path d="M15 17.25H11C10.59 17.25 10.25 16.91 10.25 16.5C10.25 16.09 10.59 15.75 11 15.75H15C15.41 15.75 15.75 16.09 15.75 16.5C15.75 16.91 15.41 17.25 15 17.25Z" fill="#2986FD"/>
</svg>
