<?xml version="1.0" encoding="UTF-8"?>
<!DOCTYPE svg PUBLIC "-//W3C//DTD SVG 1.1//EN" "http://www.w3.org/Graphics/SVG/1.1/DTD/svg11.dtd">
<svg xmlns="http://www.w3.org/2000/svg" version="1.1" width="500px" height="500px" style="shape-rendering:geometricPrecision; text-rendering:geometricPrecision; image-rendering:optimizeQuality; fill-rule:evenodd; clip-rule:evenodd" xmlns:xlink="http://www.w3.org/1999/xlink">
<g><path style="opacity:1" fill="#de290f" d="M -0.5,-0.5 C 166.167,-0.5 332.833,-0.5 499.5,-0.5C 499.5,166.167 499.5,332.833 499.5,499.5C 332.833,499.5 166.167,499.5 -0.5,499.5C -0.5,332.833 -0.5,166.167 -0.5,-0.5 Z"/></g>
<g><path style="opacity:1" fill="#feda00" d="M 258.5,25.5 C 258.771,31.7506 258.771,38.0839 258.5,44.5C 263.954,46.7267 269.287,49.2267 274.5,52C 268.454,53.1189 262.454,54.4522 256.5,56C 255.456,61.8456 254.289,67.6789 253,73.5C 250.293,68.5845 247.459,63.7512 244.5,59C 238.939,59.1205 233.439,59.9539 228,61.5C 227.5,61.1667 227,60.8333 226.5,60.5C 230.5,56.1667 234.5,51.8333 238.5,47.5C 235.066,41.9664 232.233,36.2997 230,30.5C 235.07,33.534 240.403,36.2006 246,38.5C 251.031,34.9697 255.197,30.6364 258.5,25.5 Z"/></g>
<g><path style="opacity:1" fill="#fedc00" d="M 141.5,98.5 C 158.5,99.1667 175.5,99.8333 192.5,100.5C 178.544,110.456 164.878,120.79 151.5,131.5C 156.599,146.964 161.599,162.464 166.5,178C 166.167,178.5 165.833,179 165.5,179.5C 151.859,169.693 138.359,159.693 125,149.5C 111.027,159.306 97.1936,169.306 83.5,179.5C 83.1667,179.167 82.8333,178.833 82.5,178.5C 87.6998,162.9 92.6998,147.234 97.5,131.5C 84.4185,120.452 70.7518,110.119 56.5,100.5C 73.8333,99.8333 91.1667,99.1667 108.5,98.5C 113.696,82.0789 119.196,65.7456 125,49.5C 130.038,66.1161 135.538,82.4495 141.5,98.5 Z"/></g>
<g><path style="opacity:1" fill="#feda00" d="M 289.5,75.5 C 294.146,79.8115 298.813,84.1449 303.5,88.5C 308.585,86.36 313.585,84.0266 318.5,81.5C 318.833,81.8333 319.167,82.1667 319.5,82.5C 316.579,87.3413 313.912,92.3413 311.5,97.5C 315.651,102.152 319.985,106.652 324.5,111C 318.195,110.087 311.861,109.42 305.5,109C 302.794,114.247 299.96,119.414 297,124.5C 295.721,118.55 294.721,112.55 294,106.5C 288.005,105.543 282.172,104.043 276.5,102C 281.38,99.6427 286.214,97.1427 291,94.5C 291.673,88.07 291.173,81.7366 289.5,75.5 Z"/></g>
<g><path style="opacity:1" fill="#e6560b" d="M 108.5,98.5 C 91.1667,99.1667 73.8333,99.8333 56.5,100.5C 55.9569,100.44 55.6236,100.107 55.5,99.5C 73.1541,98.5005 90.8208,98.1671 108.5,98.5 Z"/></g>
<g><path style="opacity:1" fill="#e6570b" d="M 141.5,98.5 C 158.846,98.1672 176.179,98.5005 193.5,99.5C 193.376,100.107 193.043,100.44 192.5,100.5C 175.5,99.8333 158.5,99.1667 141.5,98.5 Z"/></g>
<g><path style="opacity:1" fill="#feda00" d="M 299.5,149.5 C 302.471,155.079 304.471,161.079 305.5,167.5C 311.842,167.334 318.175,167.5 324.5,168C 319.159,171.351 314.492,175.351 310.5,180C 311.865,185.263 313.532,190.429 315.5,195.5C 315.167,195.833 314.833,196.167 314.5,196.5C 310.069,192.566 305.236,189.233 300,186.5C 295.079,189.046 290.579,192.213 286.5,196C 285.668,196.688 285.002,196.521 284.5,195.5C 286.372,190.551 288.038,185.551 289.5,180.5C 289.167,179.5 288.833,178.5 288.5,177.5C 284.167,174.333 279.833,171.167 275.5,168C 281.825,167.5 288.158,167.334 294.5,167.5C 295.855,161.412 297.522,155.412 299.5,149.5 Z"/></g>
<g><path style="opacity:1" fill="#feda00" d="M 257.5,200.5 C 258.018,206.65 258.018,212.983 257.5,219.5C 263.248,221.362 268.915,223.529 274.5,226C 268.565,227.817 262.565,229.317 256.5,230.5C 256.397,236.861 255.897,243.194 255,249.5C 251.958,244.581 248.791,239.748 245.5,235C 239.906,234.936 234.406,235.769 229,237.5C 228.5,237.167 228,236.833 227.5,236.5C 231.404,232.352 235.071,228.019 238.5,223.5C 235.291,218.248 231.958,213.082 228.5,208C 234.239,209.641 239.905,211.807 245.5,214.5C 249.868,210.133 253.868,205.467 257.5,200.5 Z"/></g>
</svg>
