<svg width="48" height="48" viewBox="0 0 48 48" fill="none" xmlns="http://www.w3.org/2000/svg">
<path d="M23.75 0.5C30.0489 0.5 36.0898 3.00222 40.5438 7.45621C44.9978 11.9102 47.5 17.9511 47.5 24.25C47.5 30.5489 44.9978 36.5898 40.5438 41.0438C36.0898 45.4978 30.0489 48 23.75 48C17.4511 48 11.4102 45.4978 6.95621 41.0438C2.50222 36.5898 0 30.5489 0 24.25C0 17.9511 2.50222 11.9102 6.95621 7.45621C11.4102 3.00222 17.4511 0.5 23.75 0.5ZM23.75 3C18.1141 3 12.7091 5.23883 8.72398 9.22398C4.73883 13.2091 2.5 18.6141 2.5 24.25C2.5 29.8859 4.73883 35.2909 8.72398 39.276C12.7091 43.2612 18.1141 45.5 23.75 45.5C26.5406 45.5 29.3039 44.9504 31.882 43.8824C34.4602 42.8145 36.8028 41.2493 38.776 39.276C40.7493 37.3028 42.3145 34.9602 43.3824 32.382C44.4504 29.8039 45 27.0406 45 24.25C45 18.6141 42.7612 13.2091 38.776 9.22398C34.7909 5.23883 29.3859 3 23.75 3ZM22.5 10.5H25V24.05L36.75 30.825L35.5 33L22.5 25.5V10.5Z" fill="#2986FD"/>
</svg>
