<svg width="48" height="48" viewBox="0 0 48 48" fill="none" xmlns="http://www.w3.org/2000/svg">
<path d="M43.7038 38.4757L41.7669 37.8038C42.3225 37.3661 42.7716 36.8082 43.0805 36.172C43.3894 35.5358 43.55 34.8378 43.5502 34.1305V32.7099C43.5834 32.0738 43.4869 31.4377 43.2664 30.8402C43.0459 30.2426 42.706 29.6963 42.2676 29.2343C41.8292 28.7723 41.3013 28.4045 40.7161 28.1531C40.1309 27.9017 39.5006 27.772 38.8637 27.772C38.2268 27.772 37.5966 27.9017 37.0114 28.1531C36.4262 28.4045 35.8983 28.7723 35.4598 29.2343C35.0214 29.6963 34.6816 30.2426 34.4611 30.8402C34.2406 31.4377 34.144 32.0738 34.1772 32.7099V34.1305C34.1775 34.8378 34.3381 35.5358 34.6469 36.172C34.9558 36.8082 35.405 37.3661 35.9605 37.8038L34.0237 38.4757C32.8101 38.8977 31.7522 39.6761 30.9882 40.7091H25.7514V38.6442C25.7501 37.3169 25.3361 36.0229 24.5667 34.9414C23.7974 33.8598 22.7108 33.0442 21.4574 32.6075L19.5205 31.9356C20.0761 31.4979 20.5252 30.94 20.8341 30.3038C21.143 29.6676 21.3036 28.9696 21.3038 28.2623V26.8417C21.3371 26.2056 21.2405 25.5695 21.02 24.972C20.7995 24.3744 20.4597 23.8281 20.0212 23.3661C19.5828 22.9041 19.0549 22.5362 18.4697 22.2848C17.8845 22.0334 17.2543 21.9038 16.6174 21.9038C15.9804 21.9038 15.3502 22.0334 14.765 22.2848C14.1798 22.5362 13.6519 22.9041 13.2135 23.3661C12.775 23.8281 12.4352 24.3744 12.2147 24.972C11.9942 25.5695 11.8976 26.2056 11.9309 26.8417V28.2623C11.9313 28.9695 12.0919 29.6675 12.4008 30.3037C12.7097 30.9399 13.1587 31.4978 13.7142 31.9356L11.7773 32.6075C10.5239 33.0442 9.4373 33.8598 8.66796 34.9414C7.89863 36.0229 7.48463 37.3169 7.48331 38.6442V40.7091H0.710639C0.522986 40.7096 0.34318 40.7844 0.210489 40.9171C0.0777982 41.0498 0.00300409 41.2296 0.00244141 41.4173L0.00244141 47.2855C0.00244141 47.4739 0.0772796 47.6546 0.210492 47.7878C0.343705 47.921 0.524381 47.9958 0.712772 47.9958H30.248C30.311 47.9866 30.3749 47.9866 30.4379 47.9958H47.2896C47.478 47.9958 47.6586 47.921 47.7918 47.7878C47.9251 47.6546 47.9999 47.4739 47.9999 47.2855V44.5124C47.9986 43.1852 47.5846 41.8911 46.8152 40.8096C46.0459 39.728 44.9593 38.9124 43.7059 38.4757H43.7038ZM35.5979 32.7163C35.5979 31.8501 35.942 31.0195 36.5544 30.407C37.1669 29.7945 37.9976 29.4505 38.8637 29.4505C39.7299 29.4505 40.5605 29.7945 41.173 30.407C41.7855 31.0195 42.1295 31.8501 42.1295 32.7163V34.1369C42.1295 35.0031 41.7855 35.8338 41.173 36.4462C40.5605 37.0587 39.7299 37.4027 38.8637 37.4027C37.9976 37.4027 37.1669 37.0587 36.5544 36.4462C35.942 35.8338 35.5979 35.0031 35.5979 34.1369V32.7163ZM13.3494 26.8395C13.3494 25.9734 13.6935 25.1427 14.3059 24.5302C14.9184 23.9178 15.7491 23.5737 16.6152 23.5737C17.4814 23.5737 18.312 23.9178 18.9245 24.5302C19.537 25.1427 19.881 25.9734 19.881 26.8395V28.2602C19.881 28.6891 19.7966 29.1137 19.6324 29.51C19.4683 29.9062 19.2278 30.2662 18.9245 30.5695C18.6212 30.8727 18.2612 31.1133 17.865 31.2774C17.4688 31.4415 17.0441 31.526 16.6152 31.526C16.1863 31.526 15.7617 31.4415 15.3654 31.2774C14.9692 31.1133 14.6092 30.8727 14.3059 30.5695C14.0027 30.2662 13.7621 29.9062 13.598 29.51C13.4339 29.1137 13.3494 28.6891 13.3494 28.2602V26.8395ZM18.1041 32.9467L18.7931 33.1856L16.6131 36.9676L14.4352 33.1834L15.1242 32.9445L18.1041 32.9467ZM8.89971 38.6442C8.90086 37.6121 9.22302 36.6059 9.82155 35.7651C10.4201 34.9242 11.2653 34.2904 12.2402 33.9513L13.07 33.6634L16.0009 38.7423C16.0632 38.8504 16.1529 38.9402 16.2609 39.0026C16.3689 39.0651 16.4915 39.0979 16.6163 39.0979C16.7411 39.0979 16.8636 39.0651 16.9717 39.0026C17.0797 38.9402 17.1694 38.8504 17.2317 38.7423L20.1605 33.6527L20.9903 33.9407C21.9651 34.2797 22.8104 34.9135 23.4089 35.7544C24.0074 36.5952 24.3296 37.6015 24.3307 38.6336V40.6984H8.89971V38.6442ZM1.42097 42.1276H30.1904C29.8848 42.8848 29.7276 43.6937 29.7275 44.5103V46.5752H1.42097V42.1276ZM46.5771 46.5773H31.1461V44.5124C31.1472 43.4803 31.4694 42.4741 32.0679 41.6333C32.6664 40.7925 33.5117 40.1586 34.4865 39.8196L37.3727 38.817H40.359L43.2452 39.8196C44.22 40.1586 45.0653 40.7925 45.6638 41.6333C46.2623 42.4741 46.5845 43.4803 46.5856 44.5124L46.5771 46.5773Z" fill="#2986FD"/>
<path d="M43.5008 5.11949H36.2887C36.1003 5.11949 35.9197 5.19433 35.7864 5.32755C35.6532 5.46076 35.5784 5.64143 35.5784 5.82982C35.5784 6.01822 35.6532 6.19889 35.7864 6.3321C35.9197 6.46532 36.1003 6.54015 36.2887 6.54015H43.5008C44.3137 6.5407 45.0934 6.86254 45.67 7.43553C46.2466 8.00852 46.5733 8.78619 46.5789 9.59905V19.4541C46.5778 20.2695 46.2534 21.0513 45.6767 21.6279C45.1001 22.2045 44.3184 22.5289 43.503 22.53H33.7503C33.5619 22.53 33.3812 22.6049 33.248 22.7381C33.1148 22.8713 33.04 23.052 33.04 23.2404V26.2609L29.5182 22.7391C29.4528 22.6723 29.3748 22.6191 29.2888 22.5825C29.2028 22.5459 29.1104 22.5266 29.0169 22.5258H23.2425C22.4275 22.5252 21.6458 22.2016 21.0689 21.6259C20.4919 21.0501 20.1667 20.2692 20.1644 19.4541V9.59905C20.1656 8.78323 20.4903 8.00118 21.0674 7.42451C21.6444 6.84784 22.4267 6.52365 23.2425 6.52309H32.9696C33.158 6.52309 33.3387 6.44825 33.4719 6.31504C33.6051 6.18183 33.6799 6.00115 33.6799 5.81276C33.6799 5.62437 33.6051 5.44369 33.4719 5.31048C33.3387 5.17727 33.158 5.10243 32.9696 5.10243H29.2537V4.49662C29.252 3.30272 28.7762 2.15835 27.931 1.31513C27.0858 0.471916 25.9403 -0.00113031 24.7464 2.02818e-06H4.4817C3.2926 0.00619708 2.15422 0.482477 1.31499 1.3249C0.475756 2.16733 0.00380687 3.30751 0.00213313 4.49662V6.0666C0.00213313 6.25499 0.0769713 6.43567 0.210184 6.56888C0.343397 6.70209 0.524072 6.77693 0.712464 6.77693C0.900855 6.77693 1.08153 6.70209 1.21474 6.56888C1.34796 6.43567 1.42279 6.25499 1.42279 6.0666V4.49662C1.42392 3.68117 1.74836 2.89945 2.32497 2.32284C2.90158 1.74623 3.68331 1.42179 4.49876 1.42066H24.7635C25.5789 1.42179 26.3606 1.74623 26.9372 2.32284C27.5139 2.89945 27.8383 3.68117 27.8394 4.49662V5.11949H23.2425C22.0534 5.12117 20.9132 5.59312 20.0708 6.43235C19.2284 7.27158 18.7521 8.40995 18.7459 9.59905V17.4191H11.3077C11.12 17.4208 10.9407 17.4966 10.8088 17.6301C10.6769 17.7636 10.6032 17.9439 10.6038 18.1315V21.1478L7.08198 17.626C7.01657 17.5592 6.93862 17.506 6.8526 17.4694C6.76657 17.4328 6.67417 17.4135 6.58069 17.4127H4.49876C3.68368 17.4121 2.90205 17.0885 2.3251 16.5128C1.74815 15.937 1.42292 15.1561 1.42066 14.341V9.36867C1.42066 9.18028 1.34582 8.99961 1.21261 8.86639C1.0794 8.73318 0.898722 8.65834 0.710331 8.65834C0.521939 8.65834 0.341264 8.73318 0.208051 8.86639C0.0748382 8.99961 0 9.18028 0 9.36867V14.341C0.000565256 15.534 0.474722 16.6779 1.31828 17.5215C2.16184 18.365 3.30579 18.8392 4.49876 18.8397H6.28632L10.8128 23.3662C10.9121 23.4652 11.0385 23.5325 11.1761 23.5597C11.3136 23.587 11.4561 23.5729 11.5857 23.5193C11.7152 23.4657 11.826 23.375 11.9041 23.2585C11.9822 23.1421 12.024 23.0051 12.0244 22.8649V18.8376H18.7459V19.4541C18.747 20.6463 19.2211 21.7894 20.0642 22.6324C20.9072 23.4755 22.0503 23.9496 23.2425 23.9507H28.7225L33.2469 28.4772C33.3462 28.5761 33.4726 28.6435 33.6101 28.6707C33.7477 28.6979 33.8902 28.6839 34.0197 28.6303C34.1493 28.5767 34.2601 28.4859 34.3382 28.3695C34.4162 28.253 34.4581 28.1161 34.4585 27.9759V23.9507H43.4987C44.6913 23.9501 45.8349 23.4763 46.6784 22.6332C47.5219 21.7901 47.9963 20.6467 47.9975 19.4541V9.59905C47.9913 8.40995 47.515 7.27158 46.6725 6.43235C45.8301 5.59312 44.6899 5.12117 43.5008 5.11949Z" fill="#2986FD"/>
</svg>
