<?xml version="1.0" encoding="UTF-8"?>
<!DOCTYPE svg PUBLIC "-//W3C//DTD SVG 1.1//EN" "http://www.w3.org/Graphics/SVG/1.1/DTD/svg11.dtd">
<svg xmlns="http://www.w3.org/2000/svg" version="1.1" width="2048px" height="2048px" style="shape-rendering:geometricPrecision; text-rendering:geometricPrecision; image-rendering:optimizeQuality; fill-rule:evenodd; clip-rule:evenodd" xmlns:xlink="http://www.w3.org/1999/xlink">
<g><path style="opacity:1" fill="#fefefe" d="M 0.5,-0.5 C 96.8333,-0.5 193.167,-0.5 289.5,-0.5C 419.5,130.167 549.833,260.5 680.5,390.5C 680.783,391.289 681.283,391.956 682,392.5C 682.5,261.5 682.667,130.5 682.5,-0.5C 727.833,-0.5 773.167,-0.5 818.5,-0.5C 818.5,272.5 818.5,545.5 818.5,818.5C 545.5,818.5 272.5,818.5 -0.5,818.5C -0.5,773.167 -0.5,727.833 -0.5,682.5C 130.5,682.667 261.5,682.5 392.5,682C 391.956,681.283 391.289,680.783 390.5,680.5C 260.5,549.833 130.167,419.5 -0.5,289.5C -0.5,257.5 -0.5,225.5 -0.5,193.5C 162.5,356.167 325.5,518.833 488.5,681.5C 552.668,682.832 617.001,682.832 681.5,681.5C 681.376,680.893 681.043,680.56 680.5,680.5C 453.833,453.5 227.167,226.5 0.5,-0.5 Z"/></g>
<g><path style="opacity:1" fill="#00247d" d="M 289.5,-0.5 C 420.167,-0.5 550.833,-0.5 681.5,-0.5C 681.833,130.001 681.5,260.334 680.5,390.5C 549.833,260.5 419.5,130.167 289.5,-0.5 Z"/></g>
<g><path style="opacity:1" fill="#556da8" d="M 681.5,-0.5 C 681.833,-0.5 682.167,-0.5 682.5,-0.5C 682.667,130.5 682.5,261.5 682,392.5C 681.283,391.956 680.783,391.289 680.5,390.5C 681.5,260.334 681.833,130.001 681.5,-0.5 Z"/></g>
<g><path style="opacity:1" fill="#cf142b" d="M 818.5,-0.5 C 955.167,-0.5 1091.83,-0.5 1228.5,-0.5C 1228.5,272.5 1228.5,545.5 1228.5,818.5C 1501.5,818.5 1774.5,818.5 2047.5,818.5C 2047.5,955.167 2047.5,1091.83 2047.5,1228.5C 1774.5,1228.5 1501.5,1228.5 1228.5,1228.5C 1228.5,1501.5 1228.5,1774.5 1228.5,2047.5C 1091.83,2047.5 955.167,2047.5 818.5,2047.5C 818.5,1774.5 818.5,1501.5 818.5,1228.5C 545.5,1228.5 272.5,1228.5 -0.5,1228.5C -0.5,1091.83 -0.5,955.167 -0.5,818.5C 272.5,818.5 545.5,818.5 818.5,818.5C 818.5,545.5 818.5,272.5 818.5,-0.5 Z"/></g>
<g><path style="opacity:1" fill="#fefefe" d="M 1228.5,-0.5 C 1273.83,-0.5 1319.17,-0.5 1364.5,-0.5C 1364.33,130.5 1364.5,261.5 1365,392.5C 1365.72,391.956 1366.22,391.289 1366.5,390.5C 1497.17,260.5 1627.5,130.167 1757.5,-0.5C 1789.5,-0.5 1821.5,-0.5 1853.5,-0.5C 1690.83,162.5 1528.17,325.5 1365.5,488.5C 1364.17,552.668 1364.17,617.001 1365.5,681.5C 1366.11,681.376 1366.44,681.043 1366.5,680.5C 1593.5,453.833 1820.5,227.167 2047.5,0.5C 2047.5,96.8333 2047.5,193.167 2047.5,289.5C 1916.83,419.5 1786.5,549.833 1656.5,680.5C 1655.71,680.783 1655.04,681.283 1654.5,682C 1785.5,682.5 1916.5,682.667 2047.5,682.5C 2047.5,727.833 2047.5,773.167 2047.5,818.5C 1774.5,818.5 1501.5,818.5 1228.5,818.5C 1228.5,545.5 1228.5,272.5 1228.5,-0.5 Z"/></g>
<g><path style="opacity:1" fill="#556ca7" d="M 1364.5,-0.5 C 1364.83,-0.5 1365.17,-0.5 1365.5,-0.5C 1365.17,130.001 1365.5,260.334 1366.5,390.5C 1366.22,391.289 1365.72,391.956 1365,392.5C 1364.5,261.5 1364.33,130.5 1364.5,-0.5 Z"/></g>
<g><path style="opacity:1" fill="#00247d" d="M 1365.5,-0.5 C 1496.17,-0.5 1626.83,-0.5 1757.5,-0.5C 1627.5,130.167 1497.17,260.5 1366.5,390.5C 1365.5,260.334 1365.17,130.001 1365.5,-0.5 Z"/></g>
<g><path style="opacity:1" fill="#cf162b" d="M 1853.5,-0.5 C 1918.17,-0.5 1982.83,-0.5 2047.5,-0.5C 2047.5,-0.166667 2047.5,0.166667 2047.5,0.5C 1820.5,227.167 1593.5,453.833 1366.5,680.5C 1365.5,616.669 1365.17,552.669 1365.5,488.5C 1528.17,325.5 1690.83,162.5 1853.5,-0.5 Z"/></g>
<g><path style="opacity:1" fill="#cf162b" d="M -0.5,-0.5 C -0.166667,-0.5 0.166667,-0.5 0.5,-0.5C 227.167,226.5 453.833,453.5 680.5,680.5C 616.669,681.499 552.669,681.832 488.5,681.5C 325.5,518.833 162.5,356.167 -0.5,193.5C -0.5,128.833 -0.5,64.1667 -0.5,-0.5 Z"/></g>
<g><path style="opacity:1" fill="#00247d" d="M -0.5,289.5 C 130.167,419.5 260.5,549.833 390.5,680.5C 260.334,681.5 130.001,681.833 -0.5,681.5C -0.5,550.833 -0.5,420.167 -0.5,289.5 Z"/></g>
<g><path style="opacity:1" fill="#00247d" d="M 2047.5,289.5 C 2047.5,420.167 2047.5,550.833 2047.5,681.5C 1917,681.833 1786.67,681.5 1656.5,680.5C 1786.5,549.833 1916.83,419.5 2047.5,289.5 Z"/></g>
<g><path style="opacity:1" fill="#df6272" d="M 1365.5,488.5 C 1365.17,552.669 1365.5,616.669 1366.5,680.5C 1366.44,681.043 1366.11,681.376 1365.5,681.5C 1364.17,617.001 1364.17,552.668 1365.5,488.5 Z"/></g>
<g><path style="opacity:1" fill="#556ca7" d="M 390.5,680.5 C 391.289,680.783 391.956,681.283 392.5,682C 261.5,682.5 130.5,682.667 -0.5,682.5C -0.5,682.167 -0.5,681.833 -0.5,681.5C 130.001,681.833 260.334,681.5 390.5,680.5 Z"/></g>
<g><path style="opacity:1" fill="#df6272" d="M 680.5,680.5 C 681.043,680.56 681.376,680.893 681.5,681.5C 617.001,682.832 552.668,682.832 488.5,681.5C 552.669,681.832 616.669,681.499 680.5,680.5 Z"/></g>
<g><path style="opacity:1" fill="#556da8" d="M 1656.5,680.5 C 1786.67,681.5 1917,681.833 2047.5,681.5C 2047.5,681.833 2047.5,682.167 2047.5,682.5C 1916.5,682.667 1785.5,682.5 1654.5,682C 1655.04,681.283 1655.71,680.783 1656.5,680.5 Z"/></g>
<g><path style="opacity:1" fill="#fefefe" d="M -0.5,1228.5 C 272.5,1228.5 545.5,1228.5 818.5,1228.5C 818.5,1501.5 818.5,1774.5 818.5,2047.5C 773.167,2047.5 727.833,2047.5 682.5,2047.5C 682.667,1916.5 682.5,1785.5 682,1654.5C 681.283,1655.04 680.783,1655.71 680.5,1656.5C 549.833,1786.5 419.5,1916.83 289.5,2047.5C 257.5,2047.5 225.5,2047.5 193.5,2047.5C 356.167,1884.5 518.833,1721.5 681.5,1558.5C 682.832,1494.33 682.832,1430 681.5,1365.5C 680.893,1365.62 680.56,1365.96 680.5,1366.5C 453.5,1593.17 226.5,1819.83 -0.5,2046.5C -0.5,1950.17 -0.5,1853.83 -0.5,1757.5C 130.167,1627.5 260.5,1497.17 390.5,1366.5C 391.289,1366.22 391.956,1365.72 392.5,1365C 261.5,1364.5 130.5,1364.33 -0.5,1364.5C -0.5,1319.17 -0.5,1273.83 -0.5,1228.5 Z"/></g>
<g><path style="opacity:1" fill="#fefefe" d="M 2047.5,1228.5 C 2047.5,1273.83 2047.5,1319.17 2047.5,1364.5C 1916.5,1364.33 1785.5,1364.5 1654.5,1365C 1655.04,1365.72 1655.71,1366.22 1656.5,1366.5C 1786.5,1497.17 1916.83,1627.5 2047.5,1757.5C 2047.5,1789.5 2047.5,1821.5 2047.5,1853.5C 1884.5,1690.83 1721.5,1528.17 1558.5,1365.5C 1494.33,1364.17 1430,1364.17 1365.5,1365.5C 1365.62,1366.11 1365.96,1366.44 1366.5,1366.5C 1593.16,1592.66 1819.66,1818.99 2046,2045.5C 2046.46,2046.09 2046.63,2046.76 2046.5,2047.5C 1950.17,2047.5 1853.83,2047.5 1757.5,2047.5C 1627.5,1916.83 1497.17,1786.5 1366.5,1656.5C 1366.22,1655.71 1365.72,1655.04 1365,1654.5C 1364.5,1785.5 1364.33,1916.5 1364.5,2047.5C 1319.17,2047.5 1273.83,2047.5 1228.5,2047.5C 1228.5,1774.5 1228.5,1501.5 1228.5,1228.5C 1501.5,1228.5 1774.5,1228.5 2047.5,1228.5 Z"/></g>
<g><path style="opacity:1" fill="#556ca7" d="M -0.5,1365.5 C -0.5,1365.17 -0.5,1364.83 -0.5,1364.5C 130.5,1364.33 261.5,1364.5 392.5,1365C 391.956,1365.72 391.289,1366.22 390.5,1366.5C 260.334,1365.5 130.001,1365.17 -0.5,1365.5 Z"/></g>
<g><path style="opacity:1" fill="#df6272" d="M 1558.5,1365.5 C 1494.33,1365.17 1430.33,1365.5 1366.5,1366.5C 1365.96,1366.44 1365.62,1366.11 1365.5,1365.5C 1430,1364.17 1494.33,1364.17 1558.5,1365.5 Z"/></g>
<g><path style="opacity:1" fill="#556da8" d="M 2047.5,1364.5 C 2047.5,1364.83 2047.5,1365.17 2047.5,1365.5C 1917,1365.17 1786.67,1365.5 1656.5,1366.5C 1655.71,1366.22 1655.04,1365.72 1654.5,1365C 1785.5,1364.5 1916.5,1364.33 2047.5,1364.5 Z"/></g>
<g><path style="opacity:1" fill="#00247d" d="M -0.5,1365.5 C 130.001,1365.17 260.334,1365.5 390.5,1366.5C 260.5,1497.17 130.167,1627.5 -0.5,1757.5C -0.5,1626.83 -0.5,1496.17 -0.5,1365.5 Z"/></g>
<g><path style="opacity:1" fill="#df6272" d="M 680.5,1366.5 C 680.56,1365.96 680.893,1365.62 681.5,1365.5C 682.832,1430 682.832,1494.33 681.5,1558.5C 681.832,1494.33 681.499,1430.33 680.5,1366.5 Z"/></g>
<g><path style="opacity:1" fill="#cf142b" d="M 1366.5,1366.5 C 1430.33,1365.5 1494.33,1365.17 1558.5,1365.5C 1721.5,1528.17 1884.5,1690.83 2047.5,1853.5C 2047.5,1918.17 2047.5,1982.83 2047.5,2047.5C 2047.17,2047.5 2046.83,2047.5 2046.5,2047.5C 2046.63,2046.76 2046.46,2046.09 2046,2045.5C 1819.66,1818.99 1593.16,1592.66 1366.5,1366.5 Z"/></g>
<g><path style="opacity:1" fill="#00247d" d="M 2047.5,1365.5 C 2047.5,1496.17 2047.5,1626.83 2047.5,1757.5C 1916.83,1627.5 1786.5,1497.17 1656.5,1366.5C 1786.67,1365.5 1917,1365.17 2047.5,1365.5 Z"/></g>
<g><path style="opacity:1" fill="#cf162b" d="M 680.5,1366.5 C 681.499,1430.33 681.832,1494.33 681.5,1558.5C 518.833,1721.5 356.167,1884.5 193.5,2047.5C 128.833,2047.5 64.1667,2047.5 -0.5,2047.5C -0.5,2047.17 -0.5,2046.83 -0.5,2046.5C 226.5,1819.83 453.5,1593.17 680.5,1366.5 Z"/></g>
<g><path style="opacity:1" fill="#556da8" d="M 682.5,2047.5 C 682.167,2047.5 681.833,2047.5 681.5,2047.5C 681.833,1917 681.5,1786.67 680.5,1656.5C 680.783,1655.71 681.283,1655.04 682,1654.5C 682.5,1785.5 682.667,1916.5 682.5,2047.5 Z"/></g>
<g><path style="opacity:1" fill="#556ca7" d="M 1366.5,1656.5 C 1365.5,1786.67 1365.17,1917 1365.5,2047.5C 1365.17,2047.5 1364.83,2047.5 1364.5,2047.5C 1364.33,1916.5 1364.5,1785.5 1365,1654.5C 1365.72,1655.04 1366.22,1655.71 1366.5,1656.5 Z"/></g>
<g><path style="opacity:1" fill="#00247d" d="M 680.5,1656.5 C 681.5,1786.67 681.833,1917 681.5,2047.5C 550.833,2047.5 420.167,2047.5 289.5,2047.5C 419.5,1916.83 549.833,1786.5 680.5,1656.5 Z"/></g>
<g><path style="opacity:1" fill="#00247d" d="M 1366.5,1656.5 C 1497.17,1786.5 1627.5,1916.83 1757.5,2047.5C 1626.83,2047.5 1496.17,2047.5 1365.5,2047.5C 1365.17,1917 1365.5,1786.67 1366.5,1656.5 Z"/></g>
</svg>
