<?xml version="1.0" standalone="no"?>
<!DOCTYPE svg PUBLIC "-//W3C//DTD SVG 20010904//EN"
 "http://www.w3.org/TR/2001/REC-SVG-20010904/DTD/svg10.dtd">
<svg version="1.0" xmlns="http://www.w3.org/2000/svg"
 width="400.000000pt" height="267.000000pt" viewBox="0 0 400.000000 267.000000"
 preserveAspectRatio="xMidYMid meet">

<g transform="translate(0.000000,267.000000) scale(0.100000,-0.100000)"
fill="#000000" stroke="none">
<path d="M1737 2663 c-4 -4 -7 -243 -7 -532 l1 -526 -866 -3 -865 -2 0 -265 0
-265 865 -2 866 -3 2 -530 2 -530 265 0 265 0 2 530 2 530 866 3 865 2 0 265
0 265 -865 2 -866 3 -2 530 -2 530 -261 3 c-143 1 -263 -1 -267 -5z"/>
<path d="M774 2377 c3 -13 9 -57 12 -97 l7 -73 -64 7 c-35 4 -77 9 -94 12
l-30 5 0 -89 0 -88 45 7 c25 4 67 10 94 12 l49 5 -7 -79 c-3 -43 -9 -85 -12
-94 -5 -13 7 -15 83 -15 l90 0 -8 48 c-13 76 -11 142 4 137 6 -2 48 -6 92 -10
l80 -6 0 86 0 86 -30 -5 c-16 -3 -59 -8 -94 -12 l-64 -7 7 81 c3 45 9 88 12
97 5 13 -7 15 -86 15 -92 0 -92 0 -86 -23z"/>
<path d="M3054 2385 c3 -9 9 -52 12 -97 l7 -81 -64 7 c-35 4 -77 9 -94 12
l-30 5 0 -86 0 -86 80 6 c44 4 86 8 93 10 14 5 16 -61 3 -137 l-8 -48 90 0
c76 0 88 2 83 15 -3 9 -9 51 -12 94 l-7 79 49 -5 c27 -2 69 -8 94 -12 l45 -7
0 88 0 89 -30 -5 c-16 -3 -59 -8 -94 -12 l-64 -7 7 73 c3 40 9 84 12 97 6 23
6 23 -86 23 -79 0 -91 -2 -86 -15z"/>
<path d="M774 765 c3 -9 8 -51 12 -93 l7 -78 -84 8 c-46 4 -89 10 -94 12 -6 2
-10 -30 -10 -86 l0 -89 30 5 c17 3 59 8 94 12 l64 7 -7 -73 c-3 -40 -9 -84
-12 -97 -6 -23 -6 -23 86 -23 79 0 91 2 86 15 -3 9 -9 52 -12 97 l-7 81 64 -7
c35 -4 78 -9 94 -12 l30 -5 0 86 0 86 -80 -6 c-44 -4 -86 -8 -92 -10 -15 -5
-17 61 -4 138 l8 47 -90 0 c-76 0 -88 -2 -83 -15z"/>
<path d="M3061 733 c13 -77 11 -143 -3 -138 -7 2 -49 6 -93 10 l-80 6 0 -86 0
-86 30 5 c17 3 59 8 94 12 l64 7 -7 -81 c-3 -45 -9 -88 -12 -97 -5 -13 7 -15
86 -15 92 0 92 0 86 23 -3 13 -9 57 -12 97 l-7 73 64 -7 c35 -4 78 -9 94 -12
l30 -5 0 89 c0 56 -4 88 -10 86 -5 -2 -48 -8 -94 -12 l-84 -8 7 78 c4 42 9 84
12 93 5 13 -7 15 -83 15 l-90 0 8 -47z"/>
</g>
</svg>
