<?xml version="1.0" standalone="no"?>
<!DOCTYPE svg PUBLIC "-//W3C//DTD SVG 20010904//EN"
 "http://www.w3.org/TR/2001/REC-SVG-20010904/DTD/svg10.dtd">
<svg version="1.0" xmlns="http://www.w3.org/2000/svg"
 width="115.000000pt" height="40.000000pt" viewBox="0 0 115.000000 40.000000"
 preserveAspectRatio="xMidYMid meet">

<g transform="translate(0.000000,40.000000) scale(0.100000,-0.100000)"
fill="#000000" stroke="none">
<path d="M60 373 c-47 -18 -50 -29 -50 -179 0 -142 0 -143 26 -163 26 -21 36
-21 534 -21 498 0 508 0 534 21 26 20 26 21 26 163 0 133 -2 144 -21 162 -20
18 -45 19 -528 21 -278 1 -513 -1 -521 -4z m166 -119 c46 -25 84 -50 84 -54 0
-5 -10 -16 -22 -24 -21 -15 -24 -14 -42 4 -20 20 -20 20 -73 -32 l-53 -52 0
102 c0 67 4 102 11 102 6 0 49 -21 95 -46z m225 -4 c5 0 9 -4 9 -9 0 -6 -16
-7 -35 -4 -27 4 -36 2 -41 -11 -11 -29 12 -66 41 -66 26 0 34 15 13 23 -7 3
-3 6 8 6 12 1 27 8 34 16 21 25 54 15 58 -17 4 -35 -30 -48 -59 -22 -17 16
-19 16 -19 1 0 -13 -9 -17 -35 -17 -63 0 -82 67 -27 99 9 6 23 8 30 6 8 -3 18
-5 23 -5z m263 -40 c-2 -71 -14 -76 -14 -7 0 31 3 57 8 57 4 0 6 -23 6 -50z
m206 5 c0 -34 1 -35 22 -24 22 12 22 12 3 20 -17 6 -16 8 8 8 24 1 27 -2 27
-32 0 -33 -1 -34 -40 -33 l-40 1 0 47 c0 27 5 48 10 48 6 0 10 -16 10 -35z
m-303 -11 c8 -22 -10 -49 -32 -49 -22 0 -40 27 -32 49 8 21 56 21 64 0z m63
-10 c-7 -19 -7 -31 1 -40 14 -18 -5 -44 -32 -44 -27 0 -33 19 -13 41 10 11 12
19 6 19 -13 0 -16 32 -5 43 3 4 17 7 29 7 21 0 23 -3 14 -26z m98 14 c-2 -6
-10 -14 -18 -16 -7 -3 -10 0 -6 7 4 6 2 11 -3 11 -17 0 -13 -31 7 -47 16 -13
16 -14 -2 -11 -28 4 -43 33 -27 52 16 19 55 22 49 4z m107 -23 c0 -23 -5 -31
-22 -33 -12 -2 -24 -11 -26 -20 -3 -9 -5 7 -6 36 -1 52 -1 53 27 50 23 -3 27
-8 27 -33z m125 7 c0 -13 5 -12 20 8 l20 25 -17 -49 c-10 -27 -25 -52 -33 -54
-12 -4 -13 -3 -2 10 9 11 10 23 2 42 -13 34 -13 49 0 41 6 -3 10 -14 10 -23z"/>
<path d="M492 188 c2 -12 10 -23 18 -23 22 0 19 39 -3 43 -15 3 -18 -1 -15
-20z"/>
<path d="M940 170 c0 -5 4 -10 9 -10 6 0 13 5 16 10 3 6 -1 10 -9 10 -9 0 -16
-4 -16 -10z"/>
<path d="M567 204 c-8 -9 11 -44 23 -44 6 0 10 11 10 25 0 23 -18 34 -33 19z"/>
<path d="M642 199 c2 -7 10 -15 17 -17 8 -3 12 1 9 9 -2 7 -10 15 -17 17 -8 3
-12 -1 -9 -9z"/>
<path d="M635 140 c-8 -12 20 -24 35 -15 6 3 8 11 5 16 -8 12 -32 12 -40 -1z"/>
<path d="M843 194 c-8 -21 13 -42 28 -27 13 13 5 43 -11 43 -6 0 -13 -7 -17
-16z"/>
</g>
</svg>
