<svg width="114" height="39" viewBox="0 0 114 39" fill="none" xmlns="http://www.w3.org/2000/svg">
<g clip-path="url(#clip0_156_1549)">
<path d="M7.72774 1.17944H106.271C110.273 1.1796 113.499 4.35201 113.499 8.24194V30.9275C113.499 34.8174 110.273 37.9898 106.271 37.99H7.72774C3.72517 37.9898 0.499222 34.8174 0.499222 30.9275V8.24194C0.499222 4.35201 3.72517 1.1796 7.72774 1.17944Z" fill="black" stroke="#B2B4B6"/>
<path d="M86.0351 23.981C85.5966 23.981 85.1965 23.902 84.8337 23.7436C84.4694 23.5833 84.1545 23.3311 83.9217 23.013H83.8476C83.897 23.3977 83.9217 23.7631 83.9217 24.1073V26.8175H82.9021V17.2735H83.7312L83.8723 18.1752H83.9217C84.184 17.8147 84.4893 17.5542 84.8377 17.3938C85.1853 17.2337 85.5847 17.1535 86.0351 17.1535C86.928 17.1535 87.6168 17.4521 88.1023 18.049C88.587 18.6462 88.8309 19.4836 88.8309 20.5613C88.8309 21.6438 88.5838 22.4837 88.0903 23.0832C87.596 23.6817 86.9112 23.981 86.0351 23.981ZM85.8876 18.0009C85.1996 18.0009 84.7022 18.1872 84.3953 18.56C84.0875 18.9329 83.9297 19.5257 83.9217 20.3394V20.5617C83.9217 21.4874 84.0796 22.1497 84.3953 22.5484C84.7102 22.9474 85.2156 23.1468 85.9123 23.1468C86.4943 23.1468 86.9495 22.9165 87.2795 22.4558C87.6088 21.9952 87.7738 21.3599 87.7738 20.5502C87.7738 19.729 87.6096 19.0985 87.2795 18.6597C86.9495 18.2201 86.4855 18.0009 85.8876 18.0009ZM91.1914 23.8607H90.171V14.5085H91.1914V23.8607ZM97.054 23.8607L96.8508 22.9232H96.8013C96.4657 23.3362 96.1309 23.6157 95.7969 23.7615C95.4636 23.908 95.0459 23.981 94.5468 23.981C93.8788 23.981 93.3558 23.8127 92.9779 23.4764C92.5985 23.14 92.4095 22.6611 92.4095 22.0401C92.4095 20.7099 93.4969 20.0134 95.6717 19.9483L96.8141 19.9121V19.5035C96.8141 18.9865 96.7009 18.6049 96.4729 18.3587C96.2449 18.1121 95.8822 17.989 95.3823 17.989C94.8203 17.989 94.1865 18.1574 93.4778 18.4937L93.1645 17.7305C93.4969 17.5542 93.8605 17.416 94.2559 17.3159C94.6513 17.2158 95.0467 17.1658 95.4453 17.1658C96.2473 17.1658 96.842 17.3402 97.2286 17.6888C97.6161 18.0374 97.809 18.5965 97.809 19.3657V23.8615H97.054V23.8607ZM94.7501 23.1579C95.3839 23.1579 95.883 22.9875 96.2457 22.6472C96.6084 22.3069 96.7902 21.8296 96.7902 21.2162V20.6213L95.7698 20.6626C94.959 20.6908 94.3746 20.8143 94.0159 21.0331C93.6572 21.2515 93.4786 21.5906 93.4786 22.0512C93.4786 22.4117 93.5894 22.6865 93.8134 22.8744C94.0366 23.0638 94.3483 23.1579 94.7501 23.1579ZM98.4013 17.2735H99.4943L100.969 21.0299C101.292 21.8872 101.494 22.5067 101.571 22.8875H101.62C101.673 22.6826 101.785 22.3331 101.954 21.8376C102.124 21.3432 102.681 19.8216 103.622 17.2726H104.716L101.822 24.7737C101.535 25.5146 101.2 26.0404 100.817 26.3521C100.434 26.6622 99.9638 26.8175 99.4074 26.8175C99.0957 26.8175 98.7888 26.7833 98.4858 26.7154V25.9168C98.7346 25.9673 98.9873 25.9915 99.2416 25.9891C99.9415 25.9891 100.441 25.6044 100.74 24.8352L101.114 23.898L98.4013 17.2735Z" fill="white"/>
<path d="M67.145 17.8868C67.4693 18.1488 68.1446 18.6996 68.1446 19.7471C68.1446 20.7657 67.5532 21.2489 66.9619 21.7032C66.7789 21.8818 66.5671 22.0757 66.5671 22.379C66.5671 22.6816 66.7785 22.8472 66.9332 22.9711L67.4404 23.3563C68.0602 23.8661 68.6231 24.3351 68.6231 25.2857C68.6231 26.581 67.3414 27.8898 64.9197 27.8898C62.8771 27.8898 61.8917 26.9392 61.8917 25.919C61.8917 25.4231 62.1445 24.7203 62.9762 24.2382C63.8487 23.7152 65.0321 23.6465 65.6657 23.604C65.4685 23.3563 65.2432 23.0946 65.2432 22.6685C65.2432 22.4342 65.3142 22.296 65.3844 22.1308C65.229 22.1448 65.0743 22.1583 64.9335 22.1583C63.4412 22.1583 62.5963 21.0699 62.5963 19.9957C62.5963 19.3616 62.8921 18.6587 63.4972 18.1492C64.3004 17.5016 65.2578 17.3912 66.0188 17.3912H68.9189L68.0175 17.8871L67.145 17.8868ZM66.145 24.0047C66.0329 23.9908 65.9615 23.9908 65.8215 23.9908C65.6949 23.9908 64.9335 24.0182 64.3418 24.2124C64.0321 24.3212 63.1307 24.6523 63.1307 25.6311C63.1307 26.6084 64.1032 27.312 65.61 27.312C66.9607 27.312 67.6799 26.6767 67.6799 25.8233C67.6799 25.1189 67.2156 24.7488 66.145 24.0047ZM66.5537 21.3863C66.8771 21.069 66.9047 20.6287 66.9047 20.3805C66.9047 19.3886 66.2996 17.8455 65.1312 17.8455C64.7647 17.8455 64.3706 18.0246 64.1445 18.3005C63.9059 18.59 63.8345 18.9617 63.8345 19.3202C63.8345 20.2431 64.384 21.7726 65.5958 21.7726C65.9481 21.7722 66.3268 21.6071 66.5537 21.3863ZM58.2797 23.7839C56.0447 23.7839 54.8495 22.078 54.8495 20.537C54.8495 18.7341 56.3536 17.1947 58.4916 17.1947C60.5569 17.1947 61.8511 18.7763 61.8511 20.4413C61.8507 22.0637 60.5723 23.7839 58.2797 23.7839ZM60.0362 22.6697C60.3746 22.2293 60.4587 21.6793 60.4587 21.1417C60.4587 19.931 59.8686 17.6203 58.1251 17.6203C57.6599 17.6244 57.2114 17.7906 56.86 18.0889C56.3118 18.5697 56.2127 19.1753 56.2127 19.7674C56.2127 21.1286 56.9019 23.3702 58.6036 23.3702C59.1514 23.3705 59.7135 23.1096 60.0362 22.6697ZM50.6591 23.7839C48.4238 23.7839 47.2285 22.078 47.2285 20.537C47.2285 18.7341 48.7334 17.1947 50.8706 17.1947C52.9371 17.1947 54.2306 18.7763 54.2306 20.4413C54.2302 22.0637 52.9509 23.7839 50.6591 23.7839ZM52.4164 22.6697C52.7541 22.2293 52.8385 21.6793 52.8385 21.1417C52.8385 19.931 52.2476 17.6203 50.5041 17.6203C50.0389 17.6245 49.5905 17.7906 49.2391 18.0889C48.6908 18.5697 48.5925 19.1753 48.5925 19.7674C48.5925 21.1286 49.2809 23.3702 50.983 23.3702C51.5313 23.3705 52.0934 23.1096 52.4164 22.6697ZM46.1542 23.5683L44.1328 24.0246C43.3125 24.1488 42.5776 24.2588 41.8008 24.2588C37.8989 24.2588 36.4152 21.4518 36.4152 19.2528C36.4152 16.57 38.5207 14.0811 42.1258 14.0811C42.8892 14.0811 43.6238 14.1915 44.2882 14.3714C45.3482 14.6616 45.843 15.021 46.1542 15.2287L44.9806 16.3214L44.4862 16.4314L44.8397 15.8779C44.3592 15.422 43.4822 14.5786 41.815 14.5786C39.5816 14.5786 37.8993 16.2388 37.8993 18.6587C37.8993 21.2581 39.8219 23.7061 42.903 23.7061C43.8085 23.7061 44.2739 23.5266 44.6984 23.3602V21.1345L42.5646 21.2446L43.6948 20.6497H46.6916L46.3243 20.9947C46.2245 21.0786 46.2111 21.106 46.1827 21.2159C46.168 21.3407 46.1546 21.7425 46.1546 21.8807L46.1542 23.5683Z" fill="white"/>
<path d="M71.614 23.1699C71.1473 23.1286 71.0491 23.046 71.0491 22.5052V14.6774L71.0569 14.588C71.114 14.1044 71.2549 14.0214 71.6936 13.772H69.6721L68.6116 14.2699H69.692V14.2763L69.6912 14.2712V22.8093C69.6912 23.0849 69.6355 23.1274 69.3105 23.5419H71.8125L72.3357 23.2382C72.0942 23.2111 71.8539 23.198 71.614 23.1699ZM77.3657 23.2973C77.2119 23.3803 77.0573 23.4764 76.903 23.5447C76.4388 23.7512 75.9619 23.8056 75.5402 23.8056C75.0921 23.8056 74.39 23.7774 73.6729 23.2696C72.6769 22.5826 72.2419 21.4012 72.2419 20.3708C72.2419 18.2429 74.0106 17.1989 75.457 17.1989C75.9619 17.1989 76.4818 17.3224 76.903 17.5837C77.6043 18.0359 77.7873 18.6264 77.8843 18.9425L74.5865 20.2477L73.5053 20.3303C73.8555 22.0751 75.0629 23.0901 76.3969 23.0901C77.1128 23.0901 77.6328 22.8431 78.11 22.61L77.3657 23.2973ZM76.0467 19.2037C76.3129 19.1076 76.4534 19.0255 76.4534 18.8333C76.4534 18.2841 75.8214 17.6519 75.0629 17.6519C74.5009 17.6519 73.4485 18.078 73.4485 19.5611C73.4485 19.7947 73.4765 20.0416 73.4906 20.2894L76.0467 19.2037ZM78.72 17.293V18.1992H78.6076V17.293H78.3007V17.1993H79.026V17.293H78.72ZM79.9826 18.1992V17.2842H79.9778L79.6924 18.1992H79.6043L79.3166 17.2842H79.3129V18.1992H79.2107V17.1989H79.386L79.647 18.0074H79.6502L79.9069 17.1989H80.0846V18.1992H79.9826Z" fill="white"/>
<path d="M12.4632 29.2863L22.5539 19.3579L12.6295 9.59302C12.2335 9.84137 11.9573 10.2701 11.9573 10.7904V28.2097C11.9573 28.6536 12.1583 29.0308 12.4632 29.2863Z" fill="url(#paint0_linear_156_1549)"/>
<path d="M30.332 18.2522C31.3435 18.7968 31.3435 20.2029 30.332 20.7475L26.2508 22.9448L22.5545 19.3576L26.0624 15.9534L30.332 18.2522Z" fill="url(#paint1_linear_156_1549)"/>
<path d="M26.2489 22.9448L22.5524 19.3577L12.4617 29.2861C12.9055 29.6579 13.5691 29.7716 14.1531 29.4573L26.2489 22.9448Z" fill="url(#paint2_linear_156_1549)"/>
<path d="M12.6299 9.59301L22.5543 19.3579L26.0623 15.9537L14.1549 9.54278C13.6401 9.26557 13.0633 9.32118 12.6299 9.59301Z" fill="url(#paint3_linear_156_1549)"/>
</g>
<defs>
<linearGradient id="paint0_linear_156_1549" x1="18.8745" y1="15.5017" x2="12.1648" y2="22.4158" gradientUnits="userSpaceOnUse">
<stop stop-color="#00C3FF"/>
<stop offset="1" stop-color="#1BE2FA"/>
</linearGradient>
<linearGradient id="paint1_linear_156_1549" x1="22.5545" y1="19.3577" x2="31.6793" y2="19.3577" gradientUnits="userSpaceOnUse">
<stop stop-color="#FFCE00"/>
<stop offset="1" stop-color="#FFEA00"/>
</linearGradient>
<linearGradient id="paint2_linear_156_1549" x1="12.2502" y1="30.498" x2="24.18" y2="20.7227" gradientUnits="userSpaceOnUse">
<stop stop-color="#DE2453"/>
<stop offset="1" stop-color="#FE3944"/>
</linearGradient>
<linearGradient id="paint3_linear_156_1549" x1="12.8407" y1="8.5032" x2="24.1895" y2="17.9772" gradientUnits="userSpaceOnUse">
<stop stop-color="#11D574"/>
<stop offset="1" stop-color="#01F176"/>
</linearGradient>
<clipPath id="clip0_156_1549">
<rect width="114" height="39" fill="white"/>
</clipPath>
</defs>
</svg>
