<?xml version="1.0" encoding="UTF-8"?>
<!DOCTYPE svg PUBLIC "-//W3C//DTD SVG 1.1//EN" "http://www.w3.org/Graphics/SVG/1.1/DTD/svg11.dtd">
<svg xmlns="http://www.w3.org/2000/svg" version="1.1" width="500px" height="500px" style="shape-rendering:geometricPrecision; text-rendering:geometricPrecision; image-rendering:optimizeQuality; fill-rule:evenodd; clip-rule:evenodd" xmlns:xlink="http://www.w3.org/1999/xlink">
<g><path style="opacity:1" fill="#0d5daf" d="M -0.5,-0.5 C 37.1667,-0.5 74.8333,-0.5 112.5,-0.5C 112.5,37.1667 112.5,74.8333 112.5,112.5C 74.8333,112.5 37.1667,112.5 -0.5,112.5C -0.5,74.8333 -0.5,37.1667 -0.5,-0.5 Z"/></g>
<g><path style="opacity:1" fill="#fdfefe" d="M 113.5,-0.5 C 130.167,-0.5 146.833,-0.5 163.5,-0.5C 163.5,37.5 163.5,75.5 163.5,113.5C 201.5,113.5 239.5,113.5 277.5,113.5C 277.5,130.167 277.5,146.833 277.5,163.5C 239.5,163.5 201.5,163.5 163.5,163.5C 163.5,202.167 163.5,240.833 163.5,279.5C 275.5,279.5 387.5,279.5 499.5,279.5C 499.5,296.5 499.5,313.5 499.5,330.5C 332.833,330.5 166.167,330.5 -0.5,330.5C -0.5,313.833 -0.5,297.167 -0.5,280.5C 37.5,280.5 75.5,280.5 113.5,280.5C 113.832,241.33 113.499,202.33 112.5,163.5C 74.8333,163.5 37.1667,163.5 -0.5,163.5C -0.5,146.833 -0.5,130.167 -0.5,113.5C 37.5,113.5 75.5,113.5 113.5,113.5C 113.5,75.5 113.5,37.5 113.5,-0.5 Z"/></g>
<g><path style="opacity:1" fill="#0d5eaf" d="M 163.5,-0.5 C 275.5,-0.5 387.5,-0.5 499.5,-0.5C 499.5,18.8333 499.5,38.1667 499.5,57.5C 425.5,57.5 351.5,57.5 277.5,57.5C 276.503,74.3251 276.17,91.3251 276.5,108.5C 350.833,108.5 425.167,108.5 499.5,108.5C 499.5,128.5 499.5,148.5 499.5,168.5C 425.5,168.5 351.5,168.5 277.5,168.5C 276.503,185.325 276.17,202.325 276.5,219.5C 350.833,219.5 425.167,219.5 499.5,219.5C 499.5,239.5 499.5,259.5 499.5,279.5C 387.5,279.5 275.5,279.5 163.5,279.5C 163.5,240.833 163.5,202.167 163.5,163.5C 201.5,163.5 239.5,163.5 277.5,163.5C 277.5,146.833 277.5,130.167 277.5,113.5C 239.5,113.5 201.5,113.5 163.5,113.5C 163.5,75.5 163.5,37.5 163.5,-0.5 Z"/></g>
<g><path style="opacity:1" fill="#fdfefe" d="M 277.5,57.5 C 351.5,57.5 425.5,57.5 499.5,57.5C 499.5,74.1667 499.5,90.8333 499.5,107.5C 425.5,107.5 351.5,107.5 277.5,107.5C 277.5,90.8333 277.5,74.1667 277.5,57.5 Z"/></g>
<g><path style="opacity:1" fill="#7da8d3" d="M 277.5,57.5 C 277.5,74.1667 277.5,90.8333 277.5,107.5C 351.5,107.5 425.5,107.5 499.5,107.5C 499.5,107.833 499.5,108.167 499.5,108.5C 425.167,108.5 350.833,108.5 276.5,108.5C 276.17,91.3251 276.503,74.3251 277.5,57.5 Z"/></g>
<g><path style="opacity:1" fill="#4a86c3" d="M 112.5,-0.5 C 112.833,-0.5 113.167,-0.5 113.5,-0.5C 113.5,37.5 113.5,75.5 113.5,113.5C 75.5,113.5 37.5,113.5 -0.5,113.5C -0.5,113.167 -0.5,112.833 -0.5,112.5C 37.1667,112.5 74.8333,112.5 112.5,112.5C 112.5,74.8333 112.5,37.1667 112.5,-0.5 Z"/></g>
<g><path style="opacity:1" fill="#0d5daf" d="M -0.5,163.5 C 37.1667,163.5 74.8333,163.5 112.5,163.5C 112.5,202.167 112.5,240.833 112.5,279.5C 74.8333,279.5 37.1667,279.5 -0.5,279.5C -0.5,240.833 -0.5,202.167 -0.5,163.5 Z"/></g>
<g><path style="opacity:1" fill="#fdfefe" d="M 277.5,168.5 C 351.5,168.5 425.5,168.5 499.5,168.5C 499.5,185.167 499.5,201.833 499.5,218.5C 425.5,218.5 351.5,218.5 277.5,218.5C 277.5,201.833 277.5,185.167 277.5,168.5 Z"/></g>
<g><path style="opacity:1" fill="#7da8d3" d="M 277.5,168.5 C 277.5,185.167 277.5,201.833 277.5,218.5C 351.5,218.5 425.5,218.5 499.5,218.5C 499.5,218.833 499.5,219.167 499.5,219.5C 425.167,219.5 350.833,219.5 276.5,219.5C 276.17,202.325 276.503,185.325 277.5,168.5 Z"/></g>
<g><path style="opacity:1" fill="#73a1d0" d="M 112.5,163.5 C 113.499,202.33 113.832,241.33 113.5,280.5C 75.5,280.5 37.5,280.5 -0.5,280.5C -0.5,280.167 -0.5,279.833 -0.5,279.5C 37.1667,279.5 74.8333,279.5 112.5,279.5C 112.5,240.833 112.5,202.167 112.5,163.5 Z"/></g>
<g><path style="opacity:1" fill="#0d5daf" d="M -0.5,330.5 C 166.167,330.5 332.833,330.5 499.5,330.5C 499.5,350.5 499.5,370.5 499.5,390.5C 332.833,390.5 166.167,390.5 -0.5,390.5C -0.5,370.5 -0.5,350.5 -0.5,330.5 Z"/></g>
<g><path style="opacity:1" fill="#fbfcfd" d="M -0.5,390.5 C 166.167,390.5 332.833,390.5 499.5,390.5C 499.5,407.5 499.5,424.5 499.5,441.5C 332.833,441.5 166.167,441.5 -0.5,441.5C -0.5,424.5 -0.5,407.5 -0.5,390.5 Z"/></g>
<g><path style="opacity:1" fill="#0d5daf" d="M -0.5,441.5 C 166.167,441.5 332.833,441.5 499.5,441.5C 499.5,460.833 499.5,480.167 499.5,499.5C 332.833,499.5 166.167,499.5 -0.5,499.5C -0.5,480.167 -0.5,460.833 -0.5,441.5 Z"/></g>
</svg>
