<?xml version="1.0" encoding="UTF-8"?>
<!DOCTYPE svg PUBLIC "-//W3C//DTD SVG 1.1//EN" "http://www.w3.org/Graphics/SVG/1.1/DTD/svg11.dtd">
<svg xmlns="http://www.w3.org/2000/svg" version="1.1" width="500px" height="500px" style="shape-rendering:geometricPrecision; text-rendering:geometricPrecision; image-rendering:optimizeQuality; fill-rule:evenodd; clip-rule:evenodd" xmlns:xlink="http://www.w3.org/1999/xlink">
<g><path style="opacity:1" fill="#de2910" d="M -0.5,-0.5 C 166.167,-0.5 332.833,-0.5 499.5,-0.5C 499.5,166.167 499.5,332.833 499.5,499.5C 332.833,499.5 166.167,499.5 -0.5,499.5C -0.5,332.833 -0.5,166.167 -0.5,-0.5 Z"/></g>
<g><path style="opacity:1" fill="#fefcfc" d="M 270.5,103.5 C 275.179,103.334 279.845,103.501 284.5,104C 272.627,109.912 267.794,119.412 270,132.5C 273,139.5 276,146.5 279,153.5C 280.414,175.187 271.248,190.353 251.5,199C 236.892,211.126 233.725,225.626 242,242.5C 225.275,224.95 220.942,204.617 229,181.5C 230.5,178.5 232,175.5 233.5,172.5C 232.726,171.289 231.893,171.289 231,172.5C 217.361,198.349 220.194,222.182 239.5,244C 208.512,227.187 195.679,201.02 201,165.5C 211.009,129.936 234.175,109.269 270.5,103.5 Z"/></g>
<g><path style="opacity:1" fill="#df351c" d="M 236.5,149.5 C 238.848,151.68 241.348,153.68 244,155.5C 246.35,154.496 248.684,153.496 251,152.5C 250.599,155.157 249.766,157.824 248.5,160.5C 249.803,162.937 251.47,165.104 253.5,167C 250.5,167.333 247.5,167.667 244.5,168C 242.877,170.08 241.377,172.246 240,174.5C 239.047,171.568 238.547,168.568 238.5,165.5C 235.247,165.438 232.247,164.604 229.5,163C 235.636,160.687 237.969,156.187 236.5,149.5 Z"/></g>
<g><path style="opacity:1" fill="#fefbfb" d="M 121.5,171.5 C 124.361,185.694 133.028,193.028 147.5,193.5C 172.434,188.382 189.934,197.382 200,220.5C 203.549,246.417 218.049,257.251 243.5,253C 216.295,266.779 192.129,262.612 171,240.5C 170.5,241 170,241.5 169.5,242C 189.848,263.754 213.848,269.087 241.5,258C 211.91,283.878 180.577,286.211 147.5,265C 117.567,239.772 108.901,208.605 121.5,171.5 Z"/></g>
<g><path style="opacity:1" fill="#fefcfb" d="M 309.5,177.5 C 350.077,174.196 378.911,190.863 396,227.5C 397.525,230.72 398.192,234.053 398,237.5C 387.134,227.895 375.634,227.062 363.5,235C 351.001,250.98 335.001,255.647 315.5,249C 308.695,246.2 303.029,241.867 298.5,236C 281.958,225.774 267.125,227.608 254,241.5C 258.958,228.87 267.791,219.703 280.5,214C 284.683,212.204 289.016,210.871 293.5,210C 301.91,209.676 310.244,209.509 318.5,209.5C 297.996,203.708 279.662,207.874 263.5,222C 258.896,226.603 255.062,231.77 252,237.5C 255.607,214.142 267.773,196.642 288.5,185C 295.431,181.97 302.431,179.47 309.5,177.5 Z"/></g>
<g><path style="opacity:1" fill="#df331a" d="M 325.5,204.5 C 328.093,205.754 330.427,207.42 332.5,209.5C 335.037,207.93 337.704,207.097 340.5,207C 339.039,209.421 337.706,211.921 336.5,214.5C 338.167,216.5 339.833,218.5 341.5,220.5C 338.553,221.321 335.553,221.821 332.5,222C 329.263,229.327 327.263,228.827 326.5,220.5C 323.568,219.183 320.568,218.016 317.5,217C 319.917,215.374 322.417,213.874 325,212.5C 325.497,209.854 325.664,207.187 325.5,204.5 Z"/></g>
<g><path style="opacity:1" fill="#df351c" d="M 158.5,218.5 C 161.056,219.543 163.223,221.21 165,223.5C 167.791,222.438 170.457,221.105 173,219.5C 173.167,219.833 173.333,220.167 173.5,220.5C 169.191,225.609 169.524,230.276 174.5,234.5C 171.901,235.031 169.235,235.198 166.5,235C 164.954,237.257 163.288,239.424 161.5,241.5C 160.42,238.674 159.42,235.841 158.5,233C 155.768,232.587 153.101,231.92 150.5,231C 152.917,229.374 155.417,227.874 158,226.5C 158.497,223.854 158.664,221.187 158.5,218.5 Z"/></g>
<g><path style="opacity:1" fill="#fefcfb" d="M 263.5,246.5 C 307.343,245.184 334.176,265.851 344,308.5C 347.572,342.183 335.572,368.516 308,387.5C 313.583,373.248 310.083,361.748 297.5,353C 282.984,347.814 274.15,337.648 271,322.5C 270.333,317.167 270.333,311.833 271,306.5C 273.894,300.713 276.227,294.713 278,288.5C 281.457,270.24 274.624,257.74 257.5,251C 276.966,252.78 291.466,262.28 301,279.5C 304.401,286.871 306.901,294.538 308.5,302.5C 308.419,286.494 302.419,272.994 290.5,262C 281.56,254.366 271.227,249.699 259.5,248C 261.058,247.79 262.391,247.29 263.5,246.5 Z"/></g>
<g><path style="opacity:1" fill="#fefbfb" d="M 137.5,348.5 C 140.167,347.833 142.833,347.167 145.5,346.5C 156.408,344.093 163.241,337.426 166,326.5C 166.621,309.881 174.455,298.048 189.5,291C 192.5,290 195.5,289 198.5,288C 207.825,288.234 217.158,288.234 226.5,288C 241.731,283.092 249.897,272.592 251,256.5C 255.094,286.145 243.928,307.978 217.5,322C 217.667,322.5 217.833,323 218,323.5C 244.835,310.491 257.168,289.158 255,259.5C 270.332,294.856 263.499,325.022 234.5,350C 212.163,365.621 187.829,369.621 161.5,362C 152.695,358.768 144.695,354.268 137.5,348.5 Z"/></g>
<g><path style="opacity:1" fill="#df3219" d="M 301.5,304.5 C 303.814,306.477 306.147,308.477 308.5,310.5C 316.829,305.315 318.496,306.815 313.5,315C 314.67,317.668 316.337,320.002 318.5,322C 315.486,322.128 312.486,322.128 309.5,322C 308,324.167 306.5,326.333 305,328.5C 304.265,326.129 303.432,323.795 302.5,321.5C 299.997,320.036 297.33,318.869 294.5,318C 296.754,316.623 298.92,315.123 301,313.5C 301.498,310.518 301.665,307.518 301.5,304.5 Z"/></g>
<g><path style="opacity:1" fill="#e0351b" d="M 198.5,313.5 C 200.562,315.564 202.895,317.231 205.5,318.5C 207.944,317.778 210.278,316.778 212.5,315.5C 212.833,315.833 213.167,316.167 213.5,316.5C 212.167,318.833 210.833,321.167 209.5,323.5C 211.38,326.091 213.38,328.591 215.5,331C 212.135,330.605 208.802,330.772 205.5,331.5C 204.167,333.5 202.833,335.5 201.5,337.5C 200.322,334.609 199.655,331.609 199.5,328.5C 190.331,328.087 189.665,326.087 197.5,322.5C 198.484,319.572 198.817,316.572 198.5,313.5 Z"/></g>
<g><path style="opacity:1" fill="#f2a69b" d="M 145.5,346.5 C 142.833,347.167 140.167,347.833 137.5,348.5C 136.711,348.217 136.044,347.717 135.5,347C 138.817,346.502 142.15,346.335 145.5,346.5 Z"/></g>
</svg>
