<?xml version="1.0" standalone="no"?>
<!DOCTYPE svg PUBLIC "-//W3C//DTD SVG 20010904//EN"
 "http://www.w3.org/TR/2001/REC-SVG-20010904/DTD/svg10.dtd">
<svg version="1.0" xmlns="http://www.w3.org/2000/svg"
 width="20.000000pt" height="18.000000pt" viewBox="0 0 20.000000 18.000000"
 preserveAspectRatio="xMidYMid meet">

<g transform="translate(0.000000,18.000000) scale(0.100000,-0.100000)"
fill="#000000" stroke="none">
<path d="M14 169 c-10 -17 13 -36 27 -22 12 12 4 33 -11 33 -5 0 -12 -5 -16
-11z"/>
<path d="M126 121 c-3 -4 -17 -6 -31 -3 -25 4 -25 3 -25 -57 0 -54 2 -61 19
-61 16 0 20 8 23 43 2 34 7 42 23 42 16 0 21 -8 23 -42 3 -35 7 -43 23 -43 16
0 19 7 19 49 0 32 -6 55 -16 65 -17 17 -50 21 -58 7z"/>
<path d="M10 60 c0 -53 2 -60 20 -60 18 0 20 7 20 60 0 53 -2 60 -20 60 -18 0
-20 -7 -20 -60z"/>
</g>
</svg>
