<svg width="484" height="413" viewBox="0 0 484 413" fill="none" xmlns="http://www.w3.org/2000/svg">
<path d="M236.535 195.959V185.418L290.299 185.291L299.196 177.544L307.076 186.688L297.543 195.705L236.535 195.959Z" fill="white"/>
<path d="M12.3288 195.959L26.1828 181.227L91.3855 181.1L79.5651 165.733H26.6912L12.8372 151.382L93.0378 151.509L113.247 181.1L97.7405 195.959H12.3288Z" fill="white"/>
<path d="M336.563 139.953L341.266 132.968H388.547L399.605 119.76H333.894L319.531 139.953H336.563Z" fill="white"/>
<path d="M35.5882 139.572L41.6891 132.968H101.299L115.28 119.76H32.4107L14.2353 139.953L35.5882 139.572Z" fill="white"/>
<path d="M125.576 136.27V119.76H207.81L223.825 136.27H125.576Z" fill="white"/>
<path d="M125.576 195.959H143.878V165.098H196.625L223.825 136.27H204.124L188.618 151.637H125.576V195.959Z" fill="white"/>
<path d="M186.838 195.959H208.572L261.573 136.27H281.02L332.877 195.959H382.7L392.487 182.497H339.867L289.535 119.76H255.854L186.838 195.959Z" fill="white"/>
<path d="M398.334 196.34H464.681L472.053 182.751H408.121L398.334 196.34Z" fill="white"/>
<path d="M398.715 164.463H464.935L472.307 151.255H408.375L398.715 164.463Z" fill="white"/>
<path d="M399.605 132.968H465.825L473.196 119.76H409.265L399.605 132.968Z" fill="white"/>
<path d="M59.4832 274.825L75.4979 252.601H141.082L150.996 239.266L67.1093 239.393L44.6124 270.761L60.7542 273.047L59.4832 274.825Z" fill="white"/>
<path d="M51.0945 261.617L12.3288 315.338L99.647 315.465L108.036 302.257L39.2741 302.384L69.0157 261.617" fill="white"/>
<path d="M301.356 260.982V252.854L361.856 252.981L371.516 239.646H287.248V260.982" fill="white"/>
<path d="M298.814 260.601H287.248L287.883 315.211L371.516 315.338L362.746 303.019L301.356 302.892V260.601" fill="white"/>
<path d="M397.698 264.538V252.473H472.052V239.266H381.683V264.538H397.698Z" fill="white"/>
<path d="M381.684 261.49V315.211H468.112L462.266 303.019L397.699 302.892V260.855" fill="white"/>
<path d="M233.357 301.876L191.414 239.266H158.114L109.307 315.465H128.118L165.485 255.775H182.771L220.774 315.465H242.127L233.357 301.876Z" fill="white"/>
<path d="M223.189 239.266H201.201L212.767 256.791H235.136L223.189 239.266Z" fill="white"/>
<path d="M274.029 315.211L245.432 272.793H222.681L250.262 315.211H274.029Z" fill="white"/>
<path d="M371.515 315.592V272.158L338.723 272.412L328.809 285.62L359.822 285.366V303.273" fill="white"/>
<path d="M472.053 239.266V315.211H455.53V239.266" fill="white"/>
<path d="M256.998 239.266H215.309L226.875 256.537L227.002 256.791H255.091C256.744 256.791 258.523 257.172 260.048 257.807H260.176C267.929 261.363 265.387 272.539 256.744 272.666H234.374L239.966 285.874C239.966 285.874 293.984 293.875 278.224 251.965C275.046 243.965 266.022 239.266 256.998 239.266Z" fill="white"/>
</svg>
