<?xml version="1.0" standalone="no"?>
<!DOCTYPE svg PUBLIC "-//W3C//DTD SVG 20010904//EN"
 "http://www.w3.org/TR/2001/REC-SVG-20010904/DTD/svg10.dtd">
<svg version="1.0" xmlns="http://www.w3.org/2000/svg"
 width="484.000000pt" height="413.000000pt" viewBox="0 0 484.000000 413.000000"
 preserveAspectRatio="xMidYMid meet">

<g transform="translate(0.000000,413.000000) scale(0.100000,-0.100000)"
fill="#000000" stroke="none">
<path d="M235 2833 l-87 -98 98 -3 97 -3 37 36 36 35 300 0 300 0 64 65 64 65
-411 0 -411 0 -87 -97z"/>
<path d="M1260 2850 l0 -80 392 0 393 0 -80 -80 -80 -80 -312 0 -313 0 0 -220
0 -220 90 0 90 0 0 155 0 155 263 0 263 0 132 139 c73 77 132 143 132 148 0 5
-35 43 -78 86 l-77 77 -408 0 -407 0 0 -80z"/>
<path d="M2369 2722 c-103 -114 -257 -285 -343 -379 l-157 -173 108 0 108 0
265 300 265 300 97 0 97 0 261 -300 261 -300 248 0 247 0 47 65 47 65 -259 0
-260 0 -253 315 -252 315 -171 0 -170 -1 -186 -207z"/>
<path d="M3280 2849 c-30 -44 -61 -89 -69 -99 -13 -19 -11 -20 70 -20 l84 0
23 35 22 35 238 0 237 0 53 65 53 65 -328 0 -328 -1 -55 -80z"/>
<path d="M4068 2898 c-13 -18 -34 -48 -47 -66 l-23 -32 331 2 332 3 34 63 35
62 -319 0 -319 0 -24 -32z"/>
<path d="M140 2614 c0 -5 30 -40 68 -77 l68 -67 261 0 262 0 56 -72 56 -73
-327 -5 -326 -5 -66 -72 -65 -73 424 0 424 1 79 73 78 74 -98 145 -99 146
-150 1 c-82 0 -261 3 -397 7 -152 4 -248 3 -248 -3z"/>
<path d="M4043 2561 c-24 -32 -43 -62 -43 -65 0 -3 147 -5 327 -4 l327 3 33
59 c18 32 33 60 33 62 0 2 -143 4 -317 4 l-318 -1 -42 -58z"/>
<path d="M2948 2315 l-38 -35 -270 0 -270 0 0 -55 0 -55 302 0 302 0 47 46 48
47 -37 43 c-20 24 -39 44 -42 44 -3 0 -22 -16 -42 -35z"/>
<path d="M4058 2268 c-13 -18 -34 -48 -47 -66 l-23 -32 331 2 332 3 34 63 35
62 -319 0 -319 0 -24 -32z"/>
<path d="M450 1428 c-124 -171 -247 -342 -273 -380 l-48 -68 434 0 434 0 41
63 42 62 -341 5 -341 5 177 243 177 242 328 0 328 0 51 70 51 70 -418 0 -417
0 -225 -312z"/>
<path d="M1355 1383 c-126 -197 -235 -368 -243 -380 l-14 -23 93 0 94 0 184
296 184 295 90 -3 91 -3 185 -292 186 -293 103 0 c56 0 102 3 102 8 0 4 -112
174 -248 377 l-248 370 -165 3 -165 2 -229 -357z"/>
<path d="M2024 1725 c3 -8 28 -48 56 -89 l50 -75 241 -3 c239 -3 241 -3 260
-27 26 -31 24 -64 -5 -98 l-24 -28 -185 -5 -184 -5 135 -207 134 -208 114 0
c63 0 114 2 114 5 0 3 -40 66 -90 140 -49 74 -90 136 -90 138 0 3 21 7 48 11
69 9 145 48 178 92 26 34 29 45 29 113 0 134 -64 225 -177 251 -24 5 -171 10
-327 10 -247 0 -282 -2 -277 -15z"/>
<path d="M3820 1360 l0 -380 450 0 450 0 0 380 0 380 -450 0 -450 0 0 -380z
m738 -7 l2 -253 -290 0 -290 0 0 255 0 255 288 -2 287 -3 3 -252z"/>
<path d="M2873 1453 c4 -153 7 -322 7 -375 l0 -98 415 0 415 0 0 215 0 215
-159 0 -159 0 -41 -55 c-66 -87 -72 -83 99 -77 l150 5 0 -92 0 -91 -295 0
-295 0 0 250 0 250 306 2 305 3 45 63 45 62 -422 0 -422 0 6 -277z"/>
</g>
</svg>
