<svg width="60" height="60" viewBox="0 0 60 60" fill="none" xmlns="http://www.w3.org/2000/svg">
<path d="M44.5 46.25C43.5054 46.25 42.5516 45.8549 41.8484 45.1516C41.1451 44.4484 40.75 43.4946 40.75 42.5C40.75 41.5054 41.1451 40.5516 41.8484 39.8483C42.5516 39.1451 43.5054 38.75 44.5 38.75C45.4946 38.75 46.4484 39.1451 47.1516 39.8483C47.8549 40.5516 48.25 41.5054 48.25 42.5C48.25 43.4946 47.8549 44.4484 47.1516 45.1516C46.4484 45.8549 45.4946 46.25 44.5 46.25ZM48.25 23.75L53.15 30H42V23.75M14.5 46.25C13.5054 46.25 12.5516 45.8549 11.8483 45.1516C11.1451 44.4484 10.75 43.4946 10.75 42.5C10.75 41.5054 11.1451 40.5516 11.8483 39.8483C12.5516 39.1451 13.5054 38.75 14.5 38.75C15.4946 38.75 16.4484 39.1451 17.1517 39.8483C17.8549 40.5516 18.25 41.5054 18.25 42.5C18.25 43.4946 17.8549 44.4484 17.1517 45.1516C16.4484 45.8549 15.4946 46.25 14.5 46.25ZM50.1 20.8C49.7223 20.2964 49.1295 20 48.5 20H42V15C42 12.2386 39.7614 10 37 10H7C4.225 10 2 12.225 2 15V41.5C2 42.0523 2.44772 42.5 3 42.5H7C7 44.4891 7.79018 46.3968 9.1967 47.8033C10.6032 49.2098 12.5109 50 14.5 50C16.4891 50 18.3968 49.2098 19.8033 47.8033C21.2098 46.3968 22 44.4891 22 42.5H37C37 44.4891 37.7902 46.3968 39.1967 47.8033C40.6032 49.2098 42.5109 50 44.5 50C46.4891 50 48.3968 49.2098 49.8033 47.8033C51.2098 46.3968 52 44.4891 52 42.5H56C56.5523 42.5 57 42.0523 57 41.5V31.3333C57 30.4679 56.7193 29.6257 56.2 28.9333L50.1 20.8Z" fill="#2986FD"/>
<path d="M4 15C4 13.3431 5.34315 12 7 12H37C38.6569 12 40 13.3431 40 15V35H4V15Z" fill="#D1E0F5"/>
</svg>
