<svg width="150" height="151" viewBox="0 0 150 151" fill="none" xmlns="http://www.w3.org/2000/svg">
<path d="M121.875 150.5H28.125C12.5909 150.5 0 137.909 0 122.375V28.625C0 13.0909 12.5909 0.5 28.125 0.5H121.875C137.409 0.5 150 13.0909 150 28.625V122.375C150 137.909 137.409 150.5 121.875 150.5Z" fill="#F0F3FE"/>
<path d="M59.3766 84.875C59.3766 71.0894 70.594 59.8766 84.375 59.8766C90.2859 59.8766 95.7138 61.9479 99.9984 65.3937V46.5969C99.9984 41.8531 96.1453 38 91.4062 38H46.0922C41.3531 38 37.5 41.8531 37.5 46.5922V91.9062C37.5 96.6453 41.3531 100.498 46.0922 100.498H64.8891C61.4479 96.2138 59.3766 90.7859 59.3766 84.875Z" fill="#2986FD"/>
<path d="M111.586 107.666L99.6425 95.7216C101.826 92.6563 103.125 88.9209 103.125 84.875C103.125 74.5341 94.7159 66.125 84.375 66.125C74.0341 66.125 65.625 74.5341 65.625 84.875C65.625 95.2159 74.0341 103.625 84.375 103.625C88.4206 103.625 92.156 102.326 95.2216 100.142L107.166 112.086C107.775 112.696 108.577 113 109.373 113C110.17 113 110.972 112.695 111.581 112.086C112.804 110.862 112.804 108.885 111.586 107.666ZM91.4062 87.2188H77.3438C76.0506 87.2188 75 86.1682 75 84.875C75 83.5818 76.0506 82.5312 77.3438 82.5312H91.4062C92.6994 82.5312 93.75 83.5818 93.75 84.875C93.75 86.1682 92.6994 87.2188 91.4062 87.2188Z" fill="#C2D1FC"/>
</svg>
