<svg width="24" height="24" viewBox="0 0 24 24" fill="none" xmlns="http://www.w3.org/2000/svg">
<path d="M20.5 11.3V7.04001C20.5 3.01001 19.56 2 15.78 2H8.22C4.44 2 3.5 3.01001 3.5 7.04001V18.3C3.5 20.96 4.96001 21.59 6.73001 19.69L6.73999 19.68C7.55999 18.81 8.80999 18.88 9.51999 19.83L10.53 21.18" stroke="white" stroke-width="1.5" stroke-linecap="round" stroke-linejoin="round"/>
<path d="M8 7H16" stroke="white" stroke-width="1.5" stroke-linecap="round" stroke-linejoin="round"/>
<path d="M9 11H15" stroke="white" stroke-width="1.5" stroke-linecap="round" stroke-linejoin="round"/>
<path d="M18.211 14.7708L14.671 18.3108C14.531 18.4508 14.401 18.7108 14.371 18.9008L14.181 20.2508C14.111 20.7408 14.451 21.0808 14.941 21.0108L16.291 20.8208C16.481 20.7908 16.751 20.6608 16.881 20.5208L20.421 16.9808C21.031 16.3708 21.321 15.6608 20.421 14.7608C19.531 13.8708 18.821 14.1608 18.211 14.7708Z" stroke="white" stroke-width="1.5" stroke-miterlimit="10" stroke-linecap="round" stroke-linejoin="round"/>
<path d="M17.6979 15.281C17.9979 16.361 18.8379 17.201 19.9179 17.501" stroke="white" stroke-width="1.5" stroke-miterlimit="10" stroke-linecap="round" stroke-linejoin="round"/>
</svg>
