<svg width="60" height="60" viewBox="0 0 60 60" fill="none" xmlns="http://www.w3.org/2000/svg">
<path d="M55 28.75V38.75C55 47.5 50 51.25 42.5 51.25H17.5C10 51.25 5 47.5 5 38.75V21.25C5 12.5 10 8.75 17.5 8.75H30" stroke="#2986FD" stroke-width="2" stroke-miterlimit="10" stroke-linecap="round" stroke-linejoin="round"/>
<path opacity="0.6" d="M17.5 22.5L25.325 28.75C27.9 30.8 32.125 30.8 34.7 28.75" stroke="#2986FD" stroke-width="2" stroke-miterlimit="10" stroke-linecap="round" stroke-linejoin="round"/>
<path d="M48.7 7.0501L49.4 8.47508C49.75 9.17508 50.625 9.82509 51.4 9.97509L52.35 10.1251C55.2 10.6001 55.875 12.7001 53.825 14.7751L52.95 15.6501C52.375 16.2501 52.05 17.4001 52.225 18.2001L52.35 18.7251C53.125 22.1751 51.3 23.5001 48.3 21.7001L47.65 21.3251C46.875 20.8751 45.625 20.8751 44.85 21.3251L44.2 21.7001C41.175 23.5251 39.35 22.1751 40.15 18.7251L40.2749 18.2001C40.4499 17.4001 40.125 16.2501 39.55 15.6501L38.675 14.7751C36.625 12.7001 37.3 10.6001 40.15 10.1251L41.1 9.97509C41.85 9.85009 42.7499 9.17508 43.0999 8.47508L43.7999 7.0501C45.1499 4.3251 47.35 4.3251 48.7 7.0501Z" fill="#0052CC" fill-opacity="0.15" stroke="#2986FD" stroke-width="2" stroke-linecap="round" stroke-linejoin="round"/>
</svg>
