<svg width="55" height="40" viewBox="0 0 55 40" fill="none" xmlns="http://www.w3.org/2000/svg">
<path d="M42.5 36.25C41.5054 36.25 40.5516 35.8549 39.8484 35.1516C39.1451 34.4484 38.75 33.4946 38.75 32.5C38.75 31.5054 39.1451 30.5516 39.8484 29.8483C40.5516 29.1451 41.5054 28.75 42.5 28.75C43.4946 28.75 44.4484 29.1451 45.1516 29.8483C45.8549 30.5516 46.25 31.5054 46.25 32.5C46.25 33.4946 45.8549 34.4484 45.1516 35.1516C44.4484 35.8549 43.4946 36.25 42.5 36.25ZM46.25 13.75L51.15 20H40V13.75M12.5 36.25C11.5054 36.25 10.5516 35.8549 9.84835 35.1516C9.14509 34.4484 8.75 33.4946 8.75 32.5C8.75 31.5054 9.14509 30.5516 9.84835 29.8483C10.5516 29.1451 11.5054 28.75 12.5 28.75C13.4946 28.75 14.4484 29.1451 15.1517 29.8483C15.8549 30.5516 16.25 31.5054 16.25 32.5C16.25 33.4946 15.8549 34.4484 15.1517 35.1516C14.4484 35.8549 13.4946 36.25 12.5 36.25ZM48.1 10.8C47.7223 10.2964 47.1295 10 46.5 10H40V5C40 2.23858 37.7614 0 35 0H5C2.225 0 0 2.225 0 5V31.5C0 32.0523 0.447715 32.5 1 32.5H5C5 34.4891 5.79018 36.3968 7.1967 37.8033C8.60322 39.2098 10.5109 40 12.5 40C14.4891 40 16.3968 39.2098 17.8033 37.8033C19.2098 36.3968 20 34.4891 20 32.5H35C35 34.4891 35.7902 36.3968 37.1967 37.8033C38.6032 39.2098 40.5109 40 42.5 40C44.4891 40 46.3968 39.2098 47.8033 37.8033C49.2098 36.3968 50 34.4891 50 32.5H54C54.5523 32.5 55 32.0523 55 31.5V21.3333C55 20.4679 54.7193 19.6257 54.2 18.9333L48.1 10.8Z" fill="#2986FD"/>
<path d="M2 5C2 3.34315 3.34315 2 5 2H35C36.6569 2 38 3.34315 38 5V25H2V5Z" fill="#D1E0F5"/>
</svg>
