<?xml version="1.0" encoding="UTF-8"?>
<!DOCTYPE svg PUBLIC "-//W3C//DTD SVG 1.1//EN" "http://www.w3.org/Graphics/SVG/1.1/DTD/svg11.dtd">
<svg xmlns="http://www.w3.org/2000/svg" version="1.1" width="612px" height="612px" style="shape-rendering:geometricPrecision; text-rendering:geometricPrecision; image-rendering:optimizeQuality; fill-rule:evenodd; clip-rule:evenodd" xmlns:xlink="http://www.w3.org/1999/xlink">
<g><path style="opacity:1" fill="#cf2127" d="M -0.5,-0.5 C 203.5,-0.5 407.5,-0.5 611.5,-0.5C 611.5,203.5 611.5,407.5 611.5,611.5C 407.5,611.5 203.5,611.5 -0.5,611.5C -0.5,407.5 -0.5,203.5 -0.5,-0.5 Z"/></g>
<g><path style="opacity:1" fill="#d61e26" d="M 247.5,23.5 C 250.167,23.5 252.833,23.5 255.5,23.5C 255.5,26.1667 255.5,28.8333 255.5,31.5C 287.5,31.5 319.5,31.5 351.5,31.5C 351.5,28.8333 351.5,26.1667 351.5,23.5C 356.833,23.5 362.167,23.5 367.5,23.5C 367.5,28.8333 367.5,34.1667 367.5,39.5C 372.833,39.5 378.167,39.5 383.5,39.5C 383.5,36.8333 383.5,34.1667 383.5,31.5C 386.167,31.5 388.833,31.5 391.5,31.5C 391.5,36.8333 391.5,42.1667 391.5,47.5C 396.833,47.5 402.167,47.5 407.5,47.5C 407.5,44.8333 407.5,42.1667 407.5,39.5C 410.167,39.5 412.833,39.5 415.5,39.5C 415.5,44.8333 415.5,50.1667 415.5,55.5C 420.833,55.5 426.167,55.5 431.5,55.5C 431.5,58.1667 431.5,60.8333 431.5,63.5C 434.167,63.5 436.833,63.5 439.5,63.5C 439.5,60.8333 439.5,58.1667 439.5,55.5C 442.167,55.5 444.833,55.5 447.5,55.5C 447.5,60.8333 447.5,66.1667 447.5,71.5C 450.167,71.5 452.833,71.5 455.5,71.5C 455.5,74.1667 455.5,76.8333 455.5,79.5C 460.833,79.5 466.167,79.5 471.5,79.5C 471.5,82.1667 471.5,84.8333 471.5,87.5C 474.167,87.5 476.833,87.5 479.5,87.5C 479.5,90.1667 479.5,92.8333 479.5,95.5C 482.167,95.5 484.833,95.5 487.5,95.5C 487.5,92.8333 487.5,90.1667 487.5,87.5C 490.167,87.5 492.833,87.5 495.5,87.5C 495.5,90.1667 495.5,92.8333 495.5,95.5C 498.167,95.5 500.833,95.5 503.5,95.5C 503.5,98.1667 503.5,100.833 503.5,103.5C 506.167,103.5 508.833,103.5 511.5,103.5C 511.5,106.167 511.5,108.833 511.5,111.5C 514.167,111.5 516.833,111.5 519.5,111.5C 519.5,114.167 519.5,116.833 519.5,119.5C 516.833,119.5 514.167,119.5 511.5,119.5C 511.5,122.167 511.5,124.833 511.5,127.5C 514.167,127.5 516.833,127.5 519.5,127.5C 519.5,130.167 519.5,132.833 519.5,135.5C 522.167,135.5 524.833,135.5 527.5,135.5C 527.5,138.167 527.5,140.833 527.5,143.5C 532.833,143.5 538.167,143.5 543.5,143.5C 543.5,146.167 543.5,148.833 543.5,151.5C 540.833,151.5 538.167,151.5 535.5,151.5C 535.5,154.167 535.5,156.833 535.5,159.5C 538.167,159.5 540.833,159.5 543.5,159.5C 543.5,162.167 543.5,164.833 543.5,167.5C 548.833,167.5 554.167,167.5 559.5,167.5C 559.5,170.167 559.5,172.833 559.5,175.5C 556.833,175.5 554.167,175.5 551.5,175.5C 551.5,178.167 551.5,180.833 551.5,183.5C 556.833,183.5 562.167,183.5 567.5,183.5C 567.5,186.167 567.5,188.833 567.5,191.5C 564.833,191.5 562.167,191.5 559.5,191.5C 559.5,196.833 559.5,202.167 559.5,207.5C 562.167,207.5 564.833,207.5 567.5,207.5C 567.5,215.5 567.5,223.5 567.5,231.5C 572.833,231.5 578.167,231.5 583.5,231.5C 583.5,234.167 583.5,236.833 583.5,239.5C 580.833,239.5 578.167,239.5 575.5,239.5C 575.5,247.5 575.5,255.5 575.5,263.5C 580.833,263.5 586.167,263.5 591.5,263.5C 591.5,274.167 591.5,284.833 591.5,295.5C 588.833,295.5 586.167,295.5 583.5,295.5C 583.5,303.5 583.5,311.5 583.5,319.5C 586.167,319.5 588.833,319.5 591.5,319.5C 591.5,327.5 591.5,335.5 591.5,343.5C 586.167,343.5 580.833,343.5 575.5,343.5C 575.5,354.167 575.5,364.833 575.5,375.5C 578.167,375.5 580.833,375.5 583.5,375.5C 583.5,378.167 583.5,380.833 583.5,383.5C 578.167,383.5 572.833,383.5 567.5,383.5C 567.5,388.833 567.5,394.167 567.5,399.5C 570.167,399.5 572.833,399.5 575.5,399.5C 575.5,402.167 575.5,404.833 575.5,407.5C 570.167,407.5 564.833,407.5 559.5,407.5C 559.5,412.833 559.5,418.167 559.5,423.5C 556.833,423.5 554.167,423.5 551.5,423.5C 551.5,428.833 551.5,434.167 551.5,439.5C 548.833,439.5 546.167,439.5 543.5,439.5C 543.5,442.167 543.5,444.833 543.5,447.5C 546.167,447.5 548.833,447.5 551.5,447.5C 551.5,450.167 551.5,452.833 551.5,455.5C 546.167,455.5 540.833,455.5 535.5,455.5C 535.5,458.167 535.5,460.833 535.5,463.5C 538.167,463.5 540.833,463.5 543.5,463.5C 543.5,466.167 543.5,468.833 543.5,471.5C 540.833,471.5 538.167,471.5 535.5,471.5C 535.5,474.167 535.5,476.833 535.5,479.5C 530.167,479.5 524.833,479.5 519.5,479.5C 519.5,482.167 519.5,484.833 519.5,487.5C 516.833,487.5 514.167,487.5 511.5,487.5C 511.5,490.167 511.5,492.833 511.5,495.5C 508.833,495.5 506.167,495.5 503.5,495.5C 503.5,498.167 503.5,500.833 503.5,503.5C 500.833,503.5 498.167,503.5 495.5,503.5C 495.5,506.167 495.5,508.833 495.5,511.5C 492.833,511.5 490.167,511.5 487.5,511.5C 487.5,514.167 487.5,516.833 487.5,519.5C 484.833,519.5 482.167,519.5 479.5,519.5C 479.5,524.833 479.5,530.167 479.5,535.5C 476.833,535.5 474.167,535.5 471.5,535.5C 471.5,532.833 471.5,530.167 471.5,527.5C 468.833,527.5 466.167,527.5 463.5,527.5C 463.5,530.167 463.5,532.833 463.5,535.5C 460.833,535.5 458.167,535.5 455.5,535.5C 455.5,540.833 455.5,546.167 455.5,551.5C 452.833,551.5 450.167,551.5 447.5,551.5C 447.5,548.833 447.5,546.167 447.5,543.5C 444.833,543.5 442.167,543.5 439.5,543.5C 439.5,546.167 439.5,548.833 439.5,551.5C 434.167,551.5 428.833,551.5 423.5,551.5C 423.5,554.167 423.5,556.833 423.5,559.5C 418.167,559.5 412.833,559.5 407.5,559.5C 407.5,564.833 407.5,570.167 407.5,575.5C 404.833,575.5 402.167,575.5 399.5,575.5C 399.5,572.833 399.5,570.167 399.5,567.5C 394.167,567.5 388.833,567.5 383.5,567.5C 383.5,572.833 383.5,578.167 383.5,583.5C 380.833,583.5 378.167,583.5 375.5,583.5C 375.5,580.833 375.5,578.167 375.5,575.5C 364.833,575.5 354.167,575.5 343.5,575.5C 343.5,580.833 343.5,586.167 343.5,591.5C 335.5,591.5 327.5,591.5 319.5,591.5C 319.5,588.833 319.5,586.167 319.5,583.5C 311.5,583.5 303.5,583.5 295.5,583.5C 295.5,586.167 295.5,588.833 295.5,591.5C 284.833,591.5 274.167,591.5 263.5,591.5C 263.5,586.167 263.5,580.833 263.5,575.5C 255.5,575.5 247.5,575.5 239.5,575.5C 239.5,578.167 239.5,580.833 239.5,583.5C 236.833,583.5 234.167,583.5 231.5,583.5C 231.5,578.167 231.5,572.833 231.5,567.5C 223.5,567.5 215.5,567.5 207.5,567.5C 207.5,564.833 207.5,562.167 207.5,559.5C 202.167,559.5 196.833,559.5 191.5,559.5C 191.5,562.167 191.5,564.833 191.5,567.5C 188.833,567.5 186.167,567.5 183.5,567.5C 183.5,562.167 183.5,556.833 183.5,551.5C 180.833,551.5 178.167,551.5 175.5,551.5C 175.5,554.167 175.5,556.833 175.5,559.5C 172.833,559.5 170.167,559.5 167.5,559.5C 167.5,554.167 167.5,548.833 167.5,543.5C 164.833,543.5 162.167,543.5 159.5,543.5C 159.5,540.833 159.5,538.167 159.5,535.5C 156.833,535.5 154.167,535.5 151.5,535.5C 151.5,538.167 151.5,540.833 151.5,543.5C 148.833,543.5 146.167,543.5 143.5,543.5C 143.5,538.167 143.5,532.833 143.5,527.5C 140.833,527.5 138.167,527.5 135.5,527.5C 135.5,524.833 135.5,522.167 135.5,519.5C 132.833,519.5 130.167,519.5 127.5,519.5C 127.5,516.833 127.5,514.167 127.5,511.5C 124.833,511.5 122.167,511.5 119.5,511.5C 119.5,514.167 119.5,516.833 119.5,519.5C 116.833,519.5 114.167,519.5 111.5,519.5C 111.5,516.833 111.5,514.167 111.5,511.5C 108.833,511.5 106.167,511.5 103.5,511.5C 103.5,508.833 103.5,506.167 103.5,503.5C 100.833,503.5 98.1667,503.5 95.5,503.5C 95.5,500.833 95.5,498.167 95.5,495.5C 92.8333,495.5 90.1667,495.5 87.5,495.5C 87.5,492.833 87.5,490.167 87.5,487.5C 90.1667,487.5 92.8333,487.5 95.5,487.5C 95.5,484.833 95.5,482.167 95.5,479.5C 92.8333,479.5 90.1667,479.5 87.5,479.5C 87.5,476.833 87.5,474.167 87.5,471.5C 84.8333,471.5 82.1667,471.5 79.5,471.5C 79.5,466.167 79.5,460.833 79.5,455.5C 76.8333,455.5 74.1667,455.5 71.5,455.5C 71.5,452.833 71.5,450.167 71.5,447.5C 66.1667,447.5 60.8333,447.5 55.5,447.5C 55.5,444.833 55.5,442.167 55.5,439.5C 58.1667,439.5 60.8333,439.5 63.5,439.5C 63.5,436.833 63.5,434.167 63.5,431.5C 60.8333,431.5 58.1667,431.5 55.5,431.5C 55.5,426.167 55.5,420.833 55.5,415.5C 50.1667,415.5 44.8333,415.5 39.5,415.5C 39.5,412.833 39.5,410.167 39.5,407.5C 42.1667,407.5 44.8333,407.5 47.5,407.5C 47.5,402.167 47.5,396.833 47.5,391.5C 42.1667,391.5 36.8333,391.5 31.5,391.5C 31.5,388.833 31.5,386.167 31.5,383.5C 34.1667,383.5 36.8333,383.5 39.5,383.5C 39.5,378.167 39.5,372.833 39.5,367.5C 34.1667,367.5 28.8333,367.5 23.5,367.5C 23.5,362.167 23.5,356.833 23.5,351.5C 26.1667,351.5 28.8333,351.5 31.5,351.5C 31.5,319.5 31.5,287.5 31.5,255.5C 28.8333,255.5 26.1667,255.5 23.5,255.5C 23.5,252.833 23.5,250.167 23.5,247.5C 28.8333,247.5 34.1667,247.5 39.5,247.5C 39.5,239.5 39.5,231.5 39.5,223.5C 36.8333,223.5 34.1667,223.5 31.5,223.5C 31.5,220.833 31.5,218.167 31.5,215.5C 36.8333,215.5 42.1667,215.5 47.5,215.5C 47.5,210.167 47.5,204.833 47.5,199.5C 50.1667,199.5 52.8333,199.5 55.5,199.5C 55.5,194.167 55.5,188.833 55.5,183.5C 52.8333,183.5 50.1667,183.5 47.5,183.5C 47.5,180.833 47.5,178.167 47.5,175.5C 52.8333,175.5 58.1667,175.5 63.5,175.5C 63.5,172.833 63.5,170.167 63.5,167.5C 66.1667,167.5 68.8333,167.5 71.5,167.5C 71.5,162.167 71.5,156.833 71.5,151.5C 74.1667,151.5 76.8333,151.5 79.5,151.5C 79.5,148.833 79.5,146.167 79.5,143.5C 82.1667,143.5 84.8333,143.5 87.5,143.5C 87.5,140.833 87.5,138.167 87.5,135.5C 84.8333,135.5 82.1667,135.5 79.5,135.5C 79.5,132.833 79.5,130.167 79.5,127.5C 84.8333,127.5 90.1667,127.5 95.5,127.5C 95.5,124.833 95.5,122.167 95.5,119.5C 98.1667,119.5 100.833,119.5 103.5,119.5C 103.5,116.833 103.5,114.167 103.5,111.5C 106.167,111.5 108.833,111.5 111.5,111.5C 111.5,108.833 111.5,106.167 111.5,103.5C 114.167,103.5 116.833,103.5 119.5,103.5C 119.5,100.833 119.5,98.1667 119.5,95.5C 122.167,95.5 124.833,95.5 127.5,95.5C 127.5,90.1667 127.5,84.8333 127.5,79.5C 130.167,79.5 132.833,79.5 135.5,79.5C 135.5,82.1667 135.5,84.8333 135.5,87.5C 138.167,87.5 140.833,87.5 143.5,87.5C 143.5,84.8333 143.5,82.1667 143.5,79.5C 146.167,79.5 148.833,79.5 151.5,79.5C 151.5,76.8333 151.5,74.1667 151.5,71.5C 156.833,71.5 162.167,71.5 167.5,71.5C 167.5,68.8333 167.5,66.1667 167.5,63.5C 170.167,63.5 172.833,63.5 175.5,63.5C 175.5,58.1667 175.5,52.8333 175.5,47.5C 178.167,47.5 180.833,47.5 183.5,47.5C 183.5,50.1667 183.5,52.8333 183.5,55.5C 188.833,55.5 194.167,55.5 199.5,55.5C 199.5,52.8333 199.5,50.1667 199.5,47.5C 204.833,47.5 210.167,47.5 215.5,47.5C 215.5,42.1667 215.5,36.8333 215.5,31.5C 218.167,31.5 220.833,31.5 223.5,31.5C 223.5,34.1667 223.5,36.8333 223.5,39.5C 231.5,39.5 239.5,39.5 247.5,39.5C 247.5,34.1667 247.5,28.8333 247.5,23.5 Z"/></g>
<g><path style="opacity:1" fill="#db1d27" d="M 263.5,63.5 C 292.833,63.5 322.167,63.5 351.5,63.5C 351.5,66.1667 351.5,68.8333 351.5,71.5C 362.167,71.5 372.833,71.5 383.5,71.5C 383.5,74.1667 383.5,76.8333 383.5,79.5C 388.833,79.5 394.167,79.5 399.5,79.5C 399.5,82.1667 399.5,84.8333 399.5,87.5C 404.833,87.5 410.167,87.5 415.5,87.5C 415.5,90.1667 415.5,92.8333 415.5,95.5C 420.833,95.5 426.167,95.5 431.5,95.5C 431.5,98.1667 431.5,100.833 431.5,103.5C 436.833,103.5 442.167,103.5 447.5,103.5C 447.5,106.167 447.5,108.833 447.5,111.5C 450.167,111.5 452.833,111.5 455.5,111.5C 455.5,114.167 455.5,116.833 455.5,119.5C 458.167,119.5 460.833,119.5 463.5,119.5C 463.5,122.167 463.5,124.833 463.5,127.5C 466.167,127.5 468.833,127.5 471.5,127.5C 471.5,130.167 471.5,132.833 471.5,135.5C 474.167,135.5 476.833,135.5 479.5,135.5C 479.5,138.167 479.5,140.833 479.5,143.5C 482.167,143.5 484.833,143.5 487.5,143.5C 487.5,146.167 487.5,148.833 487.5,151.5C 490.167,151.5 492.833,151.5 495.5,151.5C 495.5,154.167 495.5,156.833 495.5,159.5C 498.167,159.5 500.833,159.5 503.5,159.5C 503.5,162.167 503.5,164.833 503.5,167.5C 506.167,167.5 508.833,167.5 511.5,167.5C 511.5,172.833 511.5,178.167 511.5,183.5C 514.167,183.5 516.833,183.5 519.5,183.5C 519.5,188.833 519.5,194.167 519.5,199.5C 522.167,199.5 524.833,199.5 527.5,199.5C 527.5,204.833 527.5,210.167 527.5,215.5C 530.167,215.5 532.833,215.5 535.5,215.5C 535.5,223.5 535.5,231.5 535.5,239.5C 538.167,239.5 540.833,239.5 543.5,239.5C 543.5,255.5 543.5,271.5 543.5,287.5C 546.167,287.5 548.833,287.5 551.5,287.5C 551.5,300.833 551.5,314.167 551.5,327.5C 548.833,327.5 546.167,327.5 543.5,327.5C 543.5,340.833 543.5,354.167 543.5,367.5C 540.833,367.5 538.167,367.5 535.5,367.5C 535.5,375.5 535.5,383.5 535.5,391.5C 532.833,391.5 530.167,391.5 527.5,391.5C 527.5,399.5 527.5,407.5 527.5,415.5C 524.833,415.5 522.167,415.5 519.5,415.5C 519.5,420.833 519.5,426.167 519.5,431.5C 516.833,431.5 514.167,431.5 511.5,431.5C 511.5,434.167 511.5,436.833 511.5,439.5C 508.833,439.5 506.167,439.5 503.5,439.5C 503.5,442.167 503.5,444.833 503.5,447.5C 500.833,447.5 498.167,447.5 495.5,447.5C 495.5,452.833 495.5,458.167 495.5,463.5C 492.833,463.5 490.167,463.5 487.5,463.5C 487.5,466.167 487.5,468.833 487.5,471.5C 484.833,471.5 482.167,471.5 479.5,471.5C 479.5,474.167 479.5,476.833 479.5,479.5C 476.833,479.5 474.167,479.5 471.5,479.5C 471.5,482.167 471.5,484.833 471.5,487.5C 468.833,487.5 466.167,487.5 463.5,487.5C 463.5,490.167 463.5,492.833 463.5,495.5C 458.167,495.5 452.833,495.5 447.5,495.5C 447.5,498.167 447.5,500.833 447.5,503.5C 444.833,503.5 442.167,503.5 439.5,503.5C 439.5,506.167 439.5,508.833 439.5,511.5C 436.833,511.5 434.167,511.5 431.5,511.5C 431.5,514.167 431.5,516.833 431.5,519.5C 426.167,519.5 420.833,519.5 415.5,519.5C 415.5,522.167 415.5,524.833 415.5,527.5C 407.5,527.5 399.5,527.5 391.5,527.5C 391.5,530.167 391.5,532.833 391.5,535.5C 383.5,535.5 375.5,535.5 367.5,535.5C 367.5,538.167 367.5,540.833 367.5,543.5C 354.167,543.5 340.833,543.5 327.5,543.5C 327.5,546.167 327.5,548.833 327.5,551.5C 314.167,551.5 300.833,551.5 287.5,551.5C 287.5,548.833 287.5,546.167 287.5,543.5C 271.5,543.5 255.5,543.5 239.5,543.5C 239.5,540.833 239.5,538.167 239.5,535.5C 231.5,535.5 223.5,535.5 215.5,535.5C 215.5,532.833 215.5,530.167 215.5,527.5C 210.167,527.5 204.833,527.5 199.5,527.5C 199.5,524.833 199.5,522.167 199.5,519.5C 194.167,519.5 188.833,519.5 183.5,519.5C 183.5,516.833 183.5,514.167 183.5,511.5C 178.167,511.5 172.833,511.5 167.5,511.5C 167.5,508.833 167.5,506.167 167.5,503.5C 164.833,503.5 162.167,503.5 159.5,503.5C 159.5,500.833 159.5,498.167 159.5,495.5C 156.833,495.5 154.167,495.5 151.5,495.5C 151.5,492.833 151.5,490.167 151.5,487.5C 148.833,487.5 146.167,487.5 143.5,487.5C 143.5,484.833 143.5,482.167 143.5,479.5C 140.833,479.5 138.167,479.5 135.5,479.5C 135.5,476.833 135.5,474.167 135.5,471.5C 132.833,471.5 130.167,471.5 127.5,471.5C 127.5,468.833 127.5,466.167 127.5,463.5C 124.833,463.5 122.167,463.5 119.5,463.5C 119.5,460.833 119.5,458.167 119.5,455.5C 116.833,455.5 114.167,455.5 111.5,455.5C 111.5,452.833 111.5,450.167 111.5,447.5C 108.833,447.5 106.167,447.5 103.5,447.5C 103.5,442.167 103.5,436.833 103.5,431.5C 100.833,431.5 98.1667,431.5 95.5,431.5C 95.5,426.167 95.5,420.833 95.5,415.5C 92.8333,415.5 90.1667,415.5 87.5,415.5C 87.5,410.167 87.5,404.833 87.5,399.5C 84.8333,399.5 82.1667,399.5 79.5,399.5C 79.5,394.167 79.5,388.833 79.5,383.5C 76.8333,383.5 74.1667,383.5 71.5,383.5C 71.5,372.833 71.5,362.167 71.5,351.5C 68.8333,351.5 66.1667,351.5 63.5,351.5C 63.5,319.5 63.5,287.5 63.5,255.5C 66.1667,255.5 68.8333,255.5 71.5,255.5C 71.5,247.5 71.5,239.5 71.5,231.5C 74.1667,231.5 76.8333,231.5 79.5,231.5C 79.5,223.5 79.5,215.5 79.5,207.5C 82.1667,207.5 84.8333,207.5 87.5,207.5C 87.5,202.167 87.5,196.833 87.5,191.5C 90.1667,191.5 92.8333,191.5 95.5,191.5C 95.5,186.167 95.5,180.833 95.5,175.5C 98.1667,175.5 100.833,175.5 103.5,175.5C 103.5,172.833 103.5,170.167 103.5,167.5C 106.167,167.5 108.833,167.5 111.5,167.5C 111.5,162.167 111.5,156.833 111.5,151.5C 114.167,151.5 116.833,151.5 119.5,151.5C 119.5,148.833 119.5,146.167 119.5,143.5C 122.167,143.5 124.833,143.5 127.5,143.5C 127.5,140.833 127.5,138.167 127.5,135.5C 130.167,135.5 132.833,135.5 135.5,135.5C 135.5,132.833 135.5,130.167 135.5,127.5C 138.167,127.5 140.833,127.5 143.5,127.5C 143.5,124.833 143.5,122.167 143.5,119.5C 146.167,119.5 148.833,119.5 151.5,119.5C 151.5,116.833 151.5,114.167 151.5,111.5C 156.833,111.5 162.167,111.5 167.5,111.5C 167.5,108.833 167.5,106.167 167.5,103.5C 170.167,103.5 172.833,103.5 175.5,103.5C 175.5,100.833 175.5,98.1667 175.5,95.5C 180.833,95.5 186.167,95.5 191.5,95.5C 191.5,92.8333 191.5,90.1667 191.5,87.5C 196.833,87.5 202.167,87.5 207.5,87.5C 207.5,84.8333 207.5,82.1667 207.5,79.5C 215.5,79.5 223.5,79.5 231.5,79.5C 231.5,76.8333 231.5,74.1667 231.5,71.5C 242.167,71.5 252.833,71.5 263.5,71.5C 263.5,68.8333 263.5,66.1667 263.5,63.5 Z"/></g>
<g><path style="opacity:1" fill="#dd1e25" d="M 271.5,79.5 C 295.5,79.5 319.5,79.5 343.5,79.5C 343.5,82.1667 343.5,84.8333 343.5,87.5C 354.167,87.5 364.833,87.5 375.5,87.5C 375.5,90.1667 375.5,92.8333 375.5,95.5C 383.5,95.5 391.5,95.5 399.5,95.5C 399.5,98.1667 399.5,100.833 399.5,103.5C 402.167,103.5 404.833,103.5 407.5,103.5C 407.5,106.167 407.5,108.833 407.5,111.5C 412.833,111.5 418.167,111.5 423.5,111.5C 423.5,114.167 423.5,116.833 423.5,119.5C 428.833,119.5 434.167,119.5 439.5,119.5C 439.5,122.167 439.5,124.833 439.5,127.5C 442.167,127.5 444.833,127.5 447.5,127.5C 447.5,130.167 447.5,132.833 447.5,135.5C 450.167,135.5 452.833,135.5 455.5,135.5C 455.5,138.167 455.5,140.833 455.5,143.5C 458.167,143.5 460.833,143.5 463.5,143.5C 463.5,146.167 463.5,148.833 463.5,151.5C 466.167,151.5 468.833,151.5 471.5,151.5C 471.5,154.167 471.5,156.833 471.5,159.5C 474.167,159.5 476.833,159.5 479.5,159.5C 479.5,162.167 479.5,164.833 479.5,167.5C 482.167,167.5 484.833,167.5 487.5,167.5C 487.5,170.167 487.5,172.833 487.5,175.5C 490.167,175.5 492.833,175.5 495.5,175.5C 495.5,180.833 495.5,186.167 495.5,191.5C 498.167,191.5 500.833,191.5 503.5,191.5C 503.5,196.833 503.5,202.167 503.5,207.5C 506.167,207.5 508.833,207.5 511.5,207.5C 511.5,212.833 511.5,218.167 511.5,223.5C 514.167,223.5 516.833,223.5 519.5,223.5C 519.5,231.5 519.5,239.5 519.5,247.5C 522.167,247.5 524.833,247.5 527.5,247.5C 527.5,284.833 527.5,322.167 527.5,359.5C 524.833,359.5 522.167,359.5 519.5,359.5C 519.5,367.5 519.5,375.5 519.5,383.5C 516.833,383.5 514.167,383.5 511.5,383.5C 511.5,391.5 511.5,399.5 511.5,407.5C 508.833,407.5 506.167,407.5 503.5,407.5C 503.5,410.167 503.5,412.833 503.5,415.5C 500.833,415.5 498.167,415.5 495.5,415.5C 495.5,420.833 495.5,426.167 495.5,431.5C 492.833,431.5 490.167,431.5 487.5,431.5C 487.5,436.833 487.5,442.167 487.5,447.5C 484.833,447.5 482.167,447.5 479.5,447.5C 479.5,450.167 479.5,452.833 479.5,455.5C 476.833,455.5 474.167,455.5 471.5,455.5C 471.5,458.167 471.5,460.833 471.5,463.5C 468.833,463.5 466.167,463.5 463.5,463.5C 463.5,466.167 463.5,468.833 463.5,471.5C 460.833,471.5 458.167,471.5 455.5,471.5C 455.5,474.167 455.5,476.833 455.5,479.5C 452.833,479.5 450.167,479.5 447.5,479.5C 447.5,482.167 447.5,484.833 447.5,487.5C 442.167,487.5 436.833,487.5 431.5,487.5C 431.5,490.167 431.5,492.833 431.5,495.5C 426.167,495.5 420.833,495.5 415.5,495.5C 415.5,498.167 415.5,500.833 415.5,503.5C 412.833,503.5 410.167,503.5 407.5,503.5C 407.5,506.167 407.5,508.833 407.5,511.5C 399.5,511.5 391.5,511.5 383.5,511.5C 383.5,514.167 383.5,516.833 383.5,519.5C 375.5,519.5 367.5,519.5 359.5,519.5C 359.5,522.167 359.5,524.833 359.5,527.5C 322.167,527.5 284.833,527.5 247.5,527.5C 247.5,524.833 247.5,522.167 247.5,519.5C 239.5,519.5 231.5,519.5 223.5,519.5C 223.5,516.833 223.5,514.167 223.5,511.5C 218.167,511.5 212.833,511.5 207.5,511.5C 207.5,508.833 207.5,506.167 207.5,503.5C 202.167,503.5 196.833,503.5 191.5,503.5C 191.5,500.833 191.5,498.167 191.5,495.5C 186.167,495.5 180.833,495.5 175.5,495.5C 175.5,492.833 175.5,490.167 175.5,487.5C 172.833,487.5 170.167,487.5 167.5,487.5C 167.5,484.833 167.5,482.167 167.5,479.5C 164.833,479.5 162.167,479.5 159.5,479.5C 159.5,476.833 159.5,474.167 159.5,471.5C 156.833,471.5 154.167,471.5 151.5,471.5C 151.5,468.833 151.5,466.167 151.5,463.5C 148.833,463.5 146.167,463.5 143.5,463.5C 143.5,460.833 143.5,458.167 143.5,455.5C 140.833,455.5 138.167,455.5 135.5,455.5C 135.5,452.833 135.5,450.167 135.5,447.5C 132.833,447.5 130.167,447.5 127.5,447.5C 127.5,444.833 127.5,442.167 127.5,439.5C 124.833,439.5 122.167,439.5 119.5,439.5C 119.5,434.167 119.5,428.833 119.5,423.5C 116.833,423.5 114.167,423.5 111.5,423.5C 111.5,418.167 111.5,412.833 111.5,407.5C 108.833,407.5 106.167,407.5 103.5,407.5C 103.5,404.833 103.5,402.167 103.5,399.5C 100.833,399.5 98.1667,399.5 95.5,399.5C 95.5,391.5 95.5,383.5 95.5,375.5C 92.8333,375.5 90.1667,375.5 87.5,375.5C 87.5,364.833 87.5,354.167 87.5,343.5C 84.8333,343.5 82.1667,343.5 79.5,343.5C 79.5,319.5 79.5,295.5 79.5,271.5C 82.1667,271.5 84.8333,271.5 87.5,271.5C 87.5,258.167 87.5,244.833 87.5,231.5C 90.1667,231.5 92.8333,231.5 95.5,231.5C 95.5,226.167 95.5,220.833 95.5,215.5C 98.1667,215.5 100.833,215.5 103.5,215.5C 103.5,210.167 103.5,204.833 103.5,199.5C 106.167,199.5 108.833,199.5 111.5,199.5C 111.5,194.167 111.5,188.833 111.5,183.5C 114.167,183.5 116.833,183.5 119.5,183.5C 119.5,180.833 119.5,178.167 119.5,175.5C 122.167,175.5 124.833,175.5 127.5,175.5C 127.5,170.167 127.5,164.833 127.5,159.5C 130.167,159.5 132.833,159.5 135.5,159.5C 135.5,156.833 135.5,154.167 135.5,151.5C 138.167,151.5 140.833,151.5 143.5,151.5C 143.5,148.833 143.5,146.167 143.5,143.5C 146.167,143.5 148.833,143.5 151.5,143.5C 151.5,140.833 151.5,138.167 151.5,135.5C 154.167,135.5 156.833,135.5 159.5,135.5C 159.5,132.833 159.5,130.167 159.5,127.5C 164.833,127.5 170.167,127.5 175.5,127.5C 175.5,124.833 175.5,122.167 175.5,119.5C 178.167,119.5 180.833,119.5 183.5,119.5C 183.5,116.833 183.5,114.167 183.5,111.5C 188.833,111.5 194.167,111.5 199.5,111.5C 199.5,108.833 199.5,106.167 199.5,103.5C 204.833,103.5 210.167,103.5 215.5,103.5C 215.5,100.833 215.5,98.1667 215.5,95.5C 223.5,95.5 231.5,95.5 239.5,95.5C 239.5,92.8333 239.5,90.1667 239.5,87.5C 250.167,87.5 260.833,87.5 271.5,87.5C 271.5,84.8333 271.5,82.1667 271.5,79.5 Z"/></g>
<g><path style="opacity:1" fill="#e31d24" d="M 497.5,265.5 C 485.893,269.924 474.226,273.924 462.5,277.5C 460.712,277.785 459.045,277.452 457.5,276.5C 447.444,262.791 437.444,249.125 427.5,235.5C 427.44,234.957 427.107,234.624 426.5,234.5C 426.137,253.057 425.137,271.39 423.5,289.5C 407.554,295.131 391.554,300.798 375.5,306.5C 392.227,312.742 409.227,318.409 426.5,323.5C 426.333,341.503 426.5,359.503 427,377.5C 437.521,363.099 448.021,348.766 458.5,334.5C 468.768,337.7 479.101,340.7 489.5,343.5C 490.954,346.123 492.954,348.289 495.5,350C 484.854,350.829 484.854,351.329 495.5,351.5C 495.5,356.833 495.5,362.167 495.5,367.5C 492.833,367.5 490.167,367.5 487.5,367.5C 487.5,375.5 487.5,383.5 487.5,391.5C 484.833,391.5 482.167,391.5 479.5,391.5C 479.5,396.833 479.5,402.167 479.5,407.5C 476.833,407.5 474.167,407.5 471.5,407.5C 471.5,410.167 471.5,412.833 471.5,415.5C 468.833,415.5 466.167,415.5 463.5,415.5C 463.5,420.833 463.5,426.167 463.5,431.5C 460.833,431.5 458.167,431.5 455.5,431.5C 455.5,434.167 455.5,436.833 455.5,439.5C 452.833,439.5 450.167,439.5 447.5,439.5C 447.5,442.167 447.5,444.833 447.5,447.5C 444.833,447.5 442.167,447.5 439.5,447.5C 439.5,450.167 439.5,452.833 439.5,455.5C 436.833,455.5 434.167,455.5 431.5,455.5C 431.5,458.167 431.5,460.833 431.5,463.5C 426.167,463.5 420.833,463.5 415.5,463.5C 415.5,466.167 415.5,468.833 415.5,471.5C 412.833,471.5 410.167,471.5 407.5,471.5C 407.5,474.167 407.5,476.833 407.5,479.5C 402.167,479.5 396.833,479.5 391.5,479.5C 391.5,482.167 391.5,484.833 391.5,487.5C 383.5,487.5 375.5,487.5 367.5,487.5C 367.5,490.167 367.5,492.833 367.5,495.5C 359.5,495.5 351.5,495.5 343.5,495.5C 343.5,498.167 343.5,500.833 343.5,503.5C 319.5,503.5 295.5,503.5 271.5,503.5C 271.5,500.833 271.5,498.167 271.5,495.5C 260.833,495.5 250.167,495.5 239.5,495.5C 239.5,492.833 239.5,490.167 239.5,487.5C 234.167,487.5 228.833,487.5 223.5,487.5C 223.5,484.833 223.5,482.167 223.5,479.5C 218.167,479.5 212.833,479.5 207.5,479.5C 207.5,476.833 207.5,474.167 207.5,471.5C 202.167,471.5 196.833,471.5 191.5,471.5C 191.5,468.833 191.5,466.167 191.5,463.5C 188.833,463.5 186.167,463.5 183.5,463.5C 183.5,460.833 183.5,458.167 183.5,455.5C 180.833,455.5 178.167,455.5 175.5,455.5C 175.5,452.833 175.5,450.167 175.5,447.5C 180.88,447.676 186.213,447.342 191.5,446.5C 218.052,457.236 245.386,460.569 273.5,456.5C 319.223,449.927 355.056,427.594 381,389.5C 381.667,388.833 381.667,388.167 381,387.5C 346.236,423.273 304.402,435.106 255.5,423C 211.495,407.66 183.328,377.494 171,332.5C 162.065,282.358 176.899,240.858 215.5,208C 253.264,181.376 293.931,176.043 337.5,192C 353.878,199.104 368.045,209.27 380,222.5C 378.591,218.694 376.591,215.027 374,211.5C 356.995,190.652 336.162,174.985 311.5,164.5C 285.877,154.295 259.21,150.629 231.5,153.5C 228.505,153.294 225.838,153.96 223.5,155.5C 213.785,156.928 204.452,159.595 195.5,163.5C 192.167,164.833 188.833,166.167 185.5,167.5C 183.326,167.75 181.659,168.75 180.5,170.5C 179.833,170.5 179.167,170.5 178.5,170.5C 177.957,170.44 177.624,170.107 177.5,169.5C 178.376,168.749 179.376,168.249 180.5,168C 176.185,168.682 171.851,168.515 167.5,167.5C 167.5,164.833 167.5,162.167 167.5,159.5C 170.167,159.5 172.833,159.5 175.5,159.5C 175.5,156.833 175.5,154.167 175.5,151.5C 180.833,151.5 186.167,151.5 191.5,151.5C 191.5,148.833 191.5,146.167 191.5,143.5C 194.167,143.5 196.833,143.5 199.5,143.5C 199.5,140.833 199.5,138.167 199.5,135.5C 204.833,135.5 210.167,135.5 215.5,135.5C 215.5,132.833 215.5,130.167 215.5,127.5C 220.833,127.5 226.167,127.5 231.5,127.5C 231.5,124.833 231.5,122.167 231.5,119.5C 239.5,119.5 247.5,119.5 255.5,119.5C 255.5,116.833 255.5,114.167 255.5,111.5C 290.167,111.5 324.833,111.5 359.5,111.5C 359.5,114.167 359.5,116.833 359.5,119.5C 367.5,119.5 375.5,119.5 383.5,119.5C 383.5,122.167 383.5,124.833 383.5,127.5C 388.833,127.5 394.167,127.5 399.5,127.5C 399.5,130.167 399.5,132.833 399.5,135.5C 402.167,135.5 404.833,135.5 407.5,135.5C 407.5,138.167 407.5,140.833 407.5,143.5C 412.833,143.5 418.167,143.5 423.5,143.5C 423.5,146.167 423.5,148.833 423.5,151.5C 426.167,151.5 428.833,151.5 431.5,151.5C 431.5,154.167 431.5,156.833 431.5,159.5C 434.167,159.5 436.833,159.5 439.5,159.5C 439.5,162.167 439.5,164.833 439.5,167.5C 442.167,167.5 444.833,167.5 447.5,167.5C 447.5,170.167 447.5,172.833 447.5,175.5C 450.167,175.5 452.833,175.5 455.5,175.5C 455.5,178.167 455.5,180.833 455.5,183.5C 458.167,183.5 460.833,183.5 463.5,183.5C 463.5,186.167 463.5,188.833 463.5,191.5C 466.167,191.5 468.833,191.5 471.5,191.5C 471.5,196.833 471.5,202.167 471.5,207.5C 474.167,207.5 476.833,207.5 479.5,207.5C 479.5,212.833 479.5,218.167 479.5,223.5C 482.167,223.5 484.833,223.5 487.5,223.5C 487.5,228.833 487.5,234.167 487.5,239.5C 490.167,239.5 492.833,239.5 495.5,239.5C 494.961,248.363 495.628,257.03 497.5,265.5 Z"/></g>
<g><path style="opacity:1" fill="#f29793" d="M 231.5,153.5 C 229.095,154.768 226.428,155.435 223.5,155.5C 225.838,153.96 228.505,153.294 231.5,153.5 Z"/></g>
<g><path style="opacity:1" fill="#f8efea" d="M 311.5,164.5 C 309.173,166.442 306.506,167.276 303.5,167C 304.167,166.667 304.833,166.333 305.5,166C 294.287,163.782 282.953,162.949 271.5,163.5C 271.5,161.833 271.5,160.167 271.5,158.5C 258.141,157.234 244.807,157.568 231.5,159.5C 231.5,162.167 231.5,164.833 231.5,167.5C 228.833,167.5 226.167,167.5 223.5,167.5C 223.5,170.167 223.5,172.833 223.5,175.5C 218.167,175.5 212.833,175.5 207.5,175.5C 207.5,178.167 207.5,180.833 207.5,183.5C 204.833,183.5 202.167,183.5 199.5,183.5C 199.5,186.167 199.5,188.833 199.5,191.5C 196.833,191.5 194.167,191.5 191.5,191.5C 191.5,194.167 191.5,196.833 191.5,199.5C 188.833,199.5 186.167,199.5 183.5,199.5C 183.5,202.167 183.5,204.833 183.5,207.5C 180.833,207.5 178.167,207.5 175.5,207.5C 175.5,212.833 175.5,218.167 175.5,223.5C 172.833,223.5 170.167,223.5 167.5,223.5C 167.5,226.167 167.5,228.833 167.5,231.5C 164.833,231.5 162.167,231.5 159.5,231.5C 159.5,239.5 159.5,247.5 159.5,255.5C 156.833,255.5 154.167,255.5 151.5,255.5C 151.5,268.833 151.5,282.167 151.5,295.5C 148.833,295.5 146.167,295.5 143.5,295.5C 143.5,303.5 143.5,311.5 143.5,319.5C 146.167,319.5 148.833,319.5 151.5,319.5C 151.5,332.833 151.5,346.167 151.5,359.5C 154.167,359.5 156.833,359.5 159.5,359.5C 159.5,364.833 159.5,370.167 159.5,375.5C 162.167,375.5 164.833,375.5 167.5,375.5C 167.5,380.833 167.5,386.167 167.5,391.5C 170.167,391.5 172.833,391.5 175.5,391.5C 175.5,394.167 175.5,396.833 175.5,399.5C 178.167,399.5 180.833,399.5 183.5,399.5C 183.5,402.167 183.5,404.833 183.5,407.5C 186.167,407.5 188.833,407.5 191.5,407.5C 191.5,412.833 191.5,418.167 191.5,423.5C 196.833,423.5 202.167,423.5 207.5,423.5C 207.5,426.167 207.5,428.833 207.5,431.5C 210.167,431.5 212.833,431.5 215.5,431.5C 215.5,434.167 215.5,436.833 215.5,439.5C 218.167,439.5 220.833,439.5 223.5,439.5C 223.5,442.167 223.5,444.833 223.5,447.5C 228.875,447.828 234.208,447.495 239.5,446.5C 236.914,445.52 234.247,445.187 231.5,445.5C 231.5,443.5 231.5,441.5 231.5,439.5C 236.833,439.5 242.167,439.5 247.5,439.5C 247.5,442.167 247.5,444.833 247.5,447.5C 250.167,447.5 252.833,447.5 255.5,447.5C 255.5,446.167 255.5,444.833 255.5,443.5C 258.167,443.5 260.833,443.5 263.5,443.5C 263.5,444.833 263.5,446.167 263.5,447.5C 266.167,447.5 268.833,447.5 271.5,447.5C 271.5,450.167 271.5,452.833 271.5,455.5C 269.801,455.34 268.134,455.506 266.5,456C 268.81,456.497 271.143,456.663 273.5,456.5C 245.386,460.569 218.052,457.236 191.5,446.5C 190.035,445.263 188.368,444.263 186.5,443.5C 187.265,441.071 188.931,439.738 191.5,439.5C 191.5,436.833 191.5,434.167 191.5,431.5C 188.833,431.5 186.167,431.5 183.5,431.5C 183.5,428.833 183.5,426.167 183.5,423.5C 180.833,423.5 178.167,423.5 175.5,423.5C 175.5,420.833 175.5,418.167 175.5,415.5C 172.833,415.5 170.167,415.5 167.5,415.5C 167.5,412.833 167.5,410.167 167.5,407.5C 164.833,407.5 162.167,407.5 159.5,407.5C 159.5,402.167 159.5,396.833 159.5,391.5C 156.833,391.5 154.167,391.5 151.5,391.5C 151.5,388.833 151.5,386.167 151.5,383.5C 148.833,383.5 146.167,383.5 143.5,383.5C 143.5,372.833 143.5,362.167 143.5,351.5C 140.833,351.5 138.167,351.5 135.5,351.5C 135.5,338.167 135.5,324.833 135.5,311.5C 133.5,311.5 131.5,311.5 129.5,311.5C 129.5,306.167 129.5,300.833 129.5,295.5C 131.5,295.5 133.5,295.5 135.5,295.5C 135.5,279.5 135.5,263.5 135.5,247.5C 138.167,247.5 140.833,247.5 143.5,247.5C 143.5,242.167 143.5,236.833 143.5,231.5C 146.167,231.5 148.833,231.5 151.5,231.5C 151.5,226.167 151.5,220.833 151.5,215.5C 154.167,215.5 156.833,215.5 159.5,215.5C 159.5,212.833 159.5,210.167 159.5,207.5C 162.167,207.5 164.833,207.5 167.5,207.5C 167.5,202.167 167.5,196.833 167.5,191.5C 170.167,191.5 172.833,191.5 175.5,191.5C 175.5,188.833 175.5,186.167 175.5,183.5C 180.284,182.382 182.951,179.382 183.5,174.5C 188.805,175.194 194.138,175.528 199.5,175.5C 199.5,173.5 199.5,171.5 199.5,169.5C 202.167,169.5 204.833,169.5 207.5,169.5C 207.5,168.5 207.5,167.5 207.5,166.5C 204.272,166.299 201.105,166.633 198,167.5C 198.058,166.02 196.891,165.187 194.5,165C 195.056,164.617 195.389,164.117 195.5,163.5C 204.452,159.595 213.785,156.928 223.5,155.5C 226.428,155.435 229.095,154.768 231.5,153.5C 259.21,150.629 285.877,154.295 311.5,164.5 Z"/></g>
<g><path style="opacity:1" fill="#eb928f" d="M 185.5,167.5 C 184.514,169.408 182.848,170.408 180.5,170.5C 181.659,168.75 183.326,167.75 185.5,167.5 Z"/></g>
<g><path style="opacity:1" fill="#f6eae4" d="M 195.5,163.5 C 195.389,164.117 195.056,164.617 194.5,165C 196.891,165.187 198.058,166.02 198,167.5C 201.105,166.633 204.272,166.299 207.5,166.5C 207.5,167.5 207.5,168.5 207.5,169.5C 204.833,169.5 202.167,169.5 199.5,169.5C 199.5,171.5 199.5,173.5 199.5,175.5C 194.138,175.528 188.805,175.194 183.5,174.5C 182.951,179.382 180.284,182.382 175.5,183.5C 175.5,186.167 175.5,188.833 175.5,191.5C 172.833,191.5 170.167,191.5 167.5,191.5C 167.5,196.833 167.5,202.167 167.5,207.5C 164.833,207.5 162.167,207.5 159.5,207.5C 159.5,210.167 159.5,212.833 159.5,215.5C 156.833,215.5 154.167,215.5 151.5,215.5C 151.5,220.833 151.5,226.167 151.5,231.5C 148.833,231.5 146.167,231.5 143.5,231.5C 143.5,236.833 143.5,242.167 143.5,247.5C 140.833,247.5 138.167,247.5 135.5,247.5C 135.5,263.5 135.5,279.5 135.5,295.5C 133.5,295.5 131.5,295.5 129.5,295.5C 129.5,300.833 129.5,306.167 129.5,311.5C 131.5,311.5 133.5,311.5 135.5,311.5C 135.5,324.833 135.5,338.167 135.5,351.5C 138.167,351.5 140.833,351.5 143.5,351.5C 143.5,362.167 143.5,372.833 143.5,383.5C 146.167,383.5 148.833,383.5 151.5,383.5C 151.5,386.167 151.5,388.833 151.5,391.5C 154.167,391.5 156.833,391.5 159.5,391.5C 159.5,396.833 159.5,402.167 159.5,407.5C 162.167,407.5 164.833,407.5 167.5,407.5C 167.5,410.167 167.5,412.833 167.5,415.5C 170.167,415.5 172.833,415.5 175.5,415.5C 175.5,418.167 175.5,420.833 175.5,423.5C 178.167,423.5 180.833,423.5 183.5,423.5C 183.5,426.167 183.5,428.833 183.5,431.5C 186.167,431.5 188.833,431.5 191.5,431.5C 191.5,434.167 191.5,436.833 191.5,439.5C 188.931,439.738 187.265,441.071 186.5,443.5C 176.611,439.066 167.611,433.399 159.5,426.5C 159.369,425.624 159.702,424.957 160.5,424.5C 161.968,426.333 163.635,426.666 165.5,425.5C 163.827,423.914 161.827,423.247 159.5,423.5C 159.5,422.167 159.5,420.833 159.5,419.5C 156.835,418.456 154.168,417.289 151.5,416C 150.802,413.546 149.802,411.213 148.5,409C 142.692,409.053 141.026,406.387 143.5,401C 143.056,399.238 142.556,399.405 142,401.5C 139.752,398.649 138.918,395.315 139.5,391.5C 138.167,391.5 136.833,391.5 135.5,391.5C 135.5,388.833 135.5,386.167 135.5,383.5C 134.167,383.5 132.833,383.5 131.5,383.5C 131.5,380.833 131.5,378.167 131.5,375.5C 130.167,375.5 128.833,375.5 127.5,375.5C 127.5,372.833 127.5,370.167 127.5,367.5C 126.167,367.5 124.833,367.5 123.5,367.5C 123.5,362.167 123.5,356.833 123.5,351.5C 122.167,351.5 120.833,351.5 119.5,351.5C 119.5,348.833 119.5,346.167 119.5,343.5C 120.5,343.5 121.5,343.5 122.5,343.5C 122.5,338.167 122.5,332.833 122.5,327.5C 121.5,327.5 120.5,327.5 119.5,327.5C 119.5,330.167 119.5,332.833 119.5,335.5C 118.167,335.5 116.833,335.5 115.5,335.5C 115.5,316.833 115.5,298.167 115.5,279.5C 117.833,279.5 120.167,279.5 122.5,279.5C 122.5,276.833 122.5,274.167 122.5,271.5C 121.5,271.5 120.5,271.5 119.5,271.5C 119.5,268.833 119.5,266.167 119.5,263.5C 120.833,263.5 122.167,263.5 123.5,263.5C 123.5,258.167 123.5,252.833 123.5,247.5C 125.833,247.5 128.167,247.5 130.5,247.5C 131.001,237.143 131.668,226.809 132.5,216.5C 133.5,216.5 134.5,216.5 135.5,216.5C 135.5,218.833 135.5,221.167 135.5,223.5C 136.833,223.5 138.167,223.5 139.5,223.5C 139.807,217.907 139.473,212.407 138.5,207C 139.5,206.5 140.5,206 141.5,205.5C 143.179,207.104 145.179,207.771 147.5,207.5C 147.335,204.482 147.502,201.482 148,198.5C 150.635,196.608 151.468,194.274 150.5,191.5C 159.268,183.731 168.601,176.731 178.5,170.5C 179.167,170.5 179.833,170.5 180.5,170.5C 182.848,170.408 184.514,169.408 185.5,167.5C 188.833,166.167 192.167,164.833 195.5,163.5 Z"/></g>
<g><path style="opacity:1" fill="#f5e3db" d="M 150.5,191.5 C 151.468,194.274 150.635,196.608 148,198.5C 147.502,201.482 147.335,204.482 147.5,207.5C 145.179,207.771 143.179,207.104 141.5,205.5C 140.5,206 139.5,206.5 138.5,207C 139.473,212.407 139.807,217.907 139.5,223.5C 138.167,223.5 136.833,223.5 135.5,223.5C 135.5,221.167 135.5,218.833 135.5,216.5C 134.5,216.5 133.5,216.5 132.5,216.5C 131.668,226.809 131.001,237.143 130.5,247.5C 128.167,247.5 125.833,247.5 123.5,247.5C 123.5,252.833 123.5,258.167 123.5,263.5C 122.167,263.5 120.833,263.5 119.5,263.5C 119.5,266.167 119.5,268.833 119.5,271.5C 120.5,271.5 121.5,271.5 122.5,271.5C 122.5,274.167 122.5,276.833 122.5,279.5C 120.167,279.5 117.833,279.5 115.5,279.5C 115.5,298.167 115.5,316.833 115.5,335.5C 116.833,335.5 118.167,335.5 119.5,335.5C 119.5,332.833 119.5,330.167 119.5,327.5C 120.5,327.5 121.5,327.5 122.5,327.5C 122.5,332.833 122.5,338.167 122.5,343.5C 121.5,343.5 120.5,343.5 119.5,343.5C 119.5,346.167 119.5,348.833 119.5,351.5C 120.833,351.5 122.167,351.5 123.5,351.5C 123.5,356.833 123.5,362.167 123.5,367.5C 124.833,367.5 126.167,367.5 127.5,367.5C 127.5,370.167 127.5,372.833 127.5,375.5C 128.833,375.5 130.167,375.5 131.5,375.5C 131.5,378.167 131.5,380.833 131.5,383.5C 132.833,383.5 134.167,383.5 135.5,383.5C 135.5,386.167 135.5,388.833 135.5,391.5C 136.833,391.5 138.167,391.5 139.5,391.5C 138.918,395.315 139.752,398.649 142,401.5C 142.556,399.405 143.056,399.238 143.5,401C 141.026,406.387 142.692,409.053 148.5,409C 149.802,411.213 150.802,413.546 151.5,416C 154.168,417.289 156.835,418.456 159.5,419.5C 159.5,420.833 159.5,422.167 159.5,423.5C 161.827,423.247 163.827,423.914 165.5,425.5C 163.635,426.666 161.968,426.333 160.5,424.5C 159.702,424.957 159.369,425.624 159.5,426.5C 153.549,422.55 148.216,417.883 143.5,412.5C 142.167,410.5 140.5,408.833 138.5,407.5C 97.3049,357.612 88.8049,302.278 113,241.5C 121.927,222.084 134.427,205.417 150.5,191.5 Z"/></g>
<g><path style="opacity:1" fill="#e87479" d="M 427.5,235.5 C 426.503,253.326 426.17,271.326 426.5,289.5C 425.5,289.5 424.5,289.5 423.5,289.5C 425.137,271.39 426.137,253.057 426.5,234.5C 427.107,234.624 427.44,234.957 427.5,235.5 Z"/></g>
<g><path style="opacity:1" fill="#fbf5f2" d="M 427.5,235.5 C 437.444,249.125 447.444,262.791 457.5,276.5C 459.045,277.452 460.712,277.785 462.5,277.5C 463.827,294.338 463.827,311.338 462.5,328.5C 461.808,329.025 461.308,329.692 461,330.5C 459.365,329.151 457.865,329.318 456.5,331C 461.816,330.896 462.483,332.063 458.5,334.5C 448.021,348.766 437.521,363.099 427,377.5C 426.5,359.503 426.333,341.503 426.5,323.5C 409.227,318.409 392.227,312.742 375.5,306.5C 391.554,300.798 407.554,295.131 423.5,289.5C 424.5,289.5 425.5,289.5 426.5,289.5C 426.17,271.326 426.503,253.326 427.5,235.5 Z"/></g>
<g><path style="opacity:1" fill="#f7eae5" d="M 489.5,343.5 C 479.101,340.7 468.768,337.7 458.5,334.5C 462.483,332.063 461.816,330.896 456.5,331C 457.865,329.318 459.365,329.151 461,330.5C 461.308,329.692 461.808,329.025 462.5,328.5C 463.827,311.338 463.827,294.338 462.5,277.5C 474.226,273.924 485.893,269.924 497.5,265.5C 501.049,264.737 504.549,263.737 508,262.5C 508.5,262.833 509,263.167 509.5,263.5C 499.68,277.816 489.68,291.983 479.5,306C 489.95,320.395 500.284,334.895 510.5,349.5C 510,349.833 509.5,350.167 509,350.5C 502.407,348.469 495.907,346.135 489.5,343.5 Z"/></g>
<g><path style="opacity:1" fill="#fbf3f0" d="M 311.5,164.5 C 336.162,174.985 356.995,190.652 374,211.5C 376.591,215.027 378.591,218.694 380,222.5C 368.045,209.27 353.878,199.104 337.5,192C 293.931,176.043 253.264,181.376 215.5,208C 176.899,240.858 162.065,282.358 171,332.5C 183.328,377.494 211.495,407.66 255.5,423C 304.402,435.106 346.236,423.273 381,387.5C 381.667,388.167 381.667,388.833 381,389.5C 355.056,427.594 319.223,449.927 273.5,456.5C 271.143,456.663 268.81,456.497 266.5,456C 268.134,455.506 269.801,455.34 271.5,455.5C 271.5,452.833 271.5,450.167 271.5,447.5C 268.833,447.5 266.167,447.5 263.5,447.5C 263.5,446.167 263.5,444.833 263.5,443.5C 260.833,443.5 258.167,443.5 255.5,443.5C 255.5,444.833 255.5,446.167 255.5,447.5C 252.833,447.5 250.167,447.5 247.5,447.5C 247.5,444.833 247.5,442.167 247.5,439.5C 242.167,439.5 236.833,439.5 231.5,439.5C 231.5,441.5 231.5,443.5 231.5,445.5C 234.247,445.187 236.914,445.52 239.5,446.5C 234.208,447.495 228.875,447.828 223.5,447.5C 223.5,444.833 223.5,442.167 223.5,439.5C 220.833,439.5 218.167,439.5 215.5,439.5C 215.5,436.833 215.5,434.167 215.5,431.5C 212.833,431.5 210.167,431.5 207.5,431.5C 207.5,428.833 207.5,426.167 207.5,423.5C 202.167,423.5 196.833,423.5 191.5,423.5C 191.5,418.167 191.5,412.833 191.5,407.5C 188.833,407.5 186.167,407.5 183.5,407.5C 183.5,404.833 183.5,402.167 183.5,399.5C 180.833,399.5 178.167,399.5 175.5,399.5C 175.5,396.833 175.5,394.167 175.5,391.5C 172.833,391.5 170.167,391.5 167.5,391.5C 167.5,386.167 167.5,380.833 167.5,375.5C 164.833,375.5 162.167,375.5 159.5,375.5C 159.5,370.167 159.5,364.833 159.5,359.5C 156.833,359.5 154.167,359.5 151.5,359.5C 151.5,346.167 151.5,332.833 151.5,319.5C 148.833,319.5 146.167,319.5 143.5,319.5C 143.5,311.5 143.5,303.5 143.5,295.5C 146.167,295.5 148.833,295.5 151.5,295.5C 151.5,282.167 151.5,268.833 151.5,255.5C 154.167,255.5 156.833,255.5 159.5,255.5C 159.5,247.5 159.5,239.5 159.5,231.5C 162.167,231.5 164.833,231.5 167.5,231.5C 167.5,228.833 167.5,226.167 167.5,223.5C 170.167,223.5 172.833,223.5 175.5,223.5C 175.5,218.167 175.5,212.833 175.5,207.5C 178.167,207.5 180.833,207.5 183.5,207.5C 183.5,204.833 183.5,202.167 183.5,199.5C 186.167,199.5 188.833,199.5 191.5,199.5C 191.5,196.833 191.5,194.167 191.5,191.5C 194.167,191.5 196.833,191.5 199.5,191.5C 199.5,188.833 199.5,186.167 199.5,183.5C 202.167,183.5 204.833,183.5 207.5,183.5C 207.5,180.833 207.5,178.167 207.5,175.5C 212.833,175.5 218.167,175.5 223.5,175.5C 223.5,172.833 223.5,170.167 223.5,167.5C 226.167,167.5 228.833,167.5 231.5,167.5C 231.5,164.833 231.5,162.167 231.5,159.5C 244.807,157.568 258.141,157.234 271.5,158.5C 271.5,160.167 271.5,161.833 271.5,163.5C 282.953,162.949 294.287,163.782 305.5,166C 304.833,166.333 304.167,166.667 303.5,167C 306.506,167.276 309.173,166.442 311.5,164.5 Z"/></g>
<g><path style="opacity:1" fill="#eb7371" d="M 138.5,407.5 C 140.5,408.833 142.167,410.5 143.5,412.5C 140.833,411.833 139.167,410.167 138.5,407.5 Z"/></g>
</svg>
