<?xml version="1.0" encoding="UTF-8"?>
<!DOCTYPE svg PUBLIC "-//W3C//DTD SVG 1.1//EN" "http://www.w3.org/Graphics/SVG/1.1/DTD/svg11.dtd">
<svg xmlns="http://www.w3.org/2000/svg" version="1.1" width="500px" height="500px" style="shape-rendering:geometricPrecision; text-rendering:geometricPrecision; image-rendering:optimizeQuality; fill-rule:evenodd; clip-rule:evenodd" xmlns:xlink="http://www.w3.org/1999/xlink">
<g><path style="opacity:1" fill="#cd1125" d="M -0.5,-0.5 C 82.8333,-0.5 166.167,-0.5 249.5,-0.5C 249.5,55.1667 249.5,110.833 249.5,166.5C 249.5,221.833 249.5,277.167 249.5,332.5C 249.5,388.167 249.5,443.833 249.5,499.5C 166.167,499.5 82.8333,499.5 -0.5,499.5C -0.5,332.833 -0.5,166.167 -0.5,-0.5 Z"/></g>
<g><path style="opacity:1" fill="#029e49" d="M 249.5,-0.5 C 332.833,-0.5 416.167,-0.5 499.5,-0.5C 499.5,55.1667 499.5,110.833 499.5,166.5C 416.167,166.5 332.833,166.5 249.5,166.5C 249.5,110.833 249.5,55.1667 249.5,-0.5 Z"/></g>
<g><path style="opacity:1" fill="#fefffe" d="M 249.5,166.5 C 332.833,166.5 416.167,166.5 499.5,166.5C 499.5,221.833 499.5,277.167 499.5,332.5C 416.167,332.5 332.833,332.5 249.5,332.5C 249.5,277.167 249.5,221.833 249.5,166.5 Z"/></g>
<g><path style="opacity:1" fill="#000000" d="M 249.5,332.5 C 332.833,332.5 416.167,332.5 499.5,332.5C 499.5,388.167 499.5,443.833 499.5,499.5C 416.167,499.5 332.833,499.5 249.5,499.5C 249.5,443.833 249.5,388.167 249.5,332.5 Z"/></g>
</svg>
