<?xml version="1.0" encoding="UTF-8"?>
<!DOCTYPE svg PUBLIC "-//W3C//DTD SVG 1.1//EN" "http://www.w3.org/Graphics/SVG/1.1/DTD/svg11.dtd">
<svg xmlns="http://www.w3.org/2000/svg" version="1.1" width="500px" height="500px" style="shape-rendering:geometricPrecision; text-rendering:geometricPrecision; image-rendering:optimizeQuality; fill-rule:evenodd; clip-rule:evenodd" xmlns:xlink="http://www.w3.org/1999/xlink">
<g><path style="opacity:1" fill="#3c3b6e" d="M -0.5,-0.5 C 82.8333,-0.5 166.167,-0.5 249.5,-0.5C 249.5,12.1667 249.5,24.8333 249.5,37.5C 249.5,50.5 249.5,63.5 249.5,76.5C 249.5,89.1667 249.5,101.833 249.5,114.5C 249.5,127.5 249.5,140.5 249.5,153.5C 249.5,166.167 249.5,178.833 249.5,191.5C 249.5,204.5 249.5,217.5 249.5,230.5C 249.5,243.167 249.5,255.833 249.5,268.5C 166.167,268.5 82.8333,268.5 -0.5,268.5C -0.5,253.5 -0.5,238.5 -0.5,223.5C 1.39245,224.702 3.22578,226.035 5,227.5C 4.81541,224.095 3.98207,220.761 2.5,217.5C 4.26608,214.792 6.59941,212.792 9.5,211.5C 10.0431,211.44 10.3764,211.107 10.5,210.5C 6.89272,209.511 3.22605,209.177 -0.5,209.5C -0.5,196.167 -0.5,182.833 -0.5,169.5C 1.17496,171.002 3.0083,172.335 5,173.5C 4.61306,170.319 3.77973,167.152 2.5,164C 4.69204,161.22 7.3587,158.886 10.5,157C 6.84841,156.501 3.18174,156.335 -0.5,156.5C -0.5,143.167 -0.5,129.833 -0.5,116.5C 1.39362,117.048 3.06028,118.048 4.5,119.5C 4.83333,119.167 5.16667,118.833 5.5,118.5C 4.40143,115.704 3.40143,112.871 2.5,110C 4.69204,107.22 7.3587,104.886 10.5,103C 6.84841,102.501 3.18174,102.335 -0.5,102.5C -0.5,89.1667 -0.5,75.8333 -0.5,62.5C 1.39362,63.0476 3.06028,64.0476 4.5,65.5C 4.83333,65.1667 5.16667,64.8333 5.5,64.5C 4.40143,61.7044 3.40143,58.8711 2.5,56C 4.80797,53.3653 7.47463,51.032 10.5,49C 6.84841,48.5014 3.18174,48.3347 -0.5,48.5C -0.5,32.1667 -0.5,15.8333 -0.5,-0.5 Z"/></g>
<g><path style="opacity:1" fill="#b12233" d="M 249.5,-0.5 C 332.833,-0.5 416.167,-0.5 499.5,-0.5C 499.5,12.1667 499.5,24.8333 499.5,37.5C 416.167,37.5 332.833,37.5 249.5,37.5C 249.5,24.8333 249.5,12.1667 249.5,-0.5 Z"/></g>
<g><path style="opacity:1" fill="#f5f5f7" d="M 27.5,11.5 C 29.1981,14.2314 30.5315,17.2314 31.5,20.5C 35.1224,21.3253 38.789,21.8253 42.5,22C 40,23.8333 37.5,25.6667 35,27.5C 35.3333,31.1667 35.6667,34.8333 36,38.5C 33.3333,36.5 30.6667,34.5 28,32.5C 25.3333,34.5 22.6667,36.5 20,38.5C 20.3333,34.8333 20.6667,31.1667 21,27.5C 18.5,25.6667 16,23.8333 13.5,22C 17.1516,21.5014 20.8183,21.3347 24.5,21.5C 25.1009,18.0321 26.1009,14.6988 27.5,11.5 Z"/></g>
<g><path style="opacity:1" fill="#f5f5f7" d="M 90.5,11.5 C 92.7851,14.335 94.1184,17.6684 94.5,21.5C 98.1817,21.3347 101.848,21.5014 105.5,22C 102.475,24.032 99.808,26.3653 97.5,29C 98.9823,32.4255 99.8157,35.9255 100,39.5C 97,37.1667 94,34.8333 91,32.5C 82.1805,41.6694 80.3471,40.5027 85.5,29C 82.7122,26.4341 79.7122,24.1007 76.5,22C 80.211,21.8253 83.8776,21.3253 87.5,20.5C 88.7054,17.5504 89.7054,14.5504 90.5,11.5 Z"/></g>
<g><path style="opacity:1" fill="#f5f5f7" d="M 217.5,11.5 C 219.198,14.2314 220.531,17.2314 221.5,20.5C 225.122,21.3253 228.789,21.8253 232.5,22C 229.288,24.1007 226.288,26.4341 223.5,29C 225.355,31.9208 226.188,35.0875 226,38.5C 223.305,36.3056 220.472,34.3056 217.5,32.5C 215.116,34.8847 212.45,36.8847 209.5,38.5C 209.167,38.1667 208.833,37.8333 208.5,37.5C 210.08,34.2772 210.914,30.9438 211,27.5C 208.5,25.6667 206,23.8333 203.5,22C 207.152,21.5014 210.818,21.3347 214.5,21.5C 215.101,18.0321 216.101,14.6988 217.5,11.5 Z"/></g>
<g><path style="opacity:1" fill="#f5f5f7" d="M 153.5,11.5 C 156.16,14.113 157.493,17.4463 157.5,21.5C 161.182,21.3347 164.848,21.5014 168.5,22C 165.517,23.9841 162.85,26.3174 160.5,29C 162.178,32.0187 163.011,35.1853 163,38.5C 160.079,36.6229 157.246,34.6229 154.5,32.5C 151.833,34.5 149.167,36.5 146.5,38.5C 146.053,35.1124 146.719,31.779 148.5,28.5C 145.978,26.144 143.312,23.9773 140.5,22C 144.152,21.5014 147.818,21.3347 151.5,21.5C 151.959,18.1226 152.626,14.7893 153.5,11.5 Z"/></g>
<g><path style="opacity:1" fill="#fefefe" d="M 249.5,37.5 C 332.833,37.5 416.167,37.5 499.5,37.5C 499.5,50.5 499.5,63.5 499.5,76.5C 416.167,76.5 332.833,76.5 249.5,76.5C 249.5,63.5 249.5,50.5 249.5,37.5 Z"/></g>
<g><path style="opacity:1" fill="#f3f3f6" d="M 122.5,38.5 C 124.198,41.2314 125.531,44.2314 126.5,47.5C 130.122,48.3253 133.789,48.8253 137.5,49C 135,50.8333 132.5,52.6667 130,54.5C 130.333,58.1667 130.667,61.8333 131,65.5C 128.333,63.5 125.667,61.5 123,59.5C 120.305,61.6944 117.472,63.6944 114.5,65.5C 114.167,65.1667 113.833,64.8333 113.5,64.5C 115.08,61.2772 115.914,57.9438 116,54.5C 113.5,52.6667 111,50.8333 108.5,49C 112.152,48.5014 115.818,48.3347 119.5,48.5C 120.101,45.0321 121.101,41.6988 122.5,38.5 Z"/></g>
<g><path style="opacity:1" fill="#f4f3f6" d="M 185.5,38.5 C 187.785,41.335 189.118,44.6684 189.5,48.5C 193.182,48.3347 196.848,48.5014 200.5,49C 197.475,51.032 194.808,53.3653 192.5,56C 193.401,58.8711 194.401,61.7044 195.5,64.5C 194.998,65.521 194.332,65.6877 193.5,65C 191.089,63.0445 188.589,61.2112 186,59.5C 183.333,61.5 180.667,63.5 178,65.5C 178.333,61.8333 178.667,58.1667 179,54.5C 176.5,52.6667 174,50.8333 171.5,49C 175.211,48.8253 178.878,48.3253 182.5,47.5C 183.705,44.5504 184.705,41.5504 185.5,38.5 Z"/></g>
<g><path style="opacity:1" fill="#f5f5f8" d="M 58.5,38.5 C 59.4972,38.4701 60.1639,38.9701 60.5,40C 61.3084,42.7609 62.3084,45.4276 63.5,48C 66.8333,48.3333 70.1667,48.6667 73.5,49C 70.6884,50.9773 68.0217,53.144 65.5,55.5C 67.0802,58.7228 67.9135,62.0562 68,65.5C 65.3053,63.3056 62.472,61.3056 59.5,59.5C 56.8333,61.5 54.1667,63.5 51.5,65.5C 51.1667,65.1667 50.8333,64.8333 50.5,64.5C 51.6544,61.5482 52.6544,58.5482 53.5,55.5C 51.0029,53.1741 48.3362,51.0074 45.5,49C 49.1516,48.5014 52.8183,48.3347 56.5,48.5C 56.9595,45.1226 57.6261,41.7893 58.5,38.5 Z"/></g>
<g><path style="opacity:1" fill="#f4f4f6" d="M -0.5,48.5 C 3.18174,48.3347 6.84841,48.5014 10.5,49C 7.47463,51.032 4.80797,53.3653 2.5,56C 3.40143,58.8711 4.40143,61.7044 5.5,64.5C 5.16667,64.8333 4.83333,65.1667 4.5,65.5C 3.06028,64.0476 1.39362,63.0476 -0.5,62.5C -0.5,57.8333 -0.5,53.1667 -0.5,48.5 Z"/></g>
<g><path style="opacity:1" fill="#f4f4f7" d="M 27.5,65.5 C 29.5728,68.0432 30.9062,71.0432 31.5,74.5C 35.1224,75.3253 38.789,75.8253 42.5,76C 40,77.8333 37.5,79.6667 35,81.5C 35.3333,85.1667 35.6667,88.8333 36,92.5C 33.3333,90.5 30.6667,88.5 28,86.5C 24.8957,88.7905 21.729,90.6239 18.5,92C 20.2094,88.6645 21.0427,85.1645 21,81.5C 18.5,79.6667 16,77.8333 13.5,76C 17.1516,75.5014 20.8183,75.3347 24.5,75.5C 25.1009,72.0321 26.1009,68.6988 27.5,65.5 Z"/></g>
<g><path style="opacity:1" fill="#f5f5f7" d="M 90.5,65.5 C 92.7851,68.335 94.1184,71.6684 94.5,75.5C 98.1817,75.3347 101.848,75.5014 105.5,76C 102.475,78.032 99.808,80.3653 97.5,83C 98.4014,85.8711 99.4014,88.7044 100.5,91.5C 99.9984,92.521 99.3317,92.6877 98.5,92C 96.1667,90.1667 93.8333,88.3333 91.5,86.5C 88.528,88.3056 85.6947,90.3056 83,92.5C 82.6837,88.9359 83.5171,85.6026 85.5,82.5C 82.8534,79.8434 79.8534,77.6768 76.5,76C 80.211,75.8253 83.8776,75.3253 87.5,74.5C 88.7054,71.5504 89.7054,68.5504 90.5,65.5 Z"/></g>
<g><path style="opacity:1" fill="#f5f5f8" d="M 217.5,65.5 C 219.198,68.2314 220.531,71.2314 221.5,74.5C 225.122,75.3253 228.789,75.8253 232.5,76C 229.147,77.6768 226.147,79.8434 223.5,82.5C 225.483,85.6026 226.316,88.9359 226,92.5C 223.305,90.3056 220.472,88.3056 217.5,86.5C 214.833,88.5 212.167,90.5 209.5,92.5C 209.167,92.1667 208.833,91.8333 208.5,91.5C 210.08,88.2772 210.914,84.9438 211,81.5C 208.5,79.6667 206,77.8333 203.5,76C 207.152,75.5014 210.818,75.3347 214.5,75.5C 215.101,72.0321 216.101,68.6988 217.5,65.5 Z"/></g>
<g><path style="opacity:1" fill="#f5f5f8" d="M 153.5,65.5 C 156.16,68.113 157.493,71.4463 157.5,75.5C 169.862,73.9062 171.029,75.9062 161,81.5C 161.866,85.1077 162.533,88.7744 163,92.5C 160.305,90.3056 157.472,88.3056 154.5,86.5C 151.55,88.1153 148.884,90.1153 146.5,92.5C 146.167,92 145.833,91.5 145.5,91C 146.838,87.8674 147.671,84.7008 148,81.5C 137.971,75.9062 139.138,73.9062 151.5,75.5C 151.959,72.1226 152.626,68.7893 153.5,65.5 Z"/></g>
<g><path style="opacity:1" fill="#b12233" d="M 249.5,76.5 C 332.833,76.5 416.167,76.5 499.5,76.5C 499.5,89.1667 499.5,101.833 499.5,114.5C 416.167,114.5 332.833,114.5 249.5,114.5C 249.5,101.833 249.5,89.1667 249.5,76.5 Z"/></g>
<g><path style="opacity:1" fill="#f5f5f7" d="M 122.5,92.5 C 124.198,95.2314 125.531,98.2314 126.5,101.5C 129.785,102.324 133.118,102.824 136.5,103C 133.688,104.977 131.022,107.144 128.5,109.5C 130.483,112.603 131.316,115.936 131,119.5C 128.305,117.306 125.472,115.306 122.5,113.5C 119.833,115.5 117.167,117.5 114.5,119.5C 114.167,119.167 113.833,118.833 113.5,118.5C 115.08,115.277 115.914,111.944 116,108.5C 113.5,106.667 111,104.833 108.5,103C 112.152,102.501 115.818,102.335 119.5,102.5C 120.101,99.0321 121.101,95.6988 122.5,92.5 Z"/></g>
<g><path style="opacity:1" fill="#f5f4f7" d="M 185.5,92.5 C 187.785,95.335 189.118,98.6684 189.5,102.5C 193.182,102.335 196.848,102.501 200.5,103C 197.359,104.886 194.692,107.22 192.5,110C 193.401,112.871 194.401,115.704 195.5,118.5C 194.998,119.521 194.332,119.688 193.5,119C 191.167,117.167 188.833,115.333 186.5,113.5C 183.528,115.306 180.695,117.306 178,119.5C 178.333,115.833 178.667,112.167 179,108.5C 176.926,106.548 174.759,104.715 172.5,103C 175.882,102.824 179.215,102.324 182.5,101.5C 183.705,98.5504 184.705,95.5504 185.5,92.5 Z"/></g>
<g><path style="opacity:1" fill="#f5f4f7" d="M 58.5,92.5 C 59.3764,92.3691 60.0431,92.7025 60.5,93.5C 61.2728,96.4308 62.2728,99.2641 63.5,102C 66.8333,102.333 70.1667,102.667 73.5,103C 71.0888,104.955 68.5888,106.789 66,108.5C 66.8659,112.108 67.5326,115.774 68,119.5C 65.3053,117.306 62.472,115.306 59.5,113.5C 56.5505,115.115 53.8838,117.115 51.5,119.5C 51.0525,116.112 51.7192,112.779 53.5,109.5C 51.0029,107.174 48.3362,105.007 45.5,103C 49.1516,102.501 52.8183,102.335 56.5,102.5C 56.9595,99.1226 57.6261,95.7893 58.5,92.5 Z"/></g>
<g><path style="opacity:1" fill="#f4f3f6" d="M -0.5,102.5 C 3.18174,102.335 6.84841,102.501 10.5,103C 7.3587,104.886 4.69204,107.22 2.5,110C 3.40143,112.871 4.40143,115.704 5.5,118.5C 5.16667,118.833 4.83333,119.167 4.5,119.5C 3.06028,118.048 1.39362,117.048 -0.5,116.5C -0.5,111.833 -0.5,107.167 -0.5,102.5 Z"/></g>
<g><path style="opacity:1" fill="#fefefe" d="M 249.5,114.5 C 332.833,114.5 416.167,114.5 499.5,114.5C 499.5,127.5 499.5,140.5 499.5,153.5C 416.167,153.5 332.833,153.5 249.5,153.5C 249.5,140.5 249.5,127.5 249.5,114.5 Z"/></g>
<g><path style="opacity:1" fill="#f3f2f6" d="M 27.5,118.5 C 29.6013,121.797 30.9347,125.463 31.5,129.5C 34.8499,129.335 38.1832,129.502 41.5,130C 39.2406,131.715 37.0739,133.548 35,135.5C 34.7884,139.209 35.6217,142.709 37.5,146C 37.1667,146.167 36.8333,146.333 36.5,146.5C 33.672,144.252 30.672,142.252 27.5,140.5C 25.1667,142.333 22.8333,144.167 20.5,146C 19.6683,146.688 19.0016,146.521 18.5,145.5C 19.5986,142.704 20.5986,139.871 21.5,137C 19.4655,134.46 17.1322,132.127 14.5,130C 17.8168,129.502 21.1501,129.335 24.5,129.5C 25.2967,125.777 26.2967,122.11 27.5,118.5 Z"/></g>
<g><path style="opacity:1" fill="#f4f4f7" d="M 90.5,118.5 C 92.8846,121.653 94.2179,125.32 94.5,129.5C 98.1817,129.335 101.848,129.501 105.5,130C 102.359,131.886 99.692,134.22 97.5,137C 98.4014,139.871 99.4014,142.704 100.5,145.5C 99.9984,146.521 99.3317,146.688 98.5,146C 96.5296,143.684 94.1963,141.851 91.5,140.5C 88.528,142.306 85.6947,144.306 83,146.5C 82.6837,142.936 83.5171,139.603 85.5,136.5C 83.0029,134.174 80.3362,132.007 77.5,130C 80.8818,129.824 84.2152,129.324 87.5,128.5C 88.9094,125.273 89.9094,121.94 90.5,118.5 Z"/></g>
<g><path style="opacity:1" fill="#f4f4f7" d="M 217.5,118.5 C 219.002,121.654 220.336,124.987 221.5,128.5C 224.785,129.324 228.118,129.824 231.5,130C 228.688,131.977 226.022,134.144 223.5,136.5C 225.483,139.603 226.316,142.936 226,146.5C 223.305,144.306 220.472,142.306 217.5,140.5C 214.833,142.5 212.167,144.5 209.5,146.5C 209.167,146.167 208.833,145.833 208.5,145.5C 210.08,142.277 210.914,138.944 211,135.5C 208.5,133.667 206,131.833 203.5,130C 207.152,129.501 210.818,129.335 214.5,129.5C 215.303,125.761 216.303,122.095 217.5,118.5 Z"/></g>
<g><path style="opacity:1" fill="#f5f5f8" d="M 153.5,119.5 C 154.497,119.47 155.164,119.97 155.5,121C 156.308,123.761 157.308,126.428 158.5,129C 161.833,129.333 165.167,129.667 168.5,130C 165.664,132.007 162.997,134.174 160.5,136.5C 162.08,139.723 162.914,143.056 163,146.5C 160.305,144.306 157.472,142.306 154.5,140.5C 151.528,142.306 148.695,144.306 146,146.5C 146.086,143.056 146.92,139.723 148.5,136.5C 146.003,134.174 143.336,132.007 140.5,130C 144.152,129.501 147.818,129.335 151.5,129.5C 151.959,126.123 152.626,122.789 153.5,119.5 Z"/></g>
<g><path style="opacity:1" fill="#f4f3f6" d="M 58.5,145.5 C 59.4972,145.47 60.1639,145.97 60.5,147C 61.5049,150.029 62.5049,153.029 63.5,156C 66.8333,156.333 70.1667,156.667 73.5,157C 70.6638,159.007 67.9971,161.174 65.5,163.5C 67.0802,166.723 67.9135,170.056 68,173.5C 65.3053,171.306 62.472,169.306 59.5,167.5C 56.528,169.306 53.6947,171.306 51,173.5C 51.0865,170.056 51.9198,166.723 53.5,163.5C 51.0562,161.105 48.3895,158.938 45.5,157C 49.1516,156.501 52.8183,156.335 56.5,156.5C 57.1667,152.833 57.8333,149.167 58.5,145.5 Z"/></g>
<g><path style="opacity:1" fill="#f5f5f8" d="M 122.5,145.5 C 124.397,148.505 125.73,151.838 126.5,155.5C 129.785,156.324 133.118,156.824 136.5,157C 133.664,159.007 130.997,161.174 128.5,163.5C 130.475,166.374 131.142,169.374 130.5,172.5C 127.897,170.951 125.397,169.285 123,167.5C 119.761,168.902 116.928,170.902 114.5,173.5C 114.167,173.167 113.833,172.833 113.5,172.5C 114.599,169.704 115.599,166.871 116.5,164C 114.846,161.013 112.513,158.679 109.5,157C 112.817,156.502 116.15,156.335 119.5,156.5C 120.297,152.777 121.297,149.11 122.5,145.5 Z"/></g>
<g><path style="opacity:1" fill="#f4f4f7" d="M 185.5,145.5 C 186.117,145.611 186.617,145.944 187,146.5C 187.943,149.824 188.776,153.157 189.5,156.5C 192.85,156.335 196.183,156.502 199.5,157C 196.868,159.127 194.534,161.46 192.5,164C 193.401,166.871 194.401,169.704 195.5,172.5C 194.998,173.521 194.332,173.688 193.5,173C 191.53,170.684 189.196,168.851 186.5,167.5C 183.147,169.669 179.813,171.502 176.5,173C 177.732,169.81 179.065,166.643 180.5,163.5C 178.003,161.174 175.336,159.007 172.5,157C 175.882,156.824 179.215,156.324 182.5,155.5C 183.813,152.246 184.813,148.912 185.5,145.5 Z"/></g>
<g><path style="opacity:1" fill="#b12233" d="M 249.5,153.5 C 332.833,153.5 416.167,153.5 499.5,153.5C 499.5,166.167 499.5,178.833 499.5,191.5C 416.167,191.5 332.833,191.5 249.5,191.5C 249.5,178.833 249.5,166.167 249.5,153.5 Z"/></g>
<g><path style="opacity:1" fill="#f5f5f7" d="M -0.5,156.5 C 3.18174,156.335 6.84841,156.501 10.5,157C 7.3587,158.886 4.69204,161.22 2.5,164C 3.77973,167.152 4.61306,170.319 5,173.5C 3.0083,172.335 1.17496,171.002 -0.5,169.5C -0.5,165.167 -0.5,160.833 -0.5,156.5 Z"/></g>
<g><path style="opacity:1" fill="#f4f4f7" d="M 31.5,182.5 C 34.8333,183.167 38.1667,183.833 41.5,184.5C 38.3455,185.822 36.0122,187.989 34.5,191C 35.1058,194.151 36.1058,197.151 37.5,200C 37.1667,200.167 36.8333,200.333 36.5,200.5C 33.7373,198.371 30.904,196.371 28,194.5C 25.2588,195.789 22.7588,197.455 20.5,199.5C 20.1667,198.833 19.8333,198.167 19.5,197.5C 20.5533,194.869 21.0533,192.202 21,189.5C 19.0737,187.461 16.907,185.794 14.5,184.5C 17.8333,183.833 21.1667,183.167 24.5,182.5C 25.3634,179.077 26.5301,175.744 28,172.5C 29.4699,175.744 30.6366,179.077 31.5,182.5 Z"/></g>
<g><path style="opacity:1" fill="#f4f4f7" d="M 94.5,182.5 C 97.8333,183.167 101.167,183.833 104.5,184.5C 101.371,185.795 99.0376,187.962 97.5,191C 98.7797,194.152 99.6131,197.319 100,200.5C 97.2615,198.093 94.2615,196.093 91,194.5C 88.4285,196.206 85.9285,198.039 83.5,200C 82.8333,200.667 82.1667,200.667 81.5,200C 82.8333,196.667 84.1667,193.333 85.5,190C 82.9528,187.946 80.2861,186.113 77.5,184.5C 80.8333,183.833 84.1667,183.167 87.5,182.5C 88.7563,179.233 89.923,175.899 91,172.5C 92.8575,175.572 94.0242,178.905 94.5,182.5 Z"/></g>
<g><path style="opacity:1" fill="#f4f4f7" d="M 221.5,182.5 C 224.833,183.167 228.167,183.833 231.5,184.5C 228.545,186.122 225.878,188.122 223.5,190.5C 225.475,193.374 226.142,196.374 225.5,199.5C 222.897,197.951 220.397,196.285 218,194.5C 214.738,196.093 211.738,198.093 209,200.5C 209.387,197.319 210.22,194.152 211.5,191C 209.962,187.962 207.629,185.795 204.5,184.5C 207.833,183.833 211.167,183.167 214.5,182.5C 216.793,169.21 219.126,169.21 221.5,182.5 Z"/></g>
<g><path style="opacity:1" fill="#ededf2" d="M 153.5,172.5 C 156.16,175.113 157.493,178.446 157.5,182.5C 161.514,182.334 165.514,182.501 169.5,183C 166.329,185.341 163.329,187.841 160.5,190.5C 162.08,193.723 162.914,197.056 163,200.5C 160.305,198.306 157.472,196.306 154.5,194.5C 151.528,196.306 148.695,198.306 146,200.5C 146.086,197.056 146.92,193.723 148.5,190.5C 145.671,187.841 142.671,185.341 139.5,183C 143.486,182.501 147.486,182.334 151.5,182.5C 152.167,179.167 152.833,175.833 153.5,172.5 Z"/></g>
<g><path style="opacity:1" fill="#9d9cb6" d="M 24.5,182.5 C 21.1667,183.167 17.8333,183.833 14.5,184.5C 13.9569,184.44 13.6236,184.107 13.5,183.5C 17.1073,182.511 20.774,182.177 24.5,182.5 Z"/></g>
<g><path style="opacity:1" fill="#9b9ab4" d="M 31.5,182.5 C 35.226,182.177 38.8927,182.511 42.5,183.5C 42.3764,184.107 42.0431,184.44 41.5,184.5C 38.1667,183.833 34.8333,183.167 31.5,182.5 Z"/></g>
<g><path style="opacity:1" fill="#9a99b4" d="M 87.5,182.5 C 84.1667,183.167 80.8333,183.833 77.5,184.5C 76.9569,184.44 76.6236,184.107 76.5,183.5C 80.1073,182.511 83.774,182.177 87.5,182.5 Z"/></g>
<g><path style="opacity:1" fill="#9c9cb6" d="M 94.5,182.5 C 98.5138,182.334 102.514,182.501 106.5,183C 105.956,183.717 105.289,184.217 104.5,184.5C 101.167,183.833 97.8333,183.167 94.5,182.5 Z"/></g>
<g><path style="opacity:1" fill="#9c9bb5" d="M 214.5,182.5 C 211.167,183.167 207.833,183.833 204.5,184.5C 203.711,184.217 203.044,183.717 202.5,183C 206.486,182.501 210.486,182.334 214.5,182.5 Z"/></g>
<g><path style="opacity:1" fill="#9a99b4" d="M 221.5,182.5 C 225.226,182.177 228.893,182.511 232.5,183.5C 232.376,184.107 232.043,184.44 231.5,184.5C 228.167,183.833 224.833,183.167 221.5,182.5 Z"/></g>
<g><path style="opacity:1" fill="#fefefe" d="M 249.5,191.5 C 332.833,191.5 416.167,191.5 499.5,191.5C 499.5,204.5 499.5,217.5 499.5,230.5C 416.167,230.5 332.833,230.5 249.5,230.5C 249.5,217.5 249.5,204.5 249.5,191.5 Z"/></g>
<g><path style="opacity:1" fill="#f0f0f4" d="M 109.5,211.5 C 112.833,210.833 116.167,210.167 119.5,209.5C 121.219,197.045 123.553,196.711 126.5,208.5C 130.122,209.325 133.789,209.825 137.5,210C 134.5,212.333 131.5,214.667 128.5,217C 133.483,227.46 131.65,228.96 123,221.5C 119.738,223.093 116.738,225.093 114,227.5C 114.387,224.319 115.22,221.152 116.5,218C 114.962,214.962 112.629,212.795 109.5,211.5 Z"/></g>
<g><path style="opacity:1" fill="#f0eff3" d="M 189.5,209.5 C 192.833,210.167 196.167,210.833 199.5,211.5C 196.371,212.795 194.038,214.962 192.5,218C 193.78,221.152 194.613,224.319 195,227.5C 192.262,225.093 189.262,223.093 186,221.5C 183.096,223.371 180.263,225.371 177.5,227.5C 177.679,224.085 178.679,220.585 180.5,217C 177.5,214.667 174.5,212.333 171.5,210C 175.211,209.825 178.878,209.325 182.5,208.5C 185.448,196.712 187.782,197.046 189.5,209.5 Z"/></g>
<g><path style="opacity:1" fill="#f5f5f7" d="M 63.5,209.5 C 66.5,210.167 69.5,210.833 72.5,211.5C 69.9714,213.265 67.6381,215.265 65.5,217.5C 67.0802,220.723 67.9135,224.056 68,227.5C 65.4298,225.131 62.5964,223.131 59.5,221.5C 56.528,223.306 53.6947,225.306 51,227.5C 51.0865,224.056 51.9198,220.723 53.5,217.5C 51.3619,215.265 49.0286,213.265 46.5,211.5C 49.5,210.833 52.5,210.167 55.5,209.5C 57.0037,206.341 58.337,203.007 59.5,199.5C 61.0564,202.855 62.3898,206.188 63.5,209.5 Z"/></g>
<g><path style="opacity:1" fill="#9f9eb8" d="M -0.5,210.5 C -0.5,210.167 -0.5,209.833 -0.5,209.5C 3.22605,209.177 6.89272,209.511 10.5,210.5C 10.3764,211.107 10.0431,211.44 9.5,211.5C 6.37518,210.521 3.04185,210.187 -0.5,210.5 Z"/></g>
<g><path style="opacity:1" fill="#9c9bb6" d="M 55.5,209.5 C 52.5,210.167 49.5,210.833 46.5,211.5C 45.7109,211.217 45.0442,210.717 44.5,210C 48.1516,209.501 51.8183,209.335 55.5,209.5 Z"/></g>
<g><path style="opacity:1" fill="#9e9db7" d="M 63.5,209.5 C 67.1817,209.335 70.8484,209.501 74.5,210C 73.9558,210.717 73.2891,211.217 72.5,211.5C 69.5,210.833 66.5,210.167 63.5,209.5 Z"/></g>
<g><path style="opacity:1" fill="#9c9cb6" d="M 119.5,209.5 C 116.167,210.167 112.833,210.833 109.5,211.5C 108.957,211.44 108.624,211.107 108.5,210.5C 112.107,209.511 115.774,209.177 119.5,209.5 Z"/></g>
<g><path style="opacity:1" fill="#9d9db6" d="M 189.5,209.5 C 193.226,209.177 196.893,209.511 200.5,210.5C 200.376,211.107 200.043,211.44 199.5,211.5C 196.167,210.833 192.833,210.167 189.5,209.5 Z"/></g>
<g><path style="opacity:1" fill="#f3f3f6" d="M -0.5,210.5 C 3.04185,210.187 6.37518,210.521 9.5,211.5C 6.59941,212.792 4.26608,214.792 2.5,217.5C 3.98207,220.761 4.81541,224.095 5,227.5C 3.22578,226.035 1.39245,224.702 -0.5,223.5C -0.5,219.167 -0.5,214.833 -0.5,210.5 Z"/></g>
<g><path style="opacity:1" fill="#f1f1f4" d="M 14.5,238.5 C 17.8333,237.833 21.1667,237.167 24.5,236.5C 25.3634,233.077 26.5301,229.744 28,226.5C 29.2647,229.461 30.4314,232.461 31.5,235.5C 35.1224,236.325 38.789,236.825 42.5,237C 39.3283,239.006 36.6617,241.506 34.5,244.5C 35.0888,247.022 35.7554,249.522 36.5,252C 36.1667,252.5 35.8333,253 35.5,253.5C 33.2412,251.455 30.7412,249.789 28,248.5C 24.7385,250.093 21.7385,252.093 19,254.5C 19.487,251.182 20.3203,247.848 21.5,244.5C 19.7865,241.787 17.4532,239.787 14.5,238.5 Z"/></g>
<g><path style="opacity:1" fill="#f0f0f4" d="M 94.5,236.5 C 97.8333,237.167 101.167,237.833 104.5,238.5C 101.371,239.795 99.0376,241.962 97.5,245C 98.7797,248.152 99.6131,251.319 100,254.5C 97.2615,252.093 94.2615,250.093 91,248.5C 88.096,250.371 85.2627,252.371 82.5,254.5C 82.6789,251.085 83.6789,247.585 85.5,244C 82.5,241.667 79.5,239.333 76.5,237C 80.1667,236.667 83.8333,236.333 87.5,236C 90.1494,223.447 92.4828,223.614 94.5,236.5 Z"/></g>
<g><path style="opacity:1" fill="#f3f3f6" d="M 158.5,236.5 C 161.5,237.167 164.5,237.833 167.5,238.5C 164.971,240.265 162.638,242.265 160.5,244.5C 162.08,247.723 162.914,251.056 163,254.5C 160.43,252.131 157.596,250.131 154.5,248.5C 151.404,250.131 148.57,252.131 146,254.5C 146.086,251.056 146.92,247.723 148.5,244.5C 146.362,242.265 144.029,240.265 141.5,238.5C 144.5,237.833 147.5,237.167 150.5,236.5C 151.61,233.188 152.944,229.855 154.5,226.5C 156.056,229.855 157.39,233.188 158.5,236.5 Z"/></g>
<g><path style="opacity:1" fill="#f1f1f5" d="M 204.5,238.5 C 207.833,237.833 211.167,237.167 214.5,236.5C 216.517,223.614 218.851,223.447 221.5,236C 225.167,236.333 228.833,236.667 232.5,237C 229.329,239.341 226.329,241.841 223.5,244.5C 225.475,247.374 226.142,250.374 225.5,253.5C 223.241,251.455 220.741,249.789 218,248.5C 214.738,250.093 211.738,252.093 209,254.5C 209.487,251.182 210.32,247.848 211.5,244.5C 209.775,241.802 207.441,239.802 204.5,238.5 Z"/></g>
<g><path style="opacity:1" fill="#b12233" d="M 249.5,230.5 C 332.833,230.5 416.167,230.5 499.5,230.5C 499.5,243.167 499.5,255.833 499.5,268.5C 416.167,268.5 332.833,268.5 249.5,268.5C 249.5,255.833 249.5,243.167 249.5,230.5 Z"/></g>
<g><path style="opacity:1" fill="#9b9ab4" d="M 24.5,236.5 C 21.1667,237.167 17.8333,237.833 14.5,238.5C 13.9569,238.44 13.6236,238.107 13.5,237.5C 17.1073,236.511 20.774,236.177 24.5,236.5 Z"/></g>
<g><path style="opacity:1" fill="#9d9db6" d="M 94.5,236.5 C 98.226,236.177 101.893,236.511 105.5,237.5C 105.376,238.107 105.043,238.44 104.5,238.5C 101.167,237.833 97.8333,237.167 94.5,236.5 Z"/></g>
<g><path style="opacity:1" fill="#9c9bb5" d="M 150.5,236.5 C 147.5,237.167 144.5,237.833 141.5,238.5C 140.711,238.217 140.044,237.717 139.5,237C 143.152,236.501 146.818,236.335 150.5,236.5 Z"/></g>
<g><path style="opacity:1" fill="#9c9bb5" d="M 158.5,236.5 C 162.182,236.335 165.848,236.501 169.5,237C 168.956,237.717 168.289,238.217 167.5,238.5C 164.5,237.833 161.5,237.167 158.5,236.5 Z"/></g>
<g><path style="opacity:1" fill="#9d9db6" d="M 214.5,236.5 C 211.167,237.167 207.833,237.833 204.5,238.5C 203.957,238.44 203.624,238.107 203.5,237.5C 207.107,236.511 210.774,236.177 214.5,236.5 Z"/></g>
<g><path style="opacity:1" fill="#fefdfd" d="M -0.5,268.5 C 82.8333,268.5 166.167,268.5 249.5,268.5C 332.833,268.5 416.167,268.5 499.5,268.5C 499.5,281.5 499.5,294.5 499.5,307.5C 332.833,307.5 166.167,307.5 -0.5,307.5C -0.5,294.5 -0.5,281.5 -0.5,268.5 Z"/></g>
<g><path style="opacity:1" fill="#b12233" d="M -0.5,307.5 C 166.167,307.5 332.833,307.5 499.5,307.5C 499.5,320.167 499.5,332.833 499.5,345.5C 332.833,345.5 166.167,345.5 -0.5,345.5C -0.5,332.833 -0.5,320.167 -0.5,307.5 Z"/></g>
<g><path style="opacity:1" fill="#fefefe" d="M -0.5,345.5 C 166.167,345.5 332.833,345.5 499.5,345.5C 499.5,358.5 499.5,371.5 499.5,384.5C 332.833,384.5 166.167,384.5 -0.5,384.5C -0.5,371.5 -0.5,358.5 -0.5,345.5 Z"/></g>
<g><path style="opacity:1" fill="#b12233" d="M -0.5,384.5 C 166.167,384.5 332.833,384.5 499.5,384.5C 499.5,397.167 499.5,409.833 499.5,422.5C 332.833,422.5 166.167,422.5 -0.5,422.5C -0.5,409.833 -0.5,397.167 -0.5,384.5 Z"/></g>
<g><path style="opacity:1" fill="#fefefe" d="M -0.5,422.5 C 166.167,422.5 332.833,422.5 499.5,422.5C 499.5,435.5 499.5,448.5 499.5,461.5C 332.833,461.5 166.167,461.5 -0.5,461.5C -0.5,448.5 -0.5,435.5 -0.5,422.5 Z"/></g>
<g><path style="opacity:1" fill="#b12233" d="M -0.5,461.5 C 166.167,461.5 332.833,461.5 499.5,461.5C 499.5,474.167 499.5,486.833 499.5,499.5C 332.833,499.5 166.167,499.5 -0.5,499.5C -0.5,486.833 -0.5,474.167 -0.5,461.5 Z"/></g>
</svg>
