<svg width="368" height="210" viewBox="0 0 368 210" fill="none" xmlns="http://www.w3.org/2000/svg">
<path d="M-178.346 234.784C-183.335 236.388 -185.305 237.234 -186.163 239.775C-187.077 242.466 -189.595 244.166 -192.289 244.166C-192.974 244.166 -193.677 244.055 -194.364 243.82C-197.748 242.673 -199.559 239.002 -198.413 235.619C-195.379 226.674 -187.822 224.245 -182.303 222.474C-177.315 220.87 -175.345 220.023 -174.486 217.482C-173.632 214.973 -174.679 213.14 -177.656 208.91C-180.985 204.183 -185.545 197.707 -182.505 188.738C-179.465 179.795 -171.91 177.371 -166.395 175.601C-161.407 174.002 -159.445 173.158 -158.586 170.625C-157.441 167.245 -153.749 165.43 -150.385 166.58C-147.001 167.727 -145.192 171.397 -146.337 174.781C-149.372 183.721 -156.927 186.145 -162.442 187.915C-167.43 189.514 -169.397 190.357 -170.26 192.894C-171.11 195.402 -170.061 197.235 -167.086 201.465C-163.755 206.192 -159.197 212.668 -162.237 221.638C-165.272 230.584 -172.827 233.013 -178.346 234.784ZM-160.32 268.768C-158.606 269.348 -157.194 270.134 -155.917 271H-176.528C-172.309 268.468 -167.014 266.5 -160.32 268.768ZM-194.032 268.999C-193.794 269.737 -193.574 270.389 -193.362 271H-206.998C-208.23 267.448 -209.17 265.886 -211.337 265.151C-213.839 264.307 -215.655 265.351 -219.861 268.335C-221.073 269.192 -222.403 270.129 -223.856 271H-244.394C-249.788 267.347 -251.72 261.586 -253.16 257.122C-254.769 252.127 -255.616 250.162 -258.146 249.304C-261.528 248.159 -263.343 244.489 -262.198 241.107C-261.053 237.721 -257.4 235.912 -253.999 237.056C-245.067 240.08 -242.631 247.636 -240.853 253.152C-239.242 258.147 -238.397 260.114 -235.867 260.97C-233.369 261.81 -231.545 260.762 -227.339 257.786C-222.623 254.441 -216.157 249.873 -207.191 252.902C-198.254 255.927 -195.813 263.482 -194.032 268.999ZM-216.316 209.131C-211.554 209.131 -207.694 212.991 -207.694 217.751C-207.694 222.513 -211.554 226.373 -216.316 226.373C-221.078 226.373 -224.938 222.513 -224.938 217.751C-224.938 212.991 -221.078 209.131 -216.316 209.131ZM-135.218 246.318C-135.218 251.079 -139.078 254.939 -143.84 254.939C-148.6 254.939 -152.46 251.079 -152.46 246.318C-152.46 241.556 -148.6 237.696 -143.84 237.696C-139.078 237.696 -135.218 241.556 -135.218 246.318ZM-299.18 134.002C-294.418 134.002 -290.558 137.862 -290.558 142.624C-290.558 147.384 -294.418 151.244 -299.18 151.244C-303.942 151.244 -307.8 147.384 -307.8 142.624C-307.8 137.862 -303.942 134.002 -299.18 134.002ZM-260.548 217.363C-265.705 216.507 -267.846 216.354 -269.77 218.212C-271.025 219.424 -272.646 220.026 -274.262 220.026C-275.954 220.026 -277.647 219.364 -278.914 218.051C-281.392 215.482 -281.322 211.387 -278.753 208.907C-271.959 202.351 -264.139 203.656 -258.422 204.607C-253.247 205.466 -251.126 205.614 -249.199 203.76C-247.291 201.92 -247.385 199.811 -248.095 194.686C-248.886 188.959 -249.978 181.116 -243.165 174.536C-236.372 167.977 -228.549 169.275 -222.825 170.223C-217.665 171.087 -215.522 171.231 -213.589 169.367C-211.677 167.52 -211.766 165.408 -212.473 160.278C-213.266 154.549 -214.351 146.703 -207.532 140.116C-200.741 133.559 -192.904 134.854 -187.187 135.799C-182.005 136.658 -179.879 136.807 -177.942 134.938C-175.371 132.46 -171.283 132.53 -168.8 135.099C-166.319 137.667 -166.391 141.759 -168.959 144.241C-175.758 150.802 -183.57 149.508 -189.304 148.556C-194.473 147.701 -196.611 147.55 -198.549 149.417C-200.459 151.266 -200.372 153.378 -199.663 158.508C-198.872 164.237 -197.785 172.083 -204.606 178.67C-211.405 185.24 -219.226 183.933 -224.946 182.98C-230.112 182.117 -232.255 181.972 -234.182 183.838C-236.086 185.674 -235.997 187.783 -235.285 192.908C-234.491 198.637 -233.4 206.481 -240.214 213.063C-247.005 219.62 -254.827 218.316 -260.548 217.363ZM-282.491 219.066C-278.161 227.455 -281.661 234.591 -284.215 239.798C-286.529 244.515 -287.287 246.521 -286.057 248.902C-284.42 252.077 -285.666 255.977 -288.838 257.615C-289.787 258.102 -290.8 258.337 -291.798 258.337C-294.139 258.337 -296.4 257.058 -297.549 254.835C-301.88 246.444 -298.381 239.312 -295.825 234.101C-293.513 229.387 -292.753 227.379 -293.984 224.997C-295.197 222.645 -297.241 222.128 -302.349 221.347C-305.868 220.807 -310.185 220.13 -314 217.736V166.868C-310.643 168.309 -307.441 170.712 -305.181 175.089C-300.854 183.476 -304.355 190.609 -306.912 195.814C-309.224 200.528 -309.983 202.534 -308.755 204.912C-307.544 207.264 -305.5 207.781 -300.39 208.563C-294.673 209.439 -286.841 210.639 -282.491 219.066ZM-249.488 158.246C-249.488 163.008 -253.348 166.868 -258.108 166.868C-262.87 166.868 -266.73 163.008 -266.73 158.246C-266.73 153.486 -262.87 149.626 -258.108 149.626C-253.348 149.626 -249.488 153.486 -249.488 158.246ZM17.9999 26.5167V40.0904C16.295 39.2277 14.9617 38.9675 13.4297 39.481C10.9307 40.3215 10.1125 42.2591 8.57025 47.1836C6.84146 52.7004 4.47421 60.2574 -4.50699 63.2786C-6.56445 63.9701 -8.49353 64.2628 -10.3011 64.2628C-16.3553 64.2628 -21.059 60.9883 -24.722 58.4396C-29.0286 55.4425 -30.8909 54.3915 -33.4294 55.2439C-36.8168 56.3805 -40.4832 54.5592 -41.6198 51.1752C-42.7581 47.7912 -40.9368 44.1248 -37.5511 42.9848C-28.6144 39.9688 -22.0946 44.5134 -17.3361 47.8238C-13.0278 50.8243 -11.1603 51.8787 -8.62875 51.0195C-6.1297 50.179 -5.31146 48.2414 -3.76926 43.3169C-2.04044 37.8001 0.326782 30.2431 9.30798 27.222C12.5089 26.147 15.3878 26.0631 17.9999 26.5167ZM-86.0893 270.673C-85.2198 270.766 -84.2903 270.873 -83.3421 271H-107.165C-109.777 263.994 -107.093 257.776 -105.056 253.087C-102.963 248.271 -102.299 246.234 -103.636 243.914C-104.95 241.633 -107.015 241.213 -112.148 240.676C-117.901 240.068 -125.778 239.24 -130.511 231.03C-135.223 222.857 -132.053 215.574 -129.741 210.254C-127.647 205.444 -126.98 203.407 -128.315 201.097C-130.098 198.002 -129.035 194.05 -125.941 192.264C-122.849 190.479 -118.894 191.545 -117.108 194.638C-112.398 202.812 -115.568 210.097 -117.882 215.413C-119.974 220.225 -120.641 222.262 -119.306 224.574C-117.993 226.856 -115.929 227.273 -110.794 227.812C-105.039 228.418 -97.1622 229.249 -92.4294 237.456C-87.7171 245.635 -90.8838 252.921 -93.1945 258.241C-95.2879 263.058 -95.952 265.095 -94.6152 267.414C-93.2955 269.704 -91.2278 270.127 -86.0893 270.673ZM17.9999 -47.5837V-32.9883C16.8582 -31.3964 16.8685 -29.2294 17.1937 -24.9673C17.6353 -19.2023 18.2378 -11.308 11.0179 -5.16824C3.82544 0.940765 -3.9079 -0.854828 -9.55304 -2.16769C-14.6624 -3.35391 -16.7867 -3.63971 -18.8235 -1.90576C-20.8245 -0.204346 -20.8638 1.89584 -20.465 7.03604C-20.0217 12.7975 -19.4106 20.6919 -26.6271 26.8265C-33.8076 32.9338 -41.5393 31.1383 -47.1913 29.8203C-52.299 28.6307 -54.418 28.3465 -56.4497 30.0719C-57.6633 31.1057 -59.1525 31.6107 -60.6348 31.6107C-62.4646 31.6107 -64.2842 30.837 -65.5628 29.3325C-67.877 26.6126 -67.5432 22.532 -64.8234 20.2178C-57.6394 14.1156 -49.906 15.9111 -44.2609 17.224C-39.1532 18.4136 -37.0324 18.6995 -35.0024 16.9724C-33.0014 15.271 -32.962 13.169 -33.3592 8.03052C-33.8042 2.26556 -34.4153 -5.62701 -27.1971 -11.76C-20.0132 -17.8707 -12.2764 -16.0751 -6.62955 -14.7622C-1.51846 -13.5794 0.604065 -13.2902 2.64096 -15.0224C4.65048 -16.7324 4.69327 -18.836 4.29956 -23.9831C3.85794 -29.748 3.25549 -37.6423 10.4771 -43.7804C12.9573 -45.8892 15.4991 -47.0121 17.9999 -47.5837ZM3.72446 101.531C7.05026 98.1781 11.4287 93.8749 17.9999 93.168V106.475C16.598 107.117 15.1294 108.399 12.9076 110.636C8.83554 114.742 3.25543 120.367 -6.10919 118.936C-15.4413 117.505 -19.1487 110.485 -21.8549 105.357C-24.3026 100.723 -25.4768 98.933 -28.1214 98.529C-31.6509 97.9881 -34.073 94.688 -33.5355 91.1585C-32.9963 87.629 -29.7047 85.2121 -26.1632 85.7444C-16.8328 87.1737 -13.127 94.1933 -10.4192 99.3215C-7.97147 103.955 -6.79721 105.747 -4.15094 106.151C-1.51666 106.567 0.0854187 105.203 3.72446 101.531ZM-56.6586 246.318C-56.6586 251.079 -60.5184 254.939 -65.2786 254.939C-70.0405 254.939 -73.9004 251.079 -73.9004 246.318C-73.9004 241.556 -70.0405 237.696 -65.2786 237.696C-60.5184 237.696 -56.6586 241.556 -56.6586 246.318ZM8.92288 164.603C11.6701 165.021 14.9 165.536 17.9999 166.868V217.736C15.6155 216.242 13.4246 214.085 11.7523 210.845C7.4234 202.454 10.9255 195.323 13.481 190.116C15.7935 185.404 16.5535 183.398 15.3262 181.02C14.1178 178.68 12.0758 178.167 6.97324 177.388C1.25278 176.517 -6.57812 175.32 -10.9224 166.902C-15.2478 158.517 -11.744 151.388 -9.1868 146.182C-6.87088 141.473 -6.1109 139.471 -7.33646 137.1C-8.97455 133.925 -7.73013 130.026 -4.55496 128.388C-1.37808 126.753 2.51602 127.994 4.15582 131.169C8.48294 139.553 4.9791 146.68 2.42014 151.886C0.105957 156.596 -0.654053 158.601 0.569794 160.973C1.77826 163.311 3.81863 163.825 8.92288 164.603ZM-9.04639 260.614C-6.32309 262.923 -5.98764 267.003 -8.29669 269.728C-8.64587 270.139 -8.89233 270.558 -9.08234 271H-22.2863C-21.9679 267.84 -20.8707 264.559 -18.1594 261.363C-15.8555 258.642 -11.7748 258.301 -9.04639 260.614ZM10.489 262.491C9.24295 264.376 7.18378 265.394 5.08694 265.394C3.8631 265.394 2.62558 265.048 1.5267 264.323C-6.35049 259.117 -6.78867 251.189 -7.10703 245.4C-7.39801 240.157 -7.71814 238.036 -9.96558 236.552C-12.1719 235.089 -14.214 235.635 -19.0632 237.442C-24.4892 239.466 -31.9026 242.232 -39.8156 237.004C-47.6928 231.799 -48.1259 223.872 -48.4425 218.085C-48.7318 212.844 -49.0519 210.721 -51.2924 209.242C-53.4971 207.787 -55.5357 208.335 -60.3678 210.143C-65.7819 212.168 -73.1986 214.953 -81.1083 209.718C-88.9803 204.515 -89.4134 196.588 -89.73 190.802C-90.0159 185.563 -90.3325 183.444 -92.5663 181.968C-95.548 179.998 -96.3645 175.988 -94.3944 173.008C-92.4277 170.023 -88.4172 169.204 -85.4355 171.18C-77.5634 176.382 -77.1303 184.308 -76.8154 190.097C-76.5278 195.333 -76.2129 197.454 -73.9775 198.93C-71.7797 200.379 -69.7427 199.842 -64.8969 198.029C-59.488 196.009 -52.0713 193.231 -44.1616 198.454C-36.281 203.661 -35.8462 211.589 -35.5313 217.378C-35.2454 222.616 -34.9254 224.737 -32.6848 226.216C-30.4716 227.679 -28.4295 227.138 -23.5837 225.325C-18.1697 223.307 -10.7495 220.528 -2.83469 225.764C5.04593 230.971 5.48239 238.899 5.80246 244.69C6.09344 249.931 6.41348 252.052 8.6575 253.534C11.6341 255.502 12.4541 259.513 10.489 262.491ZM-117.016 127.248C-125.061 122.303 -125.742 114.389 -126.244 108.614C-126.699 103.39 -127.082 101.285 -129.362 99.8829C-132.402 98.0121 -133.354 94.029 -131.481 90.9873C-129.607 87.9405 -125.626 87.0042 -122.586 88.8665C-114.546 93.8099 -113.86 101.723 -113.363 107.498C-112.908 112.722 -112.521 114.829 -110.243 116.231C-107.987 117.609 -105.97 117 -101.185 115.035C-95.8253 112.834 -88.5011 109.823 -80.4305 114.783C-72.3855 119.732 -71.6957 127.643 -71.1942 133.418C-70.7406 138.647 -70.3521 140.755 -68.067 142.16C-65.799 143.553 -63.769 142.939 -58.9865 140.975C-53.6358 138.771 -46.3029 135.763 -38.2203 140.736C-30.172 145.684 -29.4822 153.597 -28.9772 159.376C-28.5185 164.603 -28.13 166.712 -25.8398 168.121C-22.8015 169.992 -21.8498 173.975 -23.7224 177.017C-24.9445 179.002 -27.0653 180.096 -29.234 180.096C-30.3911 180.096 -31.5619 179.786 -32.618 179.137C-40.6629 174.187 -41.3527 166.277 -41.8576 160.499C-42.3164 155.27 -42.705 153.159 -44.9935 151.752C-47.2632 150.362 -49.2881 150.968 -54.0739 152.937C-59.4332 155.134 -66.7661 158.142 -74.8401 153.176C-82.8851 148.231 -83.5749 140.318 -84.0764 134.541C-84.5317 129.312 -84.9185 127.205 -87.2087 125.8C-89.4562 124.415 -91.4725 125.028 -96.2635 126.996C-101.618 129.199 -108.942 132.208 -117.016 127.248ZM-52.7954 72.1571C-53.0179 75.5787 -55.8593 78.2061 -59.2398 78.2061L-59.6643 78.1925C-69.0906 77.5848 -73.4057 70.9161 -76.5535 66.0498C-79.4035 61.6422 -80.7334 59.9613 -83.4156 59.7884C-86.0294 59.5762 -87.5614 61.1013 -90.8701 65.0776C-94.5741 69.5228 -99.6048 75.5496 -109.103 75.0019C-118.524 74.3908 -122.834 67.7255 -125.983 62.8575C-128.833 58.4516 -130.158 56.7708 -132.837 56.5979C-135.53 56.4353 -136.966 57.9158 -140.271 61.8852C-143.961 66.3322 -149.052 72.4155 -158.482 71.813C-167.898 71.2054 -172.204 64.5366 -175.348 59.6669C-178.195 55.2627 -179.522 53.5836 -182.19 53.4107C-185.755 53.1796 -188.458 50.1037 -188.225 46.54C-187.994 42.9728 -184.855 40.2821 -181.356 40.5046C-171.939 41.114 -167.632 47.7827 -164.488 52.6507C-161.643 57.0549 -160.316 58.7357 -157.648 58.9069C-154.937 59.0883 -153.514 57.5924 -150.214 53.6196C-146.517 49.1709 -141.437 43.0875 -132.003 43.6901C-122.581 44.3011 -118.271 50.9681 -115.121 55.8362C-112.273 60.2437 -110.946 61.9229 -108.269 62.0958C-105.638 62.2789 -104.127 60.7812 -100.813 56.8067C-97.1143 52.358 -92.1213 46.2782 -82.5821 46.8807C-73.1559 47.49 -68.8423 54.1587 -65.6928 59.025C-62.8429 63.4326 -61.5129 65.1135 -58.8307 65.2864C-55.2704 65.5174 -52.5677 68.5934 -52.7954 72.1571ZM-213.362 67.0271C-204.731 70.8545 -202.989 78.6016 -201.722 84.2587C-200.574 89.3801 -199.908 91.4152 -197.462 92.5021C-195.033 93.5702 -193.123 92.699 -188.647 90.1041C-183.638 87.2045 -176.779 83.2402 -168.117 87.0778C-159.483 90.9034 -157.74 98.6539 -156.469 104.311C-155.315 109.434 -154.651 111.473 -152.2 112.56C-148.934 114.006 -147.46 117.827 -148.908 121.091C-149.978 123.502 -152.343 124.939 -154.822 124.939C-155.698 124.939 -156.587 124.761 -157.437 124.381C-166.071 120.557 -167.814 112.806 -169.085 107.149C-170.239 102.026 -170.903 99.9874 -173.354 98.9004C-175.77 97.8306 -177.69 98.707 -182.168 101.297C-187.175 104.198 -194.035 108.167 -202.699 104.325C-211.328 100.497 -213.071 92.7504 -214.339 87.0915C-215.487 81.9702 -216.153 79.935 -218.599 78.8497C-221.015 77.7851 -222.926 78.6649 -227.392 81.2512C-232.402 84.1525 -239.268 88.1168 -247.91 84.2878C-256.541 80.4656 -258.274 72.7168 -259.541 67.0563C-260.69 61.9418 -261.352 59.9066 -263.788 58.8265C-267.055 57.3784 -268.529 53.5579 -267.081 50.2937C-265.636 47.0278 -261.814 45.5541 -258.552 47.0022C-249.927 50.8244 -248.193 58.5714 -246.924 64.2303C-245.776 69.3465 -245.115 71.3834 -242.674 72.4635C-240.257 73.535 -238.345 72.6518 -233.879 70.0637C-228.869 67.1624 -222.004 63.1981 -213.362 67.0271ZM-85.5758 21.8079C-90.3377 21.8079 -94.1976 17.9497 -94.1976 13.1878C-94.1976 8.4259 -90.3377 4.56613 -85.5758 4.56613C-80.8156 4.56613 -76.954 8.4259 -76.954 13.1878C-76.954 17.9497 -80.8156 21.8079 -85.5758 21.8079ZM-207.694 50.6224C-212.456 50.6224 -216.316 46.7625 -216.316 42.0006C-216.316 37.2387 -212.456 33.3789 -207.694 33.3789C-202.934 33.3789 -199.074 37.2387 -199.074 42.0006C-199.074 46.7625 -202.934 50.6224 -207.694 50.6224ZM-49.4096 -23.7811C-52.1346 -26.0902 -52.4684 -30.1709 -50.1593 -32.8959C-44.0572 -40.0935 -36.1441 -39.5748 -30.3552 -39.1948C-25.1294 -38.8508 -22.9898 -38.9141 -21.261 -40.9561C-19.5476 -42.9742 -19.8454 -45.0659 -21.0624 -50.0931C-21.8224 -53.2272 -22.6868 -57.0169 -22.2863 -61H-9.08234C-9.83203 -59.2746 -9.46408 -57.1402 -8.49527 -53.1365C-7.13278 -47.5154 -5.27042 -39.8179 -11.3965 -32.5911C-17.5038 -25.3935 -25.4238 -25.9156 -31.2042 -26.2904C-36.4282 -26.6259 -38.5644 -26.5695 -40.2967 -24.5309C-41.5736 -23.0229 -43.3965 -22.2457 -45.2314 -22.2457C-46.7103 -22.2457 -48.1943 -22.7507 -49.4096 -23.7811ZM-105.822 -58.1295C-106.381 -59.1 -106.813 -60.0569 -107.165 -61H-83.3421C-78.0153 -60.2879 -71.7403 -58.6429 -67.7195 -51.6696C-63.0056 -43.4894 -66.1704 -36.2011 -68.4795 -30.8812C-70.5712 -26.0628 -71.2353 -24.0225 -69.8967 -21.6997C-68.1132 -18.605 -69.1761 -14.6527 -72.2709 -12.8674C-73.2876 -12.282 -74.3985 -12.003 -75.4922 -12.003C-77.7294 -12.003 -79.905 -13.1653 -81.1014 -15.2415C-85.8171 -23.42 -82.6523 -30.71 -80.3432 -36.0316C-78.2498 -40.8483 -77.5873 -42.8886 -78.9259 -45.2114C-80.2456 -47.5016 -82.3133 -47.9244 -87.4518 -48.4704C-93.2048 -49.0781 -101.085 -49.9151 -105.822 -58.1295ZM-51.0117 104.999C-51.0117 109.761 -54.8716 113.621 -59.6335 113.621C-64.3954 113.621 -68.2553 109.761 -68.2553 104.999C-68.2553 100.239 -64.3954 96.3791 -59.6335 96.3791C-54.8716 96.3791 -51.0117 100.239 -51.0117 104.999ZM-120.508 152.943C-115.748 152.943 -111.888 156.803 -111.888 161.563C-111.888 166.325 -115.748 170.185 -120.508 170.185C-125.27 170.185 -129.13 166.325 -129.13 161.563C-129.13 156.803 -125.27 152.943 -120.508 152.943ZM-313.151 -33.9263C-313.495 -33.6319 -313.764 -33.3187 -314 -32.9883V-47.5837C-309.247 -48.6707 -304.647 -47.6488 -300.948 -46.7878C-295.839 -45.6051 -293.711 -45.3192 -291.671 -47.0532C-288.956 -49.3605 -284.869 -49.0319 -282.558 -46.3137C-280.244 -43.5938 -280.576 -39.5132 -283.298 -37.199C-290.483 -31.0883 -298.222 -32.8821 -303.869 -34.1916C-308.983 -35.3761 -311.104 -35.6585 -313.151 -33.9263ZM-309.847 42.6733C-311.578 41.4717 -312.857 40.669 -314 40.0904V26.5167C-309.319 27.3315 -305.522 29.9315 -302.467 32.0557C-298.152 35.0546 -296.281 36.1073 -293.749 35.2481C-291.238 34.4042 -290.416 32.4631 -288.867 27.5334C-287.135 22.0167 -284.763 14.4614 -275.773 11.4385C-266.833 8.42938 -260.303 12.9602 -255.543 16.2672C-251.226 19.266 -249.35 20.3222 -246.811 19.4578C-243.427 18.3178 -239.757 20.1407 -238.619 23.5247C-237.481 26.9087 -239.302 30.5751 -242.686 31.7168C-251.64 34.7191 -258.156 30.1968 -262.92 26.8881C-267.239 23.8893 -269.106 22.8383 -271.65 23.6976C-274.161 24.5415 -274.982 26.4825 -276.531 31.4087C-278.263 36.9255 -280.636 44.4825 -289.622 47.5071C-298.569 50.5128 -305.087 45.9803 -309.847 42.6733ZM-281.937 74.9779C-281.937 79.7381 -285.798 83.5997 -290.558 83.5997C-295.32 83.5997 -299.18 79.7381 -299.18 74.9779C-299.18 70.216 -295.32 66.3562 -290.558 66.3562C-285.798 66.3562 -281.937 70.216 -281.937 74.9779ZM-122.136 -22.2851C-122.136 -27.0453 -118.276 -30.9051 -113.514 -30.9051C-108.754 -30.9051 -104.894 -27.0453 -104.894 -22.2851C-104.894 -17.5232 -108.754 -13.6633 -113.514 -13.6633C-118.276 -13.6633 -122.136 -17.5232 -122.136 -22.2851ZM-311.217 106.018C-312.228 105.864 -313.103 106.066 -314 106.475V93.168C-312.525 93.0088 -310.974 92.9711 -309.259 93.233C-299.925 94.6623 -296.214 101.682 -293.504 106.808C-291.051 111.447 -289.876 113.236 -287.221 113.641C-284.609 114.054 -282.972 112.697 -279.321 109.023C-275.246 104.92 -269.674 99.2907 -260.291 100.734C-250.954 102.163 -247.239 109.183 -244.528 114.306C-242.073 118.946 -240.894 120.736 -238.236 121.144C-234.706 121.685 -232.284 124.985 -232.823 128.514C-233.313 131.712 -236.069 134.002 -239.206 134.002C-239.533 134.002 -239.862 133.978 -240.194 133.928C-249.533 132.497 -253.247 125.479 -255.959 120.355C-258.413 115.714 -259.592 113.924 -262.247 113.518C-264.852 113.106 -266.499 114.463 -270.147 118.136C-274.224 122.239 -279.816 127.852 -289.179 126.426C-298.516 124.997 -302.227 117.977 -304.935 112.851C-307.388 108.214 -308.564 106.422 -311.217 106.018ZM-216.792 -19.062C-215.306 -14.0313 -214.512 -12.0441 -212.002 -11.1266C-209.522 -10.2212 -207.674 -11.2208 -203.389 -14.1049C-198.586 -17.3315 -191.998 -21.7442 -183.12 -18.4937C-174.255 -15.2467 -172.002 -7.63306 -170.361 -2.07007C-168.875 2.96057 -168.076 4.94946 -165.561 5.87036C-163.06 6.78439 -161.217 5.77454 -156.927 2.89548C-152.124 -0.331055 -145.533 -4.7352 -136.642 -1.48471C-127.776 1.76065 -125.525 9.3793 -123.878 14.9389C-122.387 19.9746 -121.588 21.9637 -119.07 22.8846C-115.715 24.1118 -113.993 27.8262 -115.224 31.1794C-116.179 33.8 -118.657 35.4261 -121.293 35.4261C-122.03 35.4261 -122.784 35.2977 -123.515 35.0289C-132.382 31.7836 -134.634 24.1666 -136.279 18.6054C-137.77 13.5713 -138.57 11.5823 -141.087 10.6614C-143.583 9.7525 -145.432 10.7556 -149.721 13.6346C-154.524 16.8594 -161.116 21.2584 -170.006 18.0148C-178.868 14.7694 -181.12 7.15411 -182.762 1.59457C-184.248 -3.43948 -185.049 -5.42841 -187.565 -6.3493C-190.019 -7.2428 -191.885 -6.2518 -196.175 -3.37274C-200.972 -0.14621 -207.549 4.28027 -216.448 1.01779C-225.309 -2.22241 -227.557 -9.83939 -229.195 -15.4041C-230.68 -20.4313 -231.476 -22.4186 -233.98 -23.3361C-237.335 -24.5668 -239.057 -28.2794 -237.828 -31.6309C-236.608 -34.9892 -232.878 -36.6974 -229.535 -35.4804C-220.677 -32.2385 -218.43 -24.6232 -216.792 -19.062ZM-206.339 -59.0281C-206.573 -59.7539 -206.789 -60.3975 -206.998 -61H-193.362C-192.135 -57.4671 -191.195 -55.9111 -189.032 -55.1785C-186.528 -54.3312 -184.703 -55.3788 -180.485 -58.3588C-179.284 -59.2095 -177.967 -60.1373 -176.528 -61H-155.917C-150.532 -57.3456 -148.597 -51.5925 -147.154 -47.1336C-145.538 -42.1372 -144.689 -40.1671 -142.145 -39.3061C-138.763 -38.1592 -136.949 -34.4911 -138.094 -31.1071C-139.008 -28.4112 -141.522 -26.7132 -144.218 -26.7132C-144.904 -26.7132 -145.606 -26.8245 -146.293 -27.0556C-155.231 -30.0853 -157.675 -37.6389 -159.457 -43.1557C-161.075 -48.1538 -161.924 -50.1222 -164.467 -50.9832C-166.97 -51.8356 -168.8 -50.7881 -173.015 -47.8029C-177.735 -44.4617 -184.193 -39.8864 -193.179 -42.928C-202.116 -45.956 -204.555 -53.5096 -206.339 -59.0281ZM-279.29 -17.1124C-279.29 -21.8726 -275.431 -25.7341 -270.669 -25.7341C-265.907 -25.7341 -262.049 -21.8726 -262.049 -17.1124C-262.049 -12.3505 -265.907 -8.49066 -270.669 -8.49066C-275.431 -8.49066 -279.29 -12.3505 -279.29 -17.1124ZM-240.012 -58.7816C-241.717 -59.3585 -243.123 -60.139 -244.394 -61H-223.856C-228.063 -58.4787 -233.34 -56.5257 -240.012 -58.7816Z" fill="white" fill-opacity="0.1"/>
<path d="M153.682 234.784C148.692 236.388 146.722 237.234 145.864 239.775C144.95 242.466 142.433 244.166 139.738 244.166C139.054 244.166 138.35 244.055 137.664 243.82C134.28 242.673 132.469 239.002 133.614 235.619C136.649 226.674 144.206 224.245 149.724 222.474C154.712 220.87 156.682 220.023 157.542 217.482C158.396 214.973 157.348 213.14 154.372 208.91C151.042 204.183 146.482 197.707 149.522 188.738C152.562 179.795 160.118 177.371 165.633 175.601C170.621 174.002 172.582 173.158 173.441 170.625C174.587 167.245 178.279 165.43 181.642 166.58C185.026 167.727 186.835 171.397 185.69 174.781C182.655 183.721 175.1 186.145 169.585 187.915C164.597 189.514 162.63 190.357 161.768 192.894C160.917 195.402 161.966 197.235 164.941 201.465C168.272 206.192 172.83 212.668 169.79 221.638C166.756 230.584 159.2 233.013 153.682 234.784ZM171.707 268.768C173.421 269.348 174.833 270.134 176.11 271H155.499C159.719 268.468 165.013 266.5 171.707 268.768ZM137.996 268.999C138.234 269.737 138.453 270.389 138.665 271H125.03C123.797 267.448 122.858 265.886 120.691 265.151C118.188 264.307 116.372 265.351 112.167 268.335C110.955 269.192 109.625 270.129 108.171 271H87.6329C82.2394 267.347 80.3069 261.586 78.8674 257.122C77.2584 252.127 76.4112 250.162 73.8813 249.304C70.499 248.159 68.6846 244.489 69.8297 241.107C70.9748 237.721 74.6276 235.912 78.0287 237.056C86.9603 240.08 89.396 247.636 91.1744 253.152C92.7851 258.147 93.6307 260.114 96.1606 260.97C98.6579 261.81 100.483 260.762 104.688 257.786C109.404 254.441 115.871 249.873 124.836 252.902C133.773 255.927 136.214 263.482 137.996 268.999ZM115.711 209.131C120.473 209.131 124.333 212.991 124.333 217.751C124.333 222.513 120.473 226.373 115.711 226.373C110.95 226.373 107.09 222.513 107.09 217.751C107.09 212.991 110.95 209.131 115.711 209.131ZM196.809 246.318C196.809 251.079 192.949 254.939 188.188 254.939C183.427 254.939 179.568 251.079 179.568 246.318C179.568 241.556 183.427 237.696 188.188 237.696C192.949 237.696 196.809 241.556 196.809 246.318ZM32.8471 134.002C37.609 134.002 41.4688 137.862 41.4688 142.624C41.4688 147.384 37.609 151.244 32.8471 151.244C28.0852 151.244 24.2271 147.384 24.2271 142.624C24.2271 137.862 28.0852 134.002 32.8471 134.002ZM71.4798 217.363C66.3225 216.507 64.1812 216.354 62.2572 218.212C61.0026 219.424 59.3816 220.026 57.7658 220.026C56.0729 220.026 54.3801 219.364 53.1134 218.051C50.6349 215.482 50.7051 211.387 53.2743 208.907C60.068 202.351 67.8887 203.656 73.6057 204.607C78.7801 205.466 80.9009 205.614 82.8283 203.76C84.7368 201.92 84.6427 199.811 83.9323 194.686C83.1415 188.959 82.0495 181.116 88.862 174.536C95.6556 167.977 103.478 169.275 109.202 170.223C114.363 171.087 116.506 171.231 118.438 169.367C120.35 167.52 120.261 165.408 119.554 160.278C118.762 154.549 117.676 146.703 124.496 140.116C131.286 133.559 139.124 134.854 144.841 135.799C150.022 136.658 152.148 136.807 154.086 134.938C156.657 132.46 160.744 132.53 163.228 135.099C165.708 137.667 165.636 141.759 163.069 144.241C156.27 150.802 148.458 149.508 142.724 148.556C137.554 147.701 135.416 147.55 133.479 149.417C131.568 151.266 131.656 153.378 132.364 158.508C133.155 164.237 134.242 172.083 127.421 178.67C120.622 185.24 112.802 183.933 107.081 182.98C101.915 182.117 99.7722 181.972 97.8449 183.838C95.9415 185.674 96.0305 187.783 96.7425 192.908C97.5368 198.637 98.6271 206.481 91.8129 213.063C85.0227 219.62 77.2003 218.316 71.4798 217.363ZM49.536 219.066C53.8666 227.455 50.3662 234.591 47.8124 239.798C45.4982 244.515 44.7399 246.521 45.9706 248.902C47.607 252.077 46.3608 255.977 43.1891 257.615C42.2408 258.102 41.2275 258.337 40.2296 258.337C37.888 258.337 35.6269 257.058 34.4783 254.835C30.1478 246.444 33.6464 239.312 36.202 234.101C38.5145 229.387 39.2745 227.379 38.0438 224.997C36.8302 222.645 34.7865 222.128 29.6788 221.347C26.1596 220.807 21.8427 220.13 18.0273 217.736V166.868C21.384 168.309 24.5865 170.712 26.8459 175.089C31.1731 183.476 27.6727 190.609 25.1154 195.814C22.8029 200.528 22.0446 202.534 23.2719 204.912C24.4838 207.264 26.5276 207.781 31.6369 208.563C37.354 209.439 45.1866 210.639 49.536 219.066ZM82.539 158.246C82.539 163.008 78.6792 166.868 73.919 166.868C69.1571 166.868 65.2972 163.008 65.2972 158.246C65.2972 153.486 69.1571 149.626 73.919 149.626C78.6792 149.626 82.539 153.486 82.539 158.246ZM350.027 26.5167V40.0904C348.322 39.2277 346.989 38.9675 345.457 39.481C342.958 40.3215 342.14 42.2591 340.598 47.1836C338.869 52.7004 336.502 60.2574 327.52 63.2786C325.463 63.9701 323.534 64.2628 321.726 64.2628C315.672 64.2628 310.968 60.9883 307.305 58.4396C302.999 55.4425 301.136 54.3915 298.598 55.2439C295.211 56.3805 291.544 54.5592 290.408 51.1752C289.269 47.7912 291.091 44.1248 294.476 42.9848C303.413 39.9688 309.933 44.5134 314.691 47.8238C319 50.8243 320.867 51.8787 323.399 51.0195C325.898 50.179 326.716 48.2414 328.258 43.3169C329.987 37.8001 332.354 30.2431 341.335 27.222C344.536 26.147 347.415 26.0631 350.027 26.5167ZM245.938 270.673C246.808 270.766 247.737 270.873 248.685 271H224.862C222.25 263.994 224.934 257.776 226.971 253.087C229.064 248.271 229.728 246.234 228.392 243.914C227.077 241.633 225.013 241.213 219.879 240.676C214.126 240.068 206.249 239.24 201.516 231.03C196.804 222.857 199.974 215.574 202.287 210.254C204.38 205.444 205.048 203.407 203.713 201.097C201.929 198.002 202.992 194.05 206.087 192.264C209.178 190.479 213.134 191.545 214.919 194.638C219.629 202.812 216.459 210.097 214.145 215.413C212.054 220.225 211.386 222.262 212.721 224.574C214.034 226.856 216.098 227.273 221.233 227.812C226.988 228.418 234.865 229.249 239.598 237.456C244.31 245.635 241.144 252.921 238.833 258.241C236.739 263.058 236.075 265.095 237.412 267.414C238.732 269.704 240.8 270.127 245.938 270.673ZM350.027 -47.5837V-32.9883C348.886 -31.3964 348.896 -29.2294 349.221 -24.9673C349.663 -19.2023 350.265 -11.308 343.045 -5.16824C335.853 0.940765 328.119 -0.854828 322.474 -2.16769C317.365 -3.35391 315.241 -3.63971 313.204 -1.90576C311.203 -0.204346 311.164 1.89584 311.562 7.03604C312.006 12.7975 312.617 20.6919 305.4 26.8265C298.22 32.9338 290.488 31.1383 284.836 29.8203C279.728 28.6307 277.609 28.3465 275.578 30.0719C274.364 31.1057 272.875 31.6107 271.393 31.6107C269.563 31.6107 267.743 30.837 266.465 29.3325C264.15 26.6126 264.484 22.532 267.204 20.2178C274.388 14.1156 282.121 15.9111 287.766 17.224C292.874 18.4136 294.995 18.6995 297.025 16.9724C299.026 15.271 299.065 13.169 298.668 8.03052C298.223 2.26556 297.612 -5.62701 304.83 -11.76C312.014 -17.8707 319.751 -16.0751 325.398 -14.7622C330.509 -13.5794 332.631 -13.2902 334.668 -15.0224C336.678 -16.7324 336.721 -18.836 336.327 -23.9831C335.885 -29.748 335.283 -37.6423 342.504 -43.7804C344.985 -45.8892 347.526 -47.0121 350.027 -47.5837ZM335.752 101.531C339.078 98.1781 343.456 93.8749 350.027 93.168V106.475C348.625 107.117 347.157 108.399 344.935 110.636C340.863 114.742 335.283 120.367 325.918 118.936C316.586 117.505 312.879 110.485 310.172 105.357C307.725 100.723 306.551 98.933 303.906 98.529C300.376 97.9881 297.954 94.688 298.492 91.1585C299.031 87.629 302.323 85.2121 305.864 85.7444C315.195 87.1737 318.9 94.1933 321.608 99.3215C324.056 103.955 325.23 105.747 327.876 106.151C330.511 106.567 332.113 105.203 335.752 101.531ZM275.369 246.318C275.369 251.079 271.509 254.939 266.749 254.939C261.987 254.939 258.127 251.079 258.127 246.318C258.127 241.556 261.987 237.696 266.749 237.696C271.509 237.696 275.369 241.556 275.369 246.318ZM340.95 164.603C343.697 165.021 346.927 165.536 350.027 166.868V217.736C347.643 216.242 345.452 214.085 343.78 210.845C339.451 202.454 342.953 195.323 345.508 190.116C347.821 185.404 348.581 183.398 347.354 181.02C346.145 178.68 344.103 178.167 339.001 177.388C333.28 176.517 325.449 175.32 321.105 166.902C316.78 158.517 320.283 151.388 322.841 146.182C325.156 141.473 325.916 139.471 324.691 137.1C323.053 133.925 324.297 130.026 327.472 128.388C330.649 126.753 334.543 127.994 336.183 131.169C340.51 139.553 337.006 146.68 334.447 151.886C332.133 156.596 331.373 158.601 332.597 160.973C333.806 163.311 335.846 163.825 340.95 164.603ZM322.981 260.614C325.704 262.923 326.04 267.003 323.731 269.728C323.381 270.139 323.135 270.558 322.945 271H309.741C310.059 267.84 311.157 264.559 313.868 261.363C316.172 258.642 320.253 258.301 322.981 260.614ZM342.516 262.491C341.27 264.376 339.211 265.394 337.114 265.394C335.89 265.394 334.653 265.048 333.554 264.323C325.677 259.117 325.239 251.189 324.92 245.4C324.629 240.157 324.309 238.036 322.062 236.552C319.855 235.089 317.813 235.635 312.964 237.442C307.538 239.466 300.125 242.232 292.212 237.004C284.335 231.799 283.901 223.872 283.585 218.085C283.296 212.844 282.975 210.721 280.735 209.242C278.53 207.787 276.492 208.335 271.66 210.143C266.245 212.168 258.829 214.953 250.919 209.718C243.047 204.515 242.614 196.588 242.297 190.802C242.011 185.563 241.695 183.444 239.461 181.968C236.479 179.998 235.663 175.988 237.633 173.008C239.6 170.023 243.61 169.204 246.592 171.18C254.464 176.382 254.897 184.308 255.212 190.097C255.5 195.333 255.814 197.454 258.05 198.93C260.248 200.379 262.285 199.842 267.13 198.029C272.539 196.009 279.956 193.231 287.866 198.454C295.746 203.661 296.181 211.589 296.496 217.378C296.782 222.616 297.102 224.737 299.343 226.216C301.556 227.679 303.598 227.138 308.444 225.325C313.858 223.307 321.278 220.528 329.193 225.764C337.073 230.971 337.51 238.899 337.83 244.69C338.121 249.931 338.441 252.052 340.685 253.534C343.661 255.502 344.481 259.513 342.516 262.491ZM215.011 127.248C206.966 122.303 206.285 114.389 205.784 108.614C205.328 103.39 204.945 101.285 202.665 99.8829C199.625 98.0121 198.673 94.029 200.546 90.9873C202.42 87.9405 206.402 87.0042 209.441 88.8665C217.481 93.8099 218.168 101.723 218.664 107.498C219.119 112.722 219.506 114.829 221.785 116.231C224.04 117.609 226.057 117 230.843 115.035C236.202 112.834 243.526 109.823 251.597 114.783C259.642 119.732 260.332 127.643 260.833 133.418C261.287 138.647 261.675 140.755 263.96 142.16C266.228 143.553 268.258 142.939 273.041 140.975C278.392 138.771 285.724 135.763 293.807 140.736C301.855 145.684 302.545 153.597 303.05 159.376C303.509 164.603 303.897 166.712 306.188 168.121C309.226 169.992 310.178 173.975 308.305 177.017C307.083 179.002 304.962 180.096 302.793 180.096C301.636 180.096 300.465 179.786 299.409 179.137C291.364 174.187 290.675 166.277 290.17 160.499C289.711 155.27 289.322 153.159 287.034 151.752C284.764 150.362 282.739 150.968 277.953 152.937C272.594 155.134 265.261 158.142 257.187 153.176C249.142 148.231 248.452 140.318 247.951 134.541C247.496 129.312 247.109 127.205 244.819 125.8C242.571 124.415 240.555 125.028 235.764 126.996C230.41 129.199 223.085 132.208 215.011 127.248ZM279.232 72.1571C279.009 75.5787 276.168 78.2061 272.788 78.2061L272.363 78.1925C262.937 77.5848 258.622 70.9161 255.474 66.0498C252.624 61.6422 251.294 59.9613 248.612 59.7884C245.998 59.5762 244.466 61.1013 241.157 65.0776C237.453 69.5228 232.423 75.5496 222.924 75.0019C213.503 74.3908 209.193 67.7255 206.044 62.8575C203.194 58.4516 201.869 56.7708 199.19 56.5979C196.498 56.4353 195.062 57.9158 191.756 61.8852C188.066 66.3322 182.975 72.4155 173.546 71.813C164.13 71.2054 159.823 64.5366 156.679 59.6669C153.832 55.2627 152.506 53.5836 149.837 53.4107C146.272 53.1796 143.569 50.1037 143.802 46.54C144.033 42.9728 147.172 40.2821 150.671 40.5046C160.089 41.114 164.395 47.7827 167.54 52.6507C170.384 57.0549 171.711 58.7357 174.379 58.9069C177.091 59.0883 178.513 57.5924 181.813 53.6196C185.51 49.1709 190.591 43.0875 200.024 43.6901C209.447 44.3011 213.757 50.9681 216.906 55.8362C219.754 60.2437 221.081 61.9229 223.758 62.0958C226.389 62.2789 227.9 60.7812 231.214 56.8067C234.913 52.358 239.906 46.2782 249.445 46.8807C258.871 47.49 263.185 54.1587 266.335 59.025C269.184 63.4326 270.514 65.1135 273.197 65.2864C276.757 65.5174 279.46 68.5934 279.232 72.1571ZM118.666 67.0271C127.296 70.8545 129.039 78.6016 130.305 84.2587C131.454 89.3801 132.12 91.4152 134.566 92.5021C136.994 93.5702 138.905 92.699 143.381 90.1041C148.389 87.2045 155.248 83.2402 163.911 87.0778C172.544 90.9034 174.287 98.6539 175.559 104.311C176.712 109.434 177.377 111.473 179.828 112.56C183.094 114.006 184.567 117.827 183.119 121.091C182.049 123.502 179.684 124.939 177.205 124.939C176.329 124.939 175.441 124.761 174.59 124.381C165.956 120.557 164.214 112.806 162.942 107.149C161.788 102.026 161.124 99.9874 158.673 98.9004C156.258 97.8306 154.337 98.707 149.86 101.297C144.853 104.198 137.992 108.167 129.328 104.325C120.699 100.497 118.957 92.7504 117.688 87.0915C116.54 81.9702 115.874 79.935 113.428 78.8497C111.013 77.7851 109.101 78.6649 104.635 81.2512C99.625 84.1525 92.7594 88.1168 84.1171 84.2878C75.4868 80.4656 73.7529 72.7168 72.4863 67.0563C71.3377 61.9418 70.6753 59.9066 68.2396 58.8265C64.972 57.3784 63.4982 53.5579 64.9463 50.2937C66.3909 47.0278 70.2132 45.5541 73.4756 47.0022C82.1008 50.8244 83.8347 58.5714 85.1031 64.2303C86.2516 69.3465 86.9123 71.3834 89.3532 72.4635C91.7701 73.535 93.6821 72.6518 98.1479 70.0637C103.158 67.1624 110.023 63.1981 118.666 67.0271ZM246.452 21.8079C241.69 21.8079 237.83 17.9497 237.83 13.1878C237.83 8.4259 241.69 4.56613 246.452 4.56613C251.212 4.56613 255.073 8.4259 255.073 13.1878C255.073 17.9497 251.212 21.8079 246.452 21.8079ZM124.333 50.6224C119.571 50.6224 115.711 46.7625 115.711 42.0006C115.711 37.2387 119.571 33.3789 124.333 33.3789C129.093 33.3789 132.953 37.2387 132.953 42.0006C132.953 46.7625 129.093 50.6224 124.333 50.6224ZM282.618 -23.7811C279.893 -26.0902 279.559 -30.1709 281.868 -32.8959C287.97 -40.0935 295.883 -39.5748 301.672 -39.1948C306.898 -38.8508 309.038 -38.9141 310.766 -40.9561C312.48 -42.9742 312.182 -45.0659 310.965 -50.0931C310.205 -53.2272 309.341 -57.0169 309.741 -61H322.945C322.195 -59.2746 322.563 -57.1402 323.532 -53.1365C324.895 -47.5154 326.757 -39.8179 320.631 -32.5911C314.524 -25.3935 306.604 -25.9156 300.823 -26.2904C295.599 -26.6259 293.463 -26.5695 291.731 -24.5309C290.454 -23.0229 288.631 -22.2457 286.796 -22.2457C285.317 -22.2457 283.833 -22.7507 282.618 -23.7811ZM226.206 -58.1295C225.646 -59.1 225.215 -60.0569 224.862 -61H248.685C254.012 -60.2879 260.287 -58.6429 264.308 -51.6696C269.022 -43.4894 265.857 -36.2011 263.548 -30.8812C261.456 -26.0628 260.792 -24.0225 262.131 -21.6997C263.914 -18.605 262.851 -14.6527 259.756 -12.8674C258.74 -12.282 257.629 -12.003 256.535 -12.003C254.298 -12.003 252.122 -13.1653 250.926 -15.2415C246.21 -23.42 249.375 -30.71 251.684 -36.0316C253.778 -40.8483 254.44 -42.8886 253.101 -45.2114C251.782 -47.5016 249.714 -47.9244 244.576 -48.4704C238.823 -49.0781 230.942 -49.9151 226.206 -58.1295ZM281.016 104.999C281.016 109.761 277.156 113.621 272.394 113.621C267.632 113.621 263.772 109.761 263.772 104.999C263.772 100.239 267.632 96.3791 272.394 96.3791C277.156 96.3791 281.016 100.239 281.016 104.999ZM211.52 152.943C216.28 152.943 220.14 156.803 220.14 161.563C220.14 166.325 216.28 170.185 211.52 170.185C206.758 170.185 202.898 166.325 202.898 161.563C202.898 156.803 206.758 152.943 211.52 152.943ZM18.8763 -33.9263C18.5323 -33.6319 18.2636 -33.3187 18.0273 -32.9883V-47.5837C22.7807 -48.6707 27.38 -47.6488 31.0789 -46.7878C36.1883 -45.6051 38.3159 -45.3192 40.3563 -47.0532C43.071 -49.3605 47.1585 -49.0319 49.4693 -46.3137C51.7835 -43.5938 51.4514 -39.5132 48.7298 -37.199C41.5441 -31.0883 33.8056 -32.8821 28.1588 -34.1916C23.0443 -35.3761 20.9235 -35.6585 18.8763 -33.9263ZM22.1799 42.6733C20.4494 41.4717 19.1707 40.669 18.0273 40.0904V26.5167C22.7088 27.3315 26.5053 29.9315 29.5606 32.0557C33.8758 35.0546 35.7467 36.1073 38.2783 35.2481C40.7893 34.4042 41.6109 32.4631 43.16 27.5334C44.8922 22.0167 47.2646 14.4614 56.2544 11.4385C65.1945 8.42938 71.7246 12.9602 76.4848 16.2672C80.8016 19.266 82.6777 20.3222 85.2161 19.4578C88.6001 18.3178 92.2699 20.1407 93.4082 23.5247C94.5464 26.9087 92.7252 30.5751 89.3412 31.7168C80.3874 34.7191 73.871 30.1968 69.1074 26.8881C64.7888 23.8893 62.9214 22.8383 60.3778 23.6976C57.8668 24.5415 57.0452 26.4825 55.4961 31.4087C53.7639 36.9255 51.3915 44.4825 42.4051 47.5071C33.4582 50.5128 26.9401 45.9803 22.1799 42.6733ZM50.0906 74.9779C50.0906 79.7381 46.229 83.5997 41.4688 83.5997C36.7069 83.5997 32.8471 79.7381 32.8471 74.9779C32.8471 70.216 36.7069 66.3562 41.4688 66.3562C46.229 66.3562 50.0906 70.216 50.0906 74.9779ZM209.892 -22.2851C209.892 -27.0453 213.752 -30.9051 218.513 -30.9051C223.274 -30.9051 227.134 -27.0453 227.134 -22.2851C227.134 -17.5232 223.274 -13.6633 218.513 -13.6633C213.752 -13.6633 209.892 -17.5232 209.892 -22.2851ZM20.8105 106.018C19.7989 105.864 18.9243 106.066 18.0273 106.475V93.168C19.5028 93.0088 21.0536 92.9711 22.7687 93.233C32.1025 94.6623 35.8134 101.682 38.523 106.808C40.9759 111.447 42.1518 113.236 44.8066 113.641C47.4187 114.054 49.055 112.697 52.706 109.023C56.7816 104.92 62.3531 99.2907 71.7366 100.734C81.0738 102.163 84.7881 109.183 87.4994 114.306C89.954 118.946 91.1333 120.736 93.7916 121.144C97.3211 121.685 99.7431 124.985 99.2039 128.514C98.7144 131.712 95.9586 134.002 92.8211 134.002C92.4941 134.002 92.1655 133.978 91.8334 133.928C82.4945 132.497 78.7801 125.479 76.0688 120.355C73.6143 115.714 72.4349 113.924 69.7801 113.518C67.1749 113.106 65.5283 114.463 61.8807 118.136C57.8034 122.239 52.2114 127.852 42.8485 126.426C33.5112 124.997 29.8003 117.977 27.0924 112.851C24.6396 108.214 23.4637 106.422 20.8105 106.018ZM115.236 -19.062C116.721 -14.0313 117.516 -12.0441 120.025 -11.1266C122.505 -10.2212 124.354 -11.2208 128.638 -14.1049C133.441 -17.3315 140.029 -21.7442 148.908 -18.4937C157.773 -15.2467 160.025 -7.63306 161.667 -2.07007C163.152 2.96057 163.952 4.94946 166.466 5.87036C168.967 6.78439 170.811 5.77454 175.1 2.89548C179.903 -0.331055 186.495 -4.7352 195.385 -1.48471C204.252 1.76065 206.503 9.3793 208.149 14.9389C209.64 19.9746 210.439 21.9637 212.957 22.8846C216.312 24.1118 218.034 27.8262 216.803 31.1794C215.848 33.8 213.37 35.4261 210.734 35.4261C209.998 35.4261 209.243 35.2977 208.512 35.0289C199.646 31.7836 197.393 24.1666 195.748 18.6054C194.257 13.5713 193.458 11.5823 190.94 10.6614C188.444 9.7525 186.596 10.7556 182.306 13.6346C177.503 16.8594 170.912 21.2584 162.021 18.0148C153.16 14.7694 150.907 7.15411 149.266 1.59457C147.78 -3.43948 146.979 -5.42841 144.463 -6.3493C142.008 -7.2428 140.142 -6.2518 135.853 -3.37274C131.055 -0.14621 124.479 4.28027 115.58 1.01779C106.718 -2.22241 104.471 -9.83939 102.833 -15.4041C101.347 -20.4313 100.551 -22.4186 98.0469 -23.3361C94.6919 -24.5668 92.97 -28.2794 94.199 -31.6309C95.4194 -34.9892 99.1492 -36.6974 102.492 -35.4804C111.35 -32.2385 113.597 -24.6232 115.236 -19.062ZM125.689 -59.0281C125.454 -59.7539 125.239 -60.3975 125.03 -61H138.665C139.892 -57.4671 140.832 -55.9111 142.996 -55.1785C145.5 -54.3312 147.325 -55.3788 151.542 -58.3588C152.744 -59.2095 154.06 -60.1373 155.499 -61H176.11C181.495 -57.3456 183.431 -51.5925 184.874 -47.1336C186.49 -42.1372 187.339 -40.1671 189.882 -39.3061C193.264 -38.1592 195.079 -34.4911 193.934 -31.1071C193.02 -28.4112 190.505 -26.7132 187.809 -26.7132C187.123 -26.7132 186.421 -26.8245 185.735 -27.0556C176.796 -30.0853 174.352 -37.6389 172.57 -43.1557C170.953 -48.1538 170.104 -50.1222 167.56 -50.9832C165.058 -51.8356 163.228 -50.7881 159.012 -47.8029C154.293 -44.4617 147.835 -39.8864 138.848 -42.928C129.912 -45.956 127.472 -53.5096 125.689 -59.0281ZM52.7369 -17.1124C52.7369 -21.8726 56.5967 -25.7341 61.3586 -25.7341C66.1205 -25.7341 69.9787 -21.8726 69.9787 -17.1124C69.9787 -12.3505 66.1205 -8.49066 61.3586 -8.49066C56.5967 -8.49066 52.7369 -12.3505 52.7369 -17.1124ZM92.0149 -58.7816C90.31 -59.3585 88.9047 -60.139 87.6329 -61H108.171C103.964 -58.4787 98.687 -56.5257 92.0149 -58.7816Z" fill="white" fill-opacity="0.1"/>
<path d="M485.709 234.784C480.719 236.388 478.749 237.234 477.892 239.775C476.978 242.466 474.46 244.166 471.766 244.166C471.081 244.166 470.377 244.055 469.691 243.82C466.307 242.673 464.496 239.002 465.641 235.619C468.676 226.674 476.233 224.245 481.752 222.474C486.739 220.87 488.71 220.023 489.569 217.482C490.423 214.973 489.375 213.14 486.399 208.91C483.07 204.183 478.51 197.707 481.55 188.738C484.59 179.795 492.145 177.371 497.66 175.601C502.648 174.002 504.609 173.158 505.469 170.625C506.614 167.245 510.306 165.43 513.669 166.58C517.053 167.727 518.863 171.397 517.718 174.781C514.683 183.721 507.127 186.145 501.612 187.915C496.624 189.514 494.658 190.357 493.795 192.894C492.944 195.402 493.994 197.235 496.969 201.465C500.299 206.192 504.858 212.668 501.818 221.638C498.783 230.584 491.228 233.013 485.709 234.784ZM503.735 268.768C505.448 269.348 506.86 270.134 508.137 271H487.527C491.746 268.468 497.04 266.5 503.735 268.768ZM470.023 268.999C470.261 269.737 470.48 270.389 470.692 271H457.057C455.825 267.448 454.885 265.886 452.718 265.151C450.216 264.307 448.399 265.351 444.194 268.335C442.982 269.192 441.652 270.129 440.199 271H419.66C414.267 267.347 412.334 261.586 410.895 257.122C409.286 252.127 408.439 250.162 405.909 249.304C402.526 248.159 400.712 244.489 401.857 241.107C403.002 237.721 406.655 235.912 410.056 237.056C418.988 240.08 421.423 247.636 423.202 253.152C424.812 258.147 425.658 260.114 428.188 260.97C430.685 261.81 432.51 260.762 436.716 257.786C441.431 254.441 447.898 249.873 456.864 252.902C465.8 255.927 468.241 263.482 470.023 268.999ZM447.739 209.131C452.501 209.131 456.361 212.991 456.361 217.751C456.361 222.513 452.501 226.373 447.739 226.373C442.977 226.373 439.117 222.513 439.117 217.751C439.117 212.991 442.977 209.131 447.739 209.131ZM528.837 246.318C528.837 251.079 524.977 254.939 520.215 254.939C515.455 254.939 511.595 251.079 511.595 246.318C511.595 241.556 515.455 237.696 520.215 237.696C524.977 237.696 528.837 241.556 528.837 246.318ZM364.874 134.002C369.636 134.002 373.496 137.862 373.496 142.624C373.496 147.384 369.636 151.244 364.874 151.244C360.113 151.244 356.254 147.384 356.254 142.624C356.254 137.862 360.113 134.002 364.874 134.002ZM403.507 217.363C398.35 216.507 396.209 216.354 394.285 218.212C393.03 219.424 391.409 220.026 389.793 220.026C388.1 220.026 386.407 219.364 385.141 218.051C382.662 215.482 382.732 211.387 385.302 208.907C392.095 202.351 399.916 203.656 405.633 204.607C410.807 205.466 412.928 205.614 414.856 203.76C416.764 201.92 416.67 199.811 415.96 194.686C415.169 188.959 414.077 181.116 420.889 174.536C427.683 167.977 435.505 169.275 441.229 170.223C446.39 171.087 448.533 171.231 450.465 169.367C452.377 167.52 452.288 165.408 451.581 160.278C450.789 154.549 449.704 146.703 456.523 140.116C463.313 133.559 471.151 134.854 476.868 135.799C482.049 136.658 484.175 136.807 486.113 134.938C488.684 132.46 492.771 132.53 495.255 135.099C497.735 137.667 497.663 141.759 495.096 144.241C488.297 150.802 480.485 149.508 474.751 148.556C469.582 147.701 467.444 147.55 465.506 149.417C463.596 151.266 463.683 153.378 464.392 158.508C465.183 164.237 466.269 172.083 459.448 178.67C452.65 185.24 444.829 183.933 439.108 182.98C433.943 182.117 431.8 181.972 429.872 183.838C427.969 185.674 428.058 187.783 428.77 192.908C429.564 198.637 430.654 206.481 423.84 213.063C417.05 219.62 409.228 218.316 403.507 217.363ZM381.563 219.066C385.894 227.455 382.394 234.591 379.84 239.798C377.526 244.515 376.767 246.521 377.998 248.902C379.634 252.077 378.388 255.977 375.216 257.615C374.268 258.102 373.255 258.337 372.257 258.337C369.915 258.337 367.654 257.058 366.506 254.835C362.175 246.444 365.674 239.312 368.229 234.101C370.542 229.387 371.302 227.379 370.071 224.997C368.858 222.645 366.814 222.128 361.706 221.347C358.187 220.807 353.87 220.13 350.055 217.736V166.868C353.411 168.309 356.614 170.712 358.873 175.089C363.2 183.476 359.7 190.609 357.143 195.814C354.83 200.528 354.072 202.534 355.299 204.912C356.511 207.264 358.555 207.781 363.664 208.563C369.381 209.439 377.214 210.639 381.563 219.066ZM414.566 158.246C414.566 163.008 410.706 166.868 405.946 166.868C401.184 166.868 397.325 163.008 397.325 158.246C397.325 153.486 401.184 149.626 405.946 149.626C410.706 149.626 414.566 153.486 414.566 158.246ZM682.055 26.5167V40.0904C680.35 39.2277 679.016 38.9675 677.484 39.481C674.985 40.3215 674.167 42.2591 672.625 47.1836C670.896 52.7004 668.529 60.2574 659.548 63.2786C657.49 63.9701 655.561 64.2628 653.754 64.2628C647.699 64.2628 642.996 60.9883 639.333 58.4396C635.026 55.4425 633.164 54.3915 630.625 55.2439C627.238 56.3805 623.571 54.5592 622.435 51.1752C621.297 47.7912 623.118 44.1248 626.504 42.9848C635.44 39.9688 641.96 44.5134 646.719 47.8238C651.027 50.8243 652.894 51.8787 655.426 51.0195C657.925 50.179 658.743 48.2414 660.285 43.3169C662.014 37.8001 664.381 30.2431 673.363 27.222C676.564 26.147 679.443 26.0631 682.055 26.5167ZM577.965 270.673C578.835 270.766 579.764 270.873 580.713 271H556.889C554.277 263.994 556.961 257.776 558.998 253.087C561.092 248.271 561.756 246.234 560.419 243.914C559.104 241.633 557.04 241.213 551.907 240.676C546.154 240.068 538.277 239.24 533.544 231.03C528.832 222.857 532.002 215.574 534.314 210.254C536.407 205.444 537.075 203.407 535.74 201.097C533.956 198.002 535.019 194.05 538.114 192.264C541.205 190.479 545.161 191.545 546.946 194.638C551.657 202.812 548.487 210.097 546.173 215.413C544.081 220.225 543.413 222.262 544.748 224.574C546.061 226.856 548.126 227.273 553.261 227.812C559.015 228.418 566.893 229.249 571.625 237.456C576.338 245.635 573.171 252.921 570.86 258.241C568.767 263.058 568.103 265.095 569.439 267.414C570.759 269.704 572.827 270.127 577.965 270.673ZM682.055 -47.5837V-32.9883C680.913 -31.3964 680.923 -29.2294 681.248 -24.9673C681.69 -19.2023 682.293 -11.308 675.073 -5.16824C667.88 0.940765 660.147 -0.854828 654.502 -2.16769C649.392 -3.35391 647.268 -3.63971 645.231 -1.90576C643.23 -0.204346 643.191 1.89584 643.59 7.03604C644.033 12.7975 644.644 20.6919 637.428 26.8265C630.247 32.9338 622.515 31.1383 616.863 29.8203C611.756 28.6307 609.637 28.3465 607.605 30.0719C606.391 31.1057 604.902 31.6107 603.42 31.6107C601.59 31.6107 599.771 30.837 598.492 29.3325C596.178 26.6126 596.511 22.532 599.231 20.2178C606.415 14.1156 614.149 15.9111 619.794 17.224C624.901 18.4136 627.022 18.6995 629.052 16.9724C631.053 15.271 631.093 13.169 630.696 8.03052C630.25 2.26556 629.639 -5.62701 636.858 -11.76C644.042 -17.8707 651.778 -16.0751 657.425 -14.7622C662.536 -13.5794 664.659 -13.2902 666.696 -15.0224C668.705 -16.7324 668.748 -18.836 668.354 -23.9831C667.913 -29.748 667.31 -37.6423 674.532 -43.7804C677.012 -45.8892 679.554 -47.0121 682.055 -47.5837ZM667.779 101.531C671.105 98.1781 675.483 93.8749 682.055 93.168V106.475C680.653 107.117 679.184 108.399 676.962 110.636C672.89 114.742 667.31 120.367 657.945 118.936C648.613 117.505 644.906 110.485 642.2 105.357C639.752 100.723 638.578 98.933 635.933 98.529C632.404 97.9881 629.982 94.688 630.519 91.1585C631.058 87.629 634.35 85.2121 637.891 85.7444C647.222 87.1737 650.928 94.1933 653.636 99.3215C656.083 103.955 657.257 105.747 659.904 106.151C662.538 106.567 664.14 105.203 667.779 101.531ZM607.396 246.318C607.396 251.079 603.536 254.939 598.776 254.939C594.014 254.939 590.154 251.079 590.154 246.318C590.154 241.556 594.014 237.696 598.776 237.696C603.536 237.696 607.396 241.556 607.396 246.318ZM672.978 164.603C675.725 165.021 678.955 165.536 682.055 166.868V217.736C679.67 216.242 677.479 214.085 675.807 210.845C671.478 202.454 674.98 195.323 677.536 190.116C679.848 185.404 680.608 183.398 679.381 181.02C678.172 178.68 676.13 178.167 671.028 177.388C665.307 176.517 657.477 175.32 653.132 166.902C648.807 158.517 652.311 151.388 654.868 146.182C657.184 141.473 657.944 139.471 656.718 137.1C655.08 133.925 656.325 130.026 659.5 128.388C662.677 126.753 666.571 127.994 668.211 131.169C672.538 139.553 669.034 146.68 666.475 151.886C664.161 156.596 663.401 158.601 664.624 160.973C665.833 163.311 667.873 163.825 672.978 164.603ZM655.008 260.614C657.732 262.923 658.067 267.003 655.758 269.728C655.409 270.139 655.162 270.558 654.972 271H641.768C642.087 267.84 643.184 264.559 645.895 261.363C648.199 258.642 652.28 258.301 655.008 260.614ZM674.544 262.491C673.298 264.376 671.238 265.394 669.142 265.394C667.918 265.394 666.68 265.048 665.581 264.323C657.704 259.117 657.266 251.189 656.948 245.4C656.657 240.157 656.337 238.036 654.089 236.552C651.883 235.089 649.841 235.635 644.992 237.442C639.565 239.466 632.152 242.232 624.239 237.004C616.362 231.799 615.929 223.872 615.612 218.085C615.323 212.844 615.003 210.721 612.762 209.242C610.558 207.787 608.519 208.335 603.687 210.143C598.273 212.168 590.856 214.953 582.946 209.718C575.074 204.515 574.641 196.588 574.325 190.802C574.039 185.563 573.722 183.444 571.488 181.968C568.507 179.998 567.69 175.988 569.66 173.008C571.627 170.023 575.637 169.204 578.619 171.18C586.491 176.382 586.924 184.308 587.239 190.097C587.527 195.333 587.842 197.454 590.077 198.93C592.275 200.379 594.312 199.842 599.158 198.029C604.567 196.009 611.983 193.231 619.893 198.454C627.774 203.661 628.208 211.589 628.523 217.378C628.809 222.616 629.129 224.737 631.37 226.216C633.583 227.679 635.625 227.138 640.471 225.325C645.885 223.307 653.305 220.528 661.22 225.764C669.101 230.971 669.537 238.899 669.857 244.69C670.148 249.931 670.468 252.052 672.712 253.534C675.689 255.502 676.509 259.513 674.544 262.491ZM547.039 127.248C538.994 122.303 538.313 114.389 537.811 108.614C537.356 103.39 536.972 101.285 534.692 99.8829C531.652 98.0121 530.701 94.029 532.573 90.9873C534.448 87.9405 538.429 87.0042 541.469 88.8665C549.509 93.8099 550.195 101.723 550.691 107.498C551.147 112.722 551.534 114.829 553.812 116.231C556.068 117.609 558.084 117 562.87 115.035C568.229 112.834 575.554 109.823 583.624 114.783C591.669 119.732 592.359 127.643 592.86 133.418C593.314 138.647 593.703 140.755 595.988 142.16C598.256 143.553 600.286 142.939 605.068 140.975C610.419 138.771 617.752 135.763 625.834 140.736C633.883 145.684 634.573 153.597 635.077 159.376C635.536 164.603 635.925 166.712 638.215 168.121C641.253 169.992 642.205 173.975 640.332 177.017C639.11 179.002 636.989 180.096 634.821 180.096C633.664 180.096 632.493 179.786 631.437 179.137C623.392 174.187 622.702 166.277 622.197 160.499C621.738 155.27 621.35 153.159 619.061 151.752C616.792 150.362 614.767 150.968 609.981 152.937C604.621 155.134 597.289 158.142 589.215 153.176C581.17 148.231 580.48 140.318 579.978 134.541C579.523 129.312 579.136 127.205 576.846 125.8C574.599 124.415 572.582 125.028 567.791 126.996C562.437 129.199 555.113 132.208 547.039 127.248ZM611.259 72.1571C611.037 75.5787 608.195 78.2061 604.815 78.2061L604.39 78.1925C594.964 77.5848 590.649 70.9161 587.501 66.0498C584.651 61.6422 583.321 59.9613 580.639 59.7884C578.025 59.5762 576.493 61.1013 573.185 65.0776C569.481 69.5228 564.45 75.5496 554.952 75.0019C545.531 74.3908 541.221 67.7255 538.071 62.8575C535.221 58.4516 533.896 56.7708 531.218 56.5979C528.525 56.4353 527.089 57.9158 523.784 61.8852C520.093 66.3322 515.003 72.4155 505.573 71.813C496.157 71.2054 491.851 64.5366 488.706 59.6669C485.86 55.2627 484.533 53.5836 481.865 53.4107C478.299 53.1796 475.596 50.1037 475.829 46.54C476.06 42.9728 479.2 40.2821 482.698 40.5046C492.116 41.114 496.422 47.7827 499.567 52.6507C502.412 57.0549 503.738 58.7357 506.407 58.9069C509.118 59.0883 510.54 57.5924 513.841 53.6196C517.538 49.1709 522.618 43.0875 532.051 43.6901C541.474 44.3011 545.784 50.9681 548.934 55.8362C551.782 60.2437 553.108 61.9229 555.785 62.0958C558.416 62.2789 559.928 60.7812 563.241 56.8067C566.94 52.358 571.933 46.2782 581.473 46.8807C590.899 47.49 595.212 54.1587 598.362 59.025C601.212 63.4326 602.542 65.1135 605.224 65.2864C608.784 65.5174 611.487 68.5934 611.259 72.1571ZM450.693 67.0271C459.323 70.8545 461.066 78.6016 462.333 84.2587C463.481 89.3801 464.147 91.4152 466.593 92.5021C469.022 93.5702 470.932 92.699 475.408 90.1041C480.417 87.2045 487.275 83.2402 495.938 87.0778C504.572 90.9034 506.314 98.6539 507.586 104.311C508.74 109.434 509.404 111.473 511.855 112.56C515.121 114.006 516.595 117.827 515.147 121.091C514.077 123.502 511.711 124.939 509.233 124.939C508.356 124.939 507.468 124.761 506.617 124.381C497.984 120.557 496.241 112.806 494.969 107.149C493.816 102.026 493.151 99.9874 490.7 98.9004C488.285 97.8306 486.365 98.707 481.887 101.297C476.88 104.198 470.02 108.167 461.355 104.325C452.727 100.497 450.984 92.7504 449.716 87.0915C448.567 81.9702 447.901 79.935 445.455 78.8497C443.04 77.7851 441.128 78.6649 436.662 81.2512C431.652 84.1525 424.787 88.1168 416.144 84.2878C407.514 80.4656 405.78 72.7168 404.514 67.0563C403.365 61.9418 402.703 59.9066 400.267 58.8265C396.999 57.3784 395.526 53.5579 396.974 50.2937C398.418 47.0278 402.24 45.5541 405.503 47.0022C414.128 50.8244 415.862 58.5714 417.13 64.2303C418.279 69.3465 418.94 71.3834 421.381 72.4635C423.797 73.535 425.709 72.6518 430.175 70.0637C435.185 67.1624 442.051 63.1981 450.693 67.0271ZM578.479 21.8079C573.717 21.8079 569.857 17.9497 569.857 13.1878C569.857 8.4259 573.717 4.56613 578.479 4.56613C583.239 4.56613 587.101 8.4259 587.101 13.1878C587.101 17.9497 583.239 21.8079 578.479 21.8079ZM456.361 50.6224C451.599 50.6224 447.739 46.7625 447.739 42.0006C447.739 37.2387 451.599 33.3789 456.361 33.3789C461.121 33.3789 464.981 37.2387 464.981 42.0006C464.981 46.7625 461.121 50.6224 456.361 50.6224ZM614.645 -23.7811C611.92 -26.0902 611.586 -30.1709 613.895 -32.8959C619.998 -40.0935 627.911 -39.5748 633.7 -39.1948C638.925 -38.8508 641.065 -38.9141 642.794 -40.9561C644.507 -42.9742 644.209 -45.0659 642.992 -50.0931C642.232 -53.2272 641.368 -57.0169 641.768 -61H654.972C654.223 -59.2746 654.591 -57.1402 655.559 -53.1365C656.922 -47.5154 658.784 -39.8179 652.658 -32.5911C646.551 -25.3935 638.631 -25.9156 632.851 -26.2904C627.626 -26.6259 625.49 -26.5695 623.758 -24.5309C622.481 -23.0229 620.658 -22.2457 618.823 -22.2457C617.344 -22.2457 615.86 -22.7507 614.645 -23.7811ZM558.233 -58.1295C557.673 -59.1 557.242 -60.0569 556.889 -61H580.713C586.039 -60.2879 592.314 -58.6429 596.335 -51.6696C601.049 -43.4894 597.884 -36.2011 595.575 -30.8812C593.484 -26.0628 592.819 -24.0225 594.158 -21.6997C595.942 -18.605 594.879 -14.6527 591.784 -12.8674C590.767 -12.282 589.656 -12.003 588.562 -12.003C586.325 -12.003 584.15 -13.1653 582.953 -15.2415C578.238 -23.42 581.402 -30.71 583.711 -36.0316C585.805 -40.8483 586.467 -42.8886 585.129 -45.2114C583.809 -47.5016 581.741 -47.9244 576.603 -48.4704C570.85 -49.0781 562.969 -49.9151 558.233 -58.1295ZM613.043 104.999C613.043 109.761 609.183 113.621 604.421 113.621C599.659 113.621 595.799 109.761 595.799 104.999C595.799 100.239 599.659 96.3791 604.421 96.3791C609.183 96.3791 613.043 100.239 613.043 104.999ZM543.547 152.943C548.307 152.943 552.167 156.803 552.167 161.563C552.167 166.325 548.307 170.185 543.547 170.185C538.785 170.185 534.925 166.325 534.925 161.563C534.925 156.803 538.785 152.943 543.547 152.943ZM350.904 -33.9263C350.56 -33.6319 350.291 -33.3187 350.055 -32.9883V-47.5837C354.808 -48.6707 359.407 -47.6488 363.106 -46.7878C368.216 -45.6051 370.343 -45.3192 372.384 -47.0532C375.098 -49.3605 379.186 -49.0319 381.497 -46.3137C383.811 -43.5938 383.479 -39.5132 380.757 -37.199C373.571 -31.0883 365.833 -32.8821 360.186 -34.1916C355.072 -35.3761 352.951 -35.6585 350.904 -33.9263ZM354.207 42.6733C352.477 41.4717 351.198 40.669 350.055 40.0904V26.5167C354.736 27.3315 358.533 29.9315 361.588 32.0557C365.903 35.0546 367.774 36.1073 370.306 35.2481C372.817 34.4042 373.638 32.4631 375.187 27.5334C376.92 22.0167 379.292 14.4614 388.282 11.4385C397.222 8.42938 403.752 12.9602 408.512 16.2672C412.829 19.266 414.705 20.3222 417.243 19.4578C420.627 18.3178 424.297 20.1407 425.436 23.5247C426.574 26.9087 424.753 30.5751 421.369 31.7168C412.415 34.7191 405.898 30.1968 401.135 26.8881C396.816 23.8893 394.949 22.8383 392.405 23.6976C389.894 24.5415 389.073 26.4825 387.523 31.4087C385.791 36.9255 383.419 44.4825 374.432 47.5071C365.486 50.5128 358.967 45.9803 354.207 42.6733ZM382.118 74.9779C382.118 79.7381 378.256 83.5997 373.496 83.5997C368.734 83.5997 364.874 79.7381 364.874 74.9779C364.874 70.216 368.734 66.3562 373.496 66.3562C378.256 66.3562 382.118 70.216 382.118 74.9779ZM541.919 -22.2851C541.919 -27.0453 545.779 -30.9051 550.541 -30.9051C555.301 -30.9051 559.161 -27.0453 559.161 -22.2851C559.161 -17.5232 555.301 -13.6633 550.541 -13.6633C545.779 -13.6633 541.919 -17.5232 541.919 -22.2851ZM352.838 106.018C351.826 105.864 350.952 106.066 350.055 106.475V93.168C351.53 93.0088 353.081 92.9711 354.796 93.233C364.13 94.6623 367.841 101.682 370.55 106.808C373.003 111.447 374.179 113.236 376.834 113.641C379.446 114.054 381.082 112.697 384.733 109.023C388.809 104.92 394.38 99.2907 403.764 100.734C413.101 102.163 416.815 109.183 419.527 114.306C421.981 118.946 423.161 120.736 425.819 121.144C429.348 121.685 431.77 124.985 431.231 128.514C430.742 131.712 427.986 134.002 424.848 134.002C424.521 134.002 424.193 133.978 423.861 133.928C414.522 132.497 410.807 125.479 408.096 120.355C405.642 115.714 404.462 113.924 401.807 113.518C399.202 113.106 397.556 114.463 393.908 118.136C389.831 122.239 384.239 127.852 374.876 126.426C365.539 124.997 361.828 117.977 359.12 112.851C356.667 108.214 355.491 106.422 352.838 106.018ZM447.263 -19.062C448.749 -14.0313 449.543 -12.0441 452.052 -11.1266C454.532 -10.2212 456.381 -11.2208 460.665 -14.1049C465.468 -17.3315 472.057 -21.7442 480.935 -18.4937C489.8 -15.2467 492.053 -7.63306 493.694 -2.07007C495.18 2.96057 495.979 4.94946 498.494 5.87036C500.994 6.78439 502.838 5.77454 507.127 2.89548C511.93 -0.331055 518.522 -4.7352 527.413 -1.48471C536.279 1.76065 538.53 9.3793 540.177 14.9389C541.667 19.9746 542.467 21.9637 544.985 22.8846C548.34 24.1118 550.062 27.8262 548.831 31.1794C547.876 33.8 545.397 35.4261 542.761 35.4261C542.025 35.4261 541.27 35.2977 540.539 35.0289C531.673 31.7836 529.42 24.1666 527.775 18.6054C526.285 13.5713 525.485 11.5823 522.967 10.6614C520.472 9.7525 518.623 10.7556 514.334 13.6346C509.531 16.8594 502.939 21.2584 494.048 18.0148C485.187 14.7694 482.934 7.15411 481.293 1.59457C479.807 -3.43948 479.006 -5.42841 476.49 -6.3493C474.035 -7.2428 472.17 -6.2518 467.88 -3.37274C463.082 -0.14621 456.506 4.28027 447.607 1.01779C438.746 -2.22241 436.498 -9.83939 434.86 -15.4041C433.374 -20.4313 432.578 -22.4186 430.074 -23.3361C426.719 -24.5668 424.997 -28.2794 426.226 -31.6309C427.447 -34.9892 431.177 -36.6974 434.519 -35.4804C443.377 -32.2385 445.625 -24.6232 447.263 -19.062ZM457.716 -59.0281C457.482 -59.7539 457.266 -60.3975 457.057 -61H470.692C471.92 -57.4671 472.859 -55.9111 475.023 -55.1785C477.527 -54.3312 479.352 -55.3788 483.569 -58.3588C484.771 -59.2095 486.087 -60.1373 487.527 -61H508.137C513.522 -57.3456 515.458 -51.5925 516.901 -47.1336C518.517 -42.1372 519.366 -40.1671 521.909 -39.3061C525.292 -38.1592 527.106 -34.4911 525.961 -31.1071C525.047 -28.4112 522.533 -26.7132 519.837 -26.7132C519.15 -26.7132 518.448 -26.8245 517.762 -27.0556C508.824 -30.0853 506.379 -37.6389 504.597 -43.1557C502.98 -48.1538 502.131 -50.1222 499.587 -50.9832C497.085 -51.8356 495.255 -50.7881 491.039 -47.8029C486.32 -44.4617 479.862 -39.8864 470.876 -42.928C461.939 -45.956 459.5 -53.5096 457.716 -59.0281ZM384.764 -17.1124C384.764 -21.8726 388.624 -25.7341 393.386 -25.7341C398.148 -25.7341 402.006 -21.8726 402.006 -17.1124C402.006 -12.3505 398.148 -8.49066 393.386 -8.49066C388.624 -8.49066 384.764 -12.3505 384.764 -17.1124ZM424.042 -58.7816C422.337 -59.3585 420.932 -60.139 419.66 -61H440.199C435.991 -58.4787 430.714 -56.5257 424.042 -58.7816Z" fill="white" fill-opacity="0.1"/>
</svg>
